<?xml version="1.0" encoding="UTF-8" standalone="no"?>
<!-- Generator: Adobe Illustrator 24.0.1, SVG Export Plug-In . SVG Version: 6.00 Build 0)  -->

<svg
   version="1.1"
   id="Layer_2_1_"
   x="0px"
   y="0px"
   viewBox="0 0 307.32938 307.70001"
   xml:space="preserve"
   sodipodi:docname="atl.svg"
   width="307.32938"
   height="307.70001"
   inkscape:version="1.1.2 (b8e25be8, 2022-02-05)"
   xmlns:inkscape="http://www.inkscape.org/namespaces/inkscape"
   xmlns:sodipodi="http://sodipodi.sourceforge.net/DTD/sodipodi-0.dtd"
   xmlns="http://www.w3.org/2000/svg"
   xmlns:svg="http://www.w3.org/2000/svg"><defs
   id="defs14" /><sodipodi:namedview
   id="namedview12"
   pagecolor="#ffffff"
   bordercolor="#666666"
   borderopacity="1.0"
   inkscape:pageshadow="2"
   inkscape:pageopacity="0.0"
   inkscape:pagecheckerboard="0"
   showgrid="false"
   inkscape:zoom="1.535"
   inkscape:cx="153.4202"
   inkscape:cy="154.39739"
   inkscape:window-width="1296"
   inkscape:window-height="969"
   inkscape:window-x="0"
   inkscape:window-y="25"
   inkscape:window-maximized="0"
   inkscape:current-layer="Layer_2_1_" />
<style
   type="text/css"
   id="style2">
	.st0{fill:#FFFFFF;}
	.st1{fill:#E03A3E;}
</style>
<g
   id="Layer_2_2_"
   transform="translate(-46.28669,-45.3)">
	<path
   class="st0"
   d="m 312.9,93.7 c -28.8,-30.8 -70.7,-48.4 -115,-48.4 -3.8,0 -7.6,0.1 -11.3,0.5 -71.5,4.8 -106,55.7 -109.6,61.3 -5.4,6.7 -50.7,68 -20.3,152.6 l 0.6,1.8 C 57.6,262.4 87.2,353 193,353 v 0 c 5.6,0 11.5,-0.3 17.4,-0.8 79.1,-6.9 137.8,-65.3 142.8,-141.9 3.1,-44.1 -11.2,-85.5 -40.3,-116.6"
   id="path4" />
	<path
   class="st1"
   d="M 305.4,100.6 C 275.7,68.9 231.9,52.6 187.1,55.7 116,60.5 84.4,113.4 84.4,113.4 c 0,0 56.4,17.1 64.1,19.5 5.4,1.6 40.4,10.4 56.3,19 3.3,1.8 6.5,5.5 9.7,8.8 2.4,2.5 4.6,4.9 6.9,6.8 4.2,3.4 8.2,6.3 12.2,9.2 9.7,7.1 18.2,13.1 22.2,22.4 3.4,8 3.5,16.4 0.5,24.1 -2.7,6.7 -8,12.8 -14.4,17 0.7,-3.4 1.5,-8.3 -3.1,-11.3 -2.1,-1.3 -12.6,-3.8 -19.7,-4.6 -3.4,-0.3 -41.5,-2.1 -94.3,26.4 C 140.6,229.5 152,226 152,226 c -0.5,-2.5 -85.5,31.9 -85.5,31.9 0,0 29.4,94.1 142.8,84.1 73.9,-6.5 128.9,-60.6 133.7,-132.7 2.8,-41.1 -10.6,-79.8 -37.6,-108.7 m -23.6,133.2 c 10.7,-23.6 5.4,-49.2 -12.8,-69.5 -5,-5.6 -11.3,-9.5 -17.3,-13.1 -3.9,-2.4 -8,-4.9 -11.6,-7.9 -1.7,-1.4 -3.1,-3.3 -4.6,-5.2 -1.8,-2.5 -3.9,-5.4 -6.9,-7.4 -16.7,-12.2 -36.5,-16.5 -55.9,-22.2 -9.2,-2.7 -18.1,-4.7 -26.5,-7.7 10.5,-7.2 23.8,-12 38.4,-13.3 4.6,-0.5 9.1,-0.7 13.7,-0.7 43.1,0 80.5,21.6 100.5,58 19.9,36.3 18.7,80.4 -3.4,115.2 -22.7,35.7 -62.9,54.6 -108.4,50.8 -27.2,-2.2 -56.3,-16.6 -65.2,-32 5.5,-3.4 55.2,-29.7 89.3,-19.1 9.7,0 -5.8,23.7 -5.8,23.7 0,0 56.3,-5 76.5,-49.6"
   id="path6" />
	<path
   class="st1"
   d="m 197.7,162.3 c -18.2,0.7 -35.1,-21.3 -49.1,-6.8 2.7,0.7 8.3,-1.4 9.1,1.1 -7.2,28.4 39.6,35.8 40,5.7"
   id="path8" />
</g>
</svg>
