<?xml version="1.0" encoding="UTF-8" standalone="no"?>
<!-- Generator: Adobe Illustrator 24.0.1, SVG Export Plug-In . SVG Version: 6.00 Build 0)  -->

<svg
   version="1.1"
   id="Layer_1"
   x="0px"
   y="0px"
   viewBox="0 0 288.60001 320.74957"
   xml:space="preserve"
   sodipodi:docname="bos.svg"
   width="288.60001"
   height="320.74957"
   inkscape:version="1.1.2 (b8e25be8, 2022-02-05)"
   xmlns:inkscape="http://www.inkscape.org/namespaces/inkscape"
   xmlns:sodipodi="http://sodipodi.sourceforge.net/DTD/sodipodi-0.dtd"
   xmlns="http://www.w3.org/2000/svg"
   xmlns:svg="http://www.w3.org/2000/svg"><defs
   id="defs171" /><sodipodi:namedview
   id="namedview169"
   pagecolor="#ffffff"
   bordercolor="#666666"
   borderopacity="1.0"
   inkscape:pageshadow="2"
   inkscape:pageopacity="0.0"
   inkscape:pagecheckerboard="0"
   showgrid="false"
   inkscape:zoom="1.535"
   inkscape:cx="143.64821"
   inkscape:cy="149.83713"
   inkscape:window-width="1296"
   inkscape:window-height="969"
   inkscape:window-x="0"
   inkscape:window-y="25"
   inkscape:window-maximized="0"
   inkscape:current-layer="Layer_1" />
<style
   type="text/css"
   id="style2">
	.st0{fill:#BB9753;}
	.st1{fill:#008348;}
	.st2{fill:#F9A980;}
	.st3{fill:#A73832;}
	.st4{fill:#FFFFFF;}
</style>
<g
   id="Layer_3"
   transform="translate(-56.1,-50)">
	<path
   d="M 344.7,200.7 C 344.7,162.2 329.7,126 302.4,98.8 279,75.3 248.8,60.8 216,57.4 c -0.8,-0.8 -1.7,-1.5 -2.5,-2 -11.5,-7.5 -21.1,-1.9 -27.8,1.3 -0.4,0.2 -1.1,0.4 -1.7,0.9 -12.5,1.5 -24.7,4.6 -36.1,8.9 -1.3,-2 -2.9,-3.9 -4.7,-5.7 C 136.3,53.9 127,50 117,50 96.7,50 80.1,66.5 80.1,86.9 c 0,8.5 2.9,16.7 8.2,23.1 -20.1,24.7 -32.2,56.3 -32.2,90.8 0,38.5 15,74.7 42.3,101.9 13.3,13.3 28.7,23.7 45.6,30.9 -1,7.6 0.3,12.7 1.7,14.9 -2.1,1.8 -3,2.9 -3.4,4.9 -3.4,4.6 4.8,10.4 8.2,13 6.8,5.3 10.4,4.4 15.9,4.1 6.6,-0.3 12.9,-8 16.3,-13.1 7.2,-1 8.5,0.1 8.7,1 2.2,-0.3 5.4,-0.9 9.6,-2.7 9.7,-4 6.8,-8.9 5.9,-9.8 -0.3,-0.2 -0.4,-0.6 -0.7,-1 22.8,-0.9 44.8,-7 64.3,-18 0.7,0.8 1.5,1.7 2.1,2.7 2.1,3.1 3.2,13.3 3.7,18.4 0.4,5.3 1.3,8.8 3.9,17 2.6,8.3 3.6,2.2 3.7,0 0.1,-2.2 0.6,-10.3 0.2,-16.1 -0.3,-5.8 -0.4,-14.1 0.7,-17.7 1.1,-3.6 -0.9,-4.5 -1.5,-5.1 -0.6,-0.7 0,-0.9 -1.5,-5.4 -0.1,-0.3 -0.2,-0.4 -0.2,-0.8 7.4,-5 14.2,-10.7 20.7,-17.2 27.4,-27.3 42.4,-63.5 42.4,-102"
   id="path4" />
</g>
<g
   id="Layer_5"
   transform="translate(-56.1,-50)">
	<g
   id="g17">
		<path
   class="st0"
   d="m 187,338.1 c -1.7,-1.5 -4.4,-3.4 -4.8,-3.7 -0.3,-0.3 -1.3,0.1 -2.1,0.4 0,0 0.7,0.3 1.2,1 0.8,0.8 3,2.5 3.9,3.4 0.9,0.8 0.6,1.8 0.3,2.5 -0.1,0.7 1,-0.1 2.3,-0.9 1.4,-0.8 0.9,-1.3 -0.8,-2.7 z"
   id="path7" />
		<path
   class="st0"
   d="m 181.3,343.7 c -0.9,0.3 -1.9,0 -2.5,-0.6 -0.7,-0.7 -4.4,-3.8 -5,-4.5 -0.7,-0.7 -0.6,-1.6 0,-2 -1.2,0.1 -2,0.1 -2.9,0.1 -0.8,0.1 -2.1,0.1 -1.1,1.1 0.9,0.9 5.9,5.6 6.8,6.5 0.9,0.9 1.8,0.9 2.7,0.7 0.9,-0.1 3,-1.6 2,-1.3 z"
   id="path9" />
		<path
   class="st0"
   d="m 199.8,156.8 c 0.4,-1.1 1.3,-3.4 2,-5.1 -1.6,0 -3.8,0.2 -5.1,0.2 -1.2,0 -0.8,1.8 -1,2.9 -0.2,1.3 2.1,0.2 1.8,1.9 -0.1,0.7 1.9,1.2 2.3,0.1 z"
   id="path11" />
		<path
   class="st0"
   d="m 167.9,314.6 c -0.3,0 -1.1,-0.1 -1.5,-0.3 h -0.2 v 0 l -0.8,-0.1 c 0.4,0.3 0.7,1 0.1,1.3 -0.9,0.6 -3.8,1 -6.8,0.8 -3,-0.1 -3.7,-1.8 -3.8,-2.9 0,-0.7 0.1,-1.3 0.1,-2.5 0,-1.2 -0.3,-2.1 0.3,-2.6 0.7,-0.4 0.6,0.7 1,0.7 1.9,0 8.5,0.7 10.1,0.9 1.6,0.1 1.5,-0.7 1.1,-1.8 -0.1,-0.3 -0.4,-0.2 -0.2,0 -0.2,0.6 -1.7,0.3 -1.7,0.3 0,0 -2.9,-0.2 -4.8,-0.3 -2,-0.1 -3.5,-0.3 -4.6,-0.6 -1.1,-0.2 -2.6,-0.2 -2.5,0.3 0.1,0.6 0.3,7.5 0.4,8.5 0,1 0.1,1.3 0.6,1.3 1.2,0 9.8,0.1 11.8,0.1 2,0 1.8,-0.2 1.9,-1.3 0.2,-0.9 -0.1,-1.8 -0.5,-1.8 z"
   id="path13" />
		<path
   class="st0"
   d="m 177.7,98.3 c 0.6,0.7 1.2,1.2 2,1.8 1.3,-1.5 2.6,-2.7 3.9,-3.9 0,0 0,0 0,-0.1 0.8,-0.8 1.7,-1.7 2.7,-2.7 2.9,-2.7 5.7,-4.9 8.9,-7 1.8,-1.1 3.2,-2.2 4.9,-3.2 0,-0.1 0,-0.1 0,-0.2 1.9,-1.1 3.2,-1.8 3.2,-1.8 0,0 1.9,-0.8 4.4,-1.9 2.8,-1 6.1,-1.9 10.4,-2.8 0.3,-1 0.3,-3.4 0.1,-4.2 -0.1,-3.1 -3.5,-6.1 -3.5,-6.1 0.3,-0.2 -0.2,-1.8 -0.4,-3.2 -3.9,1.1 -8.9,3.2 -13.3,5.4 -0.7,0.3 -0.7,0.3 -2.3,1.2 v -0.1 c -0.8,0.3 -1.7,0.9 -2.3,1.2 -1.3,0.7 -3.4,1.9 -5.5,3.5 -3.1,2.1 -6.9,4.9 -10.4,8 -2,1.7 -5.5,5.9 -5.5,5.9 -0.6,0.8 -1.1,1.5 -1.5,2.2 0.3,0.8 0.4,1.5 0.7,2.1 0.3,0.9 1.5,4.2 3.5,5.9 z"
   id="path15" />
	</g>
	<path
   class="st0"
   d="m 193.5,151.9 c -2.5,-1.1 -4.7,-3.8 -6.3,-6.8 0,0 0.1,-0.4 -0.6,-0.4 -0.7,0 -3.1,-0.2 -7.3,-1.7 -4.2,-1.5 -4.7,-0.6 -5.3,1.2 -0.6,1.8 -1,5 -1.1,10.4 -0.1,5.4 2.2,8.7 3.7,8.2 0.7,-0.3 2.5,-1.1 4.5,-2.1 l 5.5,-2.3 c 2.3,-0.8 5,-2.3 5.9,-2.9 l 1.5,0.1 c 0.2,-2.1 0.1,-3.3 -0.5,-3.7 z"
   id="path19" />
	<path
   class="st0"
   d="m 225,143.2 c -3.7,-0.2 -8,0.4 -12.1,2.1 l -2,0.6 c -1.1,0.6 -2.5,1.1 -3.5,1.8 -5.7,3.5 -5.9,6.5 -4.6,7.5 1.1,1 3.7,1.5 7.8,4.1 l 1.6,1.5 0.1,0.1 c 6.1,4.5 7.6,2 8.6,-0.1 0.9,-2.1 2.9,-8.4 3.5,-11.7 0.3,-2.2 0.8,-4.2 0.6,-5.9 z"
   id="path21" />
	<path
   class="st0"
   d="m 185.1,176.4 c -0.9,-2 -1.1,-0.4 -3.7,3.5 -1.2,2 -7.7,9.2 -8.2,9.7 -5.7,7 -16.7,15.8 -16.7,15.8 -4.9,4.5 -7.6,7.8 -9.3,10.5 l 6.4,20.1 c 2.8,3.9 6.8,9.5 8.3,11.8 2.2,3.7 2.2,8.2 3.1,7.5 0.9,-0.7 3,-2.7 3.7,-3.2 0.7,-0.6 1.3,-1.2 1,-2.5 -0.3,-1.2 -1.7,-7.8 -1.2,-12.4 0.4,-5.3 2.9,-11 4.7,-14.2 1.8,-3.2 6.8,-13.3 8.2,-16 1.2,-2.7 3.5,-5.8 4,-8.3 0.5,-2.5 2.7,-8.2 3.6,-10.8 0,-1.6 -1.5,-6.1 -3.9,-11.5 z"
   id="path23" />
	<path
   class="st0"
   d="m 238.2,235.3 c 0,-2.6 -1.5,-4.6 -4.4,-9.4 -2.9,-4.7 -3.5,-6.7 -3.9,-11.6 -0.3,-3.1 0,-7.2 0.3,-11.1 l -8.4,-8.4 -0.2,-7.4 -0.3,-1.6 c -2.3,-11.1 3,-24.3 4.5,-27.9 1.6,-3.9 7.5,-14.9 9.7,-18.2 -1.1,-0.6 -4,-2 -5.7,-2.9 -1.7,-0.9 -2.5,-1.2 -2.9,-0.6 -0.4,0.6 -1,1 -1.8,2 -1.6,2.2 -0.2,1.9 0.2,1.9 0.4,0 2.3,2.5 2.7,3 0.3,0.6 0,1 -0.8,2.8 -1.1,2.3 -1.7,7.7 -2.5,11 -2.7,9.7 -6.8,8.8 -8.8,7.5 -1.9,-1.2 -2.5,0.7 -4.4,3.4 -0.4,0.7 -1.5,2.1 -3,3.7 l -1.7,2.6 -10.5,10.1 c 0,0 -3.6,3.7 -4.7,4.2 -1.5,2.5 -2.7,5.5 -4.5,10.8 -2.5,7.5 -8,17.5 -10.4,21.4 -6,9.7 -7,18.8 -6.1,24.5 0.9,5.6 1.7,5.3 2.9,5.3 1.2,0 4.2,3.8 6.1,6.1 2,2.3 2.8,1.3 3.8,0.6 3.2,-2.5 9.7,-6.7 18.9,-11.1 3.9,-1.8 9.1,-3.9 14.1,-5.4 l 5.1,-1.6 c 4.8,-1.3 9.1,-2.1 11.3,-1.9 3.3,0.2 5.6,1.1 5.4,-1.8 z"
   id="path25" />
</g>
<g
   id="Layer_2_2_"
   transform="translate(-56.1,-50)">
	<g
   id="Layer_2_1_">
		<path
   class="st1"
   d="m 166.4,335.3 c 5.4,-0.2 12.9,-1.9 16.2,-3.4 0.4,0.1 1.1,0.6 2.3,1 0.4,-3.6 -1.8,-11.1 -3.1,-14.4 -0.9,-2.2 -1.7,-3.8 -2.7,-6.1 -3,-0.6 -6.8,-2.2 -9.4,-3.2 0,2.1 0.3,7.6 0.9,11.3 -1.1,0.1 -2.7,0.2 -4.6,0.2 0.3,3.9 0.6,11.2 0.4,14.6"
   id="path28" />
		<path
   class="st1"
   d="m 267.2,323.4 c -1,-1 1.2,-4.1 2.2,-9.8 1,-5.8 1.1,-15.4 -3.1,-21 -2,-2.6 -3.1,-4.4 -3.4,-5.5 -13.2,9.6 -28.3,16 -44.4,18.7 -0.2,0.3 -0.3,0.7 -0.6,0.9 -2.3,3 -6.8,7.4 -10.3,9.1 -3.4,1.8 -7.3,3.1 -9.4,3.8 -0.4,3.6 -1.1,11.5 -0.1,14.2 0.3,1 4.5,3.5 5.9,6.1 0.2,0.3 0.3,0.6 0.3,0.8 22.7,-0.7 44.2,-6.8 62.9,-17 0.3,-0.2 0.2,-0.3 0,-0.3"
   id="path30" />
		<path
   class="st1"
   d="M 299.5,101.6 C 277.6,79.7 249.6,65.8 219.4,61.8 c 2.5,4.8 2.8,10.4 3,13.9 4.4,-1.9 7.6,-2.9 9.5,-5.8 1.8,-2.9 4.2,-2.3 5.8,-0.2 1.6,2.1 1.6,4.7 -2.5,7.4 -4.1,2.6 -7.2,3.8 -8,4.2 -0.9,0.4 -0.1,1.2 0.9,2.9 1,1.7 3.6,5.8 3.9,14.5 0,0.1 0,0.2 0,0.3 16.3,5 31.4,14 43.8,26.5 20.1,20.1 31.2,46.9 31.2,75.3 0,16.3 -3.7,32.1 -10.5,46.4 1,0.4 2.1,3.7 2.6,7.9 0.2,2.2 0.1,4.7 -0.6,6.1 -0.7,1.6 -5.9,9.5 -8.6,11.8 -1,0.9 -3.4,0.8 -4.4,-0.7 -1,-1.5 -1.1,-0.7 -1.9,0.1 -0.8,0.8 -3.5,4.7 -4.1,5.7 -0.7,1 -2.9,2 -1.5,6 1.5,4 3.1,7 2.6,9.3 -0.6,2.2 -0.8,2.9 2.2,5.4 3,2.5 2.9,5.7 1.6,7.6 -0.9,1.2 -2.1,4.7 -2.7,8 35.5,-25.5 58.8,-67.1 58.8,-114 0.2,-37.1 -14.5,-72.3 -41,-98.8"
   id="path32" />
		<path
   class="st1"
   d="m 138.7,304.1 c -0.3,-3.8 -1,-10.6 1.7,-15.4 C 135,285 130,280.8 125.2,276.1 105,255.9 94,229.1 94,200.7 c 0,-30.5 12.9,-57.9 33.4,-77.4 0.2,-0.3 0.4,-0.8 0.8,-1.1 -3.5,1.1 -7.2,1.7 -11,1.7 -9.7,0 -19,-3.8 -26,-10.7 -19.9,24.7 -30.9,55.4 -30.9,87.6 0,37.4 14.6,72.7 41,99 12.6,12.6 27.4,22.6 43.4,29.6 0.6,-3 1.6,-6.3 2.9,-9.7 1.2,-3.2 -0.7,-10.7 -3.8,-14.6 -1.5,-0.6 -3.7,-0.9 -5.1,-1"
   id="path34" />
		<path
   class="st1"
   d="m 175.8,62.9 c -8.8,1.6 -17.5,3.9 -25.7,7.2 2.7,5.1 4,11 4,16.9 0,7.9 -2.5,15.4 -7,21.8 7.7,-4.5 16.1,-8 24.7,-10.5 0.6,-0.6 1.1,-1.1 1.8,-1.6 -3.2,-5.4 -7.5,-14 -3.8,-25.5 1,-3.4 3.4,-6.1 6,-8.3"
   id="path36" />
		<path
   class="st2"
   d="m 127.6,154.7 c -1.5,-0.4 -2.6,1.2 -3.2,2.6 -0.7,1.3 -1.5,2.8 0.7,5.8 2.1,3 3.4,4.8 7.2,4.6 1.8,-0.1 3.4,-1.5 3.9,-2.2 0.5,-0.7 0.7,0.6 -0.2,1.9 -0.9,1.3 -1.6,4.5 0.1,6.6 1.7,2.1 5.1,3.9 9.7,1.2 4.6,-2.7 6.5,-5.9 7.3,-7.4 0.8,-1.5 0.8,-2.1 0,-3 -0.8,-0.9 -3.4,-5.1 -3.9,-13.4 -0.3,-5 0.6,-8.3 -2.5,-10.1 -3.1,-1.8 -10.3,-6 -11.1,-14.2 -0.3,-3.1 -0.1,-7.9 -3.2,-5.4 -3.1,2.6 -3.1,4.4 -3.5,6.1 -0.3,1.9 1.2,4.5 2.5,6.1 1.3,1.8 2.9,5.7 4.1,6.7 1.2,1 2,1.8 3,1.9 1,0.1 5,0.1 6,0.4 1,0.3 1.6,1.6 -0.9,1.6 -2.5,0 -6.1,0.7 -7.9,0.9 -1.7,0.2 -3.2,0.3 -3.9,3.7 -0.8,3.4 -1.9,7.3 -2,8.5 -0.1,1.2 -0.8,1.9 -0.8,2.6 0,0.7 1.3,3.9 4.4,0.7 3.1,-3.2 4.2,-6.5 4.8,-8 0.6,-1.6 1.2,-1.3 0.7,1.1 -0.6,2.5 -0.7,8.6 0.4,10.7 1.2,2.3 3.8,4.7 7,3 0.7,-0.3 1.8,-0.9 2.7,-0.8 0.9,0.1 -0.2,1.7 -1,2.3 -0.8,0.7 -3.4,3.5 -7.8,-0.6 -1.1,-1 -2.7,-3.2 -3,-6 -0.1,-0.9 -1.3,-1.2 -1.9,-0.4 -0.6,0.8 -3.6,3.6 -5.7,1.6 -2.1,-2 -3,-3.1 -1.8,-7.4 -0.1,-0.7 0.3,-1.5 -0.2,-1.7"
   id="path38" />
		<path
   class="st2"
   d="m 129.9,148.5 c -0.4,1.5 -0.9,3.4 -1.1,3.9 -0.2,0.7 -1.2,2.1 -2.1,0.2 -0.9,-1.9 -0.9,-3.4 0.6,-4.8 0.4,-0.4 1.1,-1.3 1.6,-0.9 0.2,0.7 1,1.2 1,1.6"
   id="path40" />
		<path
   class="st2"
   d="m 134.9,143.3 c -0.9,0.4 -2.9,0.4 -3.6,2 -0.4,1 -2.2,-0.1 -1.3,-1.3 0.9,-1.2 1.6,-1.1 2.1,-1.5 0.6,-0.3 0.8,-1.3 1.9,-0.8 1,0.7 1.2,1.5 0.9,1.6"
   id="path42" />
		<path
   class="st2"
   d="m 195.1,123.1 c -0.6,1.3 -2.3,2.7 -6.1,2.3 -1.9,-0.2 -3.9,-0.3 -4.1,1.2 -0.2,1.1 -1.1,1 -2.3,1 -1.2,-0.1 -2.7,-0.3 -2.7,0.1 -0.1,0.4 5.4,3.8 7.3,4.6 1.8,0.9 4.6,2.8 6.7,2.6 2.9,-0.3 5.4,-1.8 9.7,-6.3 1.8,-1.8 3.2,-2.8 1.6,-3.6 -1.1,-0.4 -2.3,-0.7 -3.8,-0.7 -1.8,0 -4.9,-0.2 -6.3,-1.2"
   id="path44" />
		<path
   class="st2"
   d="m 174.3,123.2 c -1.6,-0.1 -1.7,-1.1 -0.7,-2.8 1,-1.7 1.9,-3.2 3.2,-4.2 0.2,0.7 0.7,1.7 1.3,2 -0.9,1 -2,2.1 -1.8,4.5 z"
   id="path46" />
		<path
   class="st2"
   d="m 234.7,110.5 c -2.3,-4.2 -6.3,-2.1 -8.2,1 -1.9,3.1 -4,6.6 -4.1,11.8 -1.3,-0.4 -2.7,0 -3.4,1.1 -0.3,0.6 -5.3,-0.1 -6.8,0.3 -1.7,0.4 -2.2,-0.6 -0.4,-2.9 1.8,-2.3 8,-10.8 7.6,-17.1 -0.1,-1.9 0.1,-2.2 0.4,-3.7 0.3,-1.8 0.6,-1.8 -1.8,-3.1 -1.5,-0.8 -1.6,-3.1 -1.8,-4.9 -0.3,-1.9 -0.7,-1.9 -2.8,-1.5 -1.3,0.2 -4,-1.5 -5.3,-3.4 -3.1,0.3 -6,2.2 -8.9,4.2 -2.9,2 -13.2,11 -15.8,12.7 2.5,1.3 3.2,3.9 2.3,8.5 -0.2,1 0,1.3 0.7,0.7 0.7,-0.7 3.8,-3.9 3.7,-6.7 -0.1,-2.7 -1.3,-4.2 -1.6,-4.6 -0.2,-0.3 0.9,-1.7 2.1,1.1 1.2,2.8 0.9,6.7 -2.8,11.1 -3.7,4.4 -6.6,4.2 -8.2,5 -1.6,0.8 -3.1,2 -1.7,4.4 1.4,2.4 4.2,1.5 5.4,0.7 1.1,-0.8 2.7,-1.7 6.1,-1.3 3.6,0.3 4.7,-1.9 2.3,-4.4 -0.8,-0.8 -2.8,-2.5 -0.3,-2.5 1.5,0 3.2,3.2 4.2,4.1 1,0.9 3.2,1.2 6.1,1.5 3,0.2 7.6,1.3 7.6,4.2 0,1.8 -1,2.3 -2.2,0.9 -0.4,-0.6 -1.2,0.3 -1.8,0.9 -1.9,1.9 -6.8,7 -10.2,7.9 -3.5,0.9 -4.7,-0.1 -9.3,-2.5 -4.6,-2.5 -8.8,-4.9 -10.1,-5.7 -1.2,-0.8 -3.8,-2.6 -2.6,1 1.2,3.6 4.2,7.3 10.3,9.3 6,2 6.8,2.7 8.3,3.4 1.3,0.7 0.6,1.3 -1.2,1.1 -1.6,-0.2 -3.2,-1.6 -1.9,1.5 1.3,3 3.4,6.3 9.5,5.4 6.1,-0.8 6.3,-2 10.2,-8.5 0.7,-1.1 1.3,-0.3 0.9,2.6 3,-1.5 4.7,-1.9 6.5,-2.3 1.8,-0.4 6.4,-2 9.5,-7.7 1.6,-2.9 2.5,-3.9 2.1,-6.8 -0.1,-1.1 1.6,-3.4 3.2,-4.9 2,-1.8 6.4,-7.7 4.2,-11.9 z m -26.8,5.6 c 0.6,0.1 0.6,0.1 0.4,0.1 -1.9,0 -4.7,-0.6 -6.8,-2 -2.1,-1.5 -2.7,-2.1 -2.5,-4.1 0.2,-1.2 0.3,-1.9 0.3,-2.5 0.1,-0.3 0.1,-0.6 0.1,-0.9 0.2,-1 0.1,-1.7 -0.2,-1.9 -0.2,-0.2 -0.3,-0.3 -0.7,-0.3 -0.3,0 -1,0.3 -1.8,0.9 -1.1,-0.9 -2.3,-1.8 -3.1,-2.6 -0.7,-0.6 -1.1,-1 -1.3,-1.1 -0.2,-0.2 -0.4,-0.3 -0.6,-0.7 0,-0.2 0.1,-0.4 0.3,-0.8 0.2,-0.2 0.3,-0.2 0.7,-0.2 h 0.1 0.1 c 0.2,0 0.6,0 0.8,-0.3 0.2,-0.3 0.3,-0.8 0.2,-1.5 0,0 0.1,-0.1 0.6,-0.1 0.1,0 0.3,0 0.3,0 0.2,0 0.3,0 0.3,0 0.3,0 0.4,0 0.6,-0.1 0.3,-0.1 0.3,-0.3 0.3,-0.6 0.1,-0.3 0.1,-0.3 0.4,-0.3 0.2,0 0.4,0 0.9,0.1 0.1,0 0.1,0 0.2,0 0.3,0 0.6,-0.3 0.7,-0.4 l 0.1,-0.1 c 0.1,-0.2 0.3,-0.3 0.6,-0.3 0.1,0 0.2,0 0.3,0 0.3,0.1 0.6,0.1 0.8,0.2 0.3,0.1 0.6,0.2 0.9,0.2 0.7,0 0.9,-0.4 1,-0.9 0.2,-0.8 0.3,-1 0.7,-1 0.3,0 0.7,0.2 1.1,0.4 0.4,0.3 0.9,0.3 1.1,0.3 0.4,0 0.9,-0.3 1,-0.9 0,0 0,-0.1 0.2,-0.1 0.3,0 0.9,0.2 1.6,0.6 l 0.3,0.2 c 1.1,0.6 3.2,1.8 5.7,4.7 0.6,0.7 0.8,1.1 0.7,1.2 0,0 -0.1,0 -0.2,0 -0.3,0.1 -1,0.2 -1.1,1.1 -0.1,0.4 -0.2,0.9 -0.3,0.9 0,0 -0.1,-0.1 -0.2,-0.3 -0.2,-0.3 -0.3,-0.6 -0.7,-0.6 -0.1,0 -0.1,0 -0.2,0 0,0 -0.1,-0.1 -0.1,-0.3 -0.1,-0.2 -0.2,-0.6 -0.7,-0.6 -0.2,0 -0.3,0.1 -0.4,0.2 0,0 0,0 -0.1,0 -0.1,-0.2 -0.2,-0.6 -0.7,-0.6 -0.1,0 -0.2,0 -0.3,0 h -0.1 c 0,0 0,-0.1 -0.1,-0.2 -0.1,-0.2 -0.2,-0.3 -0.4,-0.3 -0.2,0 -0.3,0.1 -0.4,0.1 -0.2,0.1 -0.3,0.1 -0.4,0.1 -0.1,0 -0.1,0 -0.1,-0.1 -0.2,-0.3 -0.3,-0.3 -0.4,-0.3 -0.2,0 -0.3,0.1 -0.6,0.2 -0.1,0.1 -0.3,0.2 -0.3,0.2 0,0 -0.1,0 -0.2,-0.1 -0.1,-0.1 -0.3,-0.3 -0.4,-0.3 -0.3,0 -0.3,0.2 -0.6,0.3 l -0.1,0.1 c -0.1,0.2 -0.2,0.2 -0.3,0.2 0,0 -0.1,0 -0.2,0 -0.1,-0.1 -0.3,-0.1 -0.3,-0.1 -0.3,0 -0.6,0.3 -0.7,0.3 -0.1,0.2 -0.1,0.2 -0.1,0.2 0,0 -0.1,0 -0.2,-0.1 -0.1,-0.1 -0.3,-0.1 -0.3,-0.1 -0.4,0 -0.7,0.3 -0.8,0.7 -0.1,0.3 -0.2,0.3 -0.3,0.3 h -0.1 c -0.2,0 -0.3,-0.1 -0.4,-0.1 -0.6,0 -0.7,0.6 -0.8,1.1 0,0.1 0,0.2 -0.1,0.3 -0.2,0.9 -0.6,4.7 -0.4,5.6 0.1,0.9 1.2,0.9 1.7,0.9 0.9,0 1.9,-0.2 3.4,-0.3 2.7,-0.3 7.8,-1.9 10.4,-4 0.7,-0.6 1.1,-0.6 1.3,-0.6 0.2,0 0.2,0 0.3,0.1 0,0.1 -0.3,0.9 -1,1.3 -0.1,0.1 -0.1,0.1 -0.2,0.2 -0.8,0.7 -2.7,2.5 -6.6,3.1 -3.7,0.7 -7,1.3 -8.3,1.3 -0.2,0 -0.2,0 -0.3,0 -0.1,0 -0.1,0 -0.2,0 -0.2,0 -0.3,0.1 -0.3,0.3 -0.1,0.2 0,0.4 0.3,0.7 0.3,0.3 0.9,0.4 1.3,0.4 0.2,0 0.3,0 0.4,0 0.1,0 0.6,0.3 0.9,0.7 0.8,0.8 2,1.8 3.6,1.8 2,0 4.8,-2.1 5.7,-2.8 0.3,-0.3 1.2,-0.8 1.8,-0.9 -0.1,0.1 -0.2,0.3 -0.3,0.4 l -0.1,0.2 c -2.3,2.2 -4.2,4.2 -6.1,4.2 z m 23.9,-2.4 c -1.2,0.9 -2,1.2 -2.1,2.8 -0.1,1.6 -0.3,4.2 -1,4.5 -0.8,0.3 -0.7,-1.5 -0.9,-0.9 -0.3,0.8 -1.2,0.4 -1.6,-0.3 -0.1,-0.3 -2.9,-0.3 -0.7,-3.5 2,-2.9 3.6,-4.5 5,-5.1 1.5,-0.7 4.1,0.6 1.3,2.5 z"
   id="path48" />
		<path
   class="st2"
   d="m 286.4,246.2 c -0.4,-1.3 0.3,-3.5 3.2,-1.9 2.8,1.6 4.9,2.9 2.9,8.9 -2,6.1 -3.5,9.7 -4.2,12.3 -0.7,2.6 -3.8,5.8 -2.8,1.5 1,-4.4 1.6,-9.6 1.1,-12.3 -0.8,-4.9 0.8,-4.7 0.3,-6.8 -0.2,-0.7 -0.3,-1.3 -0.5,-1.7"
   id="path50" />
		<path
   class="st2"
   d="m 297,251.4 c 0.8,2.5 1.7,7.9 0.3,10.2 -1.3,2.2 -5.5,8.3 -7,9.9 -1.6,1.6 -2.8,0.9 -1.8,-0.8 1,-1.7 2.3,-3.9 2.3,-4.7 0,-0.8 -0.1,-1.7 1.2,-4.2 1.3,-2.5 3.7,-11.1 3.9,-11.8 0.3,-0.7 0.9,0.8 1.1,1.4"
   id="path52" />
		<path
   class="st2"
   d="m 268.2,272 c -0.7,-2 -1,-4.9 -2.1,-6.6 0.9,-2.5 3.9,-8.9 8.8,-11.1 0.6,-0.2 0.9,-0.8 0.7,-1.2 -0.2,-0.4 0.7,-0.8 1.1,0.8 0.4,1.6 1.2,6 1.2,6 0.2,1 -0.2,1.8 -0.4,3.1 -0.2,1.3 -0.8,4.4 -0.4,5.9 0.3,1.6 0.9,2.7 3.9,2 1.6,-0.3 1.5,-0.8 1.9,-2.1 0.4,-1.3 1.7,-5.1 2.1,-7.3 0.4,-2.1 0.1,-7.3 -0.3,-8.6 -0.4,-1.3 0.2,-5.9 -0.2,-6.8 -0.3,-0.9 -0.6,-2.2 -3.4,-3.1 -2.8,-0.9 -3.6,-1.1 -5.4,0.8 -1.9,1.9 -2.5,2.7 -3.5,3.6 -0.9,0.9 -3.1,0.1 -1.2,-1.7 1.9,-1.8 3.7,-3.6 4.2,-4.1 l -0.6,-1.5 h -1 c -3,3 -7,4.8 -9.7,5.4 -1,0.2 -2.9,0.3 -1.6,2.1 0.3,0.4 0.4,1.7 1.2,1.2 0.8,-0.4 2,-2.5 3.1,-1.6 1.1,0.9 -0.2,3 -1.6,4 -1.3,1 -2.8,2 -3.8,2.5 -1,0.6 -1.6,1.1 -1.5,2.9 0.1,1.8 0.2,5 -0.8,7.5 -1,2.5 -0.4,3.1 0.4,4.7 0.9,1.7 2.3,3.1 2.8,5.8 0.4,2.7 0.7,3.4 2.5,3.1 1.8,-0.2 2.5,-1 3.1,-2.1 z"
   id="path54" />
		<path
   class="st1"
   d="m 203.5,78.5 c 1.6,0.2 3.2,0.1 3.6,-1 0.3,-1.1 0.1,-1.8 -0.4,-1.9 -0.4,-0.2 -0.8,-0.2 -0.4,-1.1 0.2,-1 1,-0.9 0.9,-2.5 -0.1,-1.6 -1.2,-1.7 -2.3,-1.2 -1.1,0.3 -1.5,0.9 -2.5,2.1 -1,1.3 -0.6,-0.9 -0.3,-1.2 0.3,-0.3 0.6,-2.9 -0.8,-3.4 -0.8,0.3 -1.6,0.8 -2.3,1.1 -0.2,0.4 -0.3,1.1 -0.7,1.7 -0.6,1.5 -1.2,0.3 -1.8,-0.3 v 0 c -1.5,0.8 -2.8,1.6 -3.8,2.2 -0.1,0.1 -0.2,0.2 -0.3,0.2 0.1,0.9 1.1,2 1.8,2.5 0.8,0.4 0.3,1.5 -0.6,1.5 -0.9,0 -2,-0.6 -3.1,0.8 -1.1,1.3 -0.3,2.6 0.7,2.6 1.1,0 1.9,0.3 2.3,1.7 0.3,1.2 0.7,1.8 2.1,1.9 1.5,0.1 2.3,-1 2.7,-1.7 0.3,-0.7 0.9,-1.7 1.6,-1.3 0.9,0.3 0.8,1.2 0.4,2.3 1.1,-0.6 2.1,-1.1 3.2,-1.8 -0.2,-1 -0.8,-1.8 -1.1,-2.2 -0.6,-0.9 -0.4,-1.1 1.1,-1"
   id="path56" />
		<path
   class="st1"
   d="m 215.9,62.3 c -0.4,0.1 -1.1,0.3 -1.7,0.3 0.3,1.2 0.8,2.9 0.4,3.2 -0.3,0.3 -1.7,0.4 -2.6,0.8 -1,0.3 -3.4,2.5 -2.1,4.1 1.2,1.7 1.7,2.6 1.8,3.4 0.2,0.9 2.2,1.8 3.6,0.2 1.3,-1.7 2.5,-3.5 2.8,-2.3 0.3,1 0.2,3.4 0,4.7 0.3,-0.1 0.6,-0.1 0.9,-0.2 0.7,-6.3 -0.9,-10.7 -3.1,-14.2"
   id="path58" />
		<path
   class="st1"
   d="m 185.3,92.4 c -0.8,-0.6 -1,-1.6 -0.1,-1.8 1,-0.3 2.2,-0.4 4.6,-1.6 2.3,-1 1.1,-2.7 0.1,-3.2 -1.1,-0.4 -1.1,-1.5 -1.1,-2.5 0.1,-1.1 -0.2,-2.6 -2.2,-1.8 -2,0.8 -1.3,2.8 -1.9,3.5 -0.6,0.7 -1,0.4 -0.9,-0.6 0.1,-1 -0.8,-1.7 -1.2,-1.9 -0.3,-0.2 -1.2,-0.3 -1.9,-0.3 -2.1,1.9 -4,3.9 -5.5,5.9 0.3,0.7 1.1,1.5 1.6,1.6 0.6,0.2 1.3,0.6 1.3,1.7 0,1 -2.1,1 -3.6,1.1 1,2.7 2,4.6 3.4,6.1 0.3,-0.1 0.8,-0.2 1.2,-0.4 1.8,-0.8 2.3,-3.4 2.5,-4.1 0.3,-0.8 1,-0.6 1.6,0.3 0.3,0.7 0.4,1.3 0.4,2 1,-1 1.9,-1.9 2.9,-2.8 -0.3,-0.6 -0.7,-0.9 -1.2,-1.2"
   id="path60" />
		<path
   class="st1"
   d="m 214.9,158.9 c 0.3,-0.1 -0.6,-3.9 0.2,-4.1 0.7,-0.2 1.1,2.1 2.6,1.9 1.6,-0.3 1.9,-1.8 1.8,-3.6 -0.2,-1.8 0.8,-0.8 1.6,-2 0.8,-1.2 -0.9,-2.9 -2.8,-1.8 -1.9,1.1 -1.6,-0.3 -0.6,-1 1,-0.7 0.3,-2.8 -1.8,-2.1 -1.6,0.4 -2.3,-0.4 -3,-0.9 -0.6,0.2 -1.1,0.4 -1.7,0.7 -0.1,0.3 0,1 0.1,1.6 0.2,0.7 0.4,2.5 -0.7,1.8 -1.1,-0.7 -2.5,-1.1 -2.8,0.2 -0.3,1.2 0.3,1.3 0.3,2.1 0,0.8 -2.1,1 -1.1,2.5 1,1.7 2.3,0.8 3.2,0.1 1,-0.6 1.8,0.1 1.6,1 -0.3,0.7 -0.8,2.8 -0.9,4.2 0.4,0.3 0.9,0.6 1.3,1 0.6,-0.5 1.6,-1.4 2.7,-1.6"
   id="path62" />
		<path
   class="st1"
   d="m 184.5,155 c 0.9,-0.2 2.5,1.6 3.9,0.4 1.5,-1 -0.6,-2 -0.3,-2.8 0.2,-0.8 1,-2.5 -0.1,-3.2 -1,-0.8 -2,-0.1 -3.1,1.1 -1.1,1.1 -0.7,-1.1 -0.1,-2 0.8,-1.2 0,-2 -1.2,-2.3 -1.2,-0.2 -1.7,1.6 -2.5,0.8 -1.3,-1.2 -3.4,-0.8 -2.9,1 0.4,1.8 1.1,2.3 0,2.5 -1.1,0.2 -2,-2.5 -3.2,-0.3 -1.2,2.2 0.8,2.9 0.6,4.6 -0.2,1.7 0.4,3.5 1.6,3.6 1,0.2 2,-1 2.6,-1.7 0.6,-0.7 1.9,-1.1 1.8,0.1 -0.1,0.9 -0.2,2.7 -0.2,3.8 2,-1 4.2,-2 5.4,-2.5 0.1,0 0.1,0 0.2,-0.1 -0.6,-0.2 -1.3,-0.6 -2.1,-1.1 -1.3,-0.7 -1.3,-1.6 -0.4,-1.9"
   id="path64" />
		<path
   class="st1"
   d="m 159.9,205.7 c 2.5,-0.8 2.7,1.2 2.3,2.9 -0.4,1.7 -0.3,5.3 -0.2,7 l 4.2,0.2 c -0.2,-1.1 0,-4.4 0.1,-6.3 0.1,-1.9 2,-4.8 2.7,-1.9 0.7,2.9 3.6,3 5.6,1.8 2,-1.2 3.5,-3.9 5.6,-7.7 2.1,-3.8 -0.7,-4.8 -2.3,-4.6 -1.6,0.2 -3.4,0.4 0.4,-2.7 3.5,-2.9 -2.5,-4.4 -5.1,-4.9 -4.5,4.7 -9.9,10.1 -14.9,14.2 -0.6,0.6 -1.2,1.1 -1.8,1.6 0.5,0.5 1.6,1 3.4,0.4"
   id="path66" />
		<path
   class="st1"
   d="m 155.5,233.8 c 2.1,-0.7 3.5,3.9 6.6,1.2 3.1,-2.7 0.9,-4.9 0.8,-7.2 -0.1,-2.3 2.5,-3.1 1.7,-5.9 -1.1,-4.2 -5.1,-0.2 -7.5,2.1 -2.5,2.3 -2.5,0.4 -0.1,-3.4 2.5,-3.8 -1.6,-5 -4,-4 -2.2,0.9 -4.1,0 -5.4,-1.1 -1,1.6 -1.7,2.9 -2.3,4.4 -2.1,4.4 -0.7,4.5 0.9,4.5 1.6,0 4.9,6.6 5.4,7.8 0.2,0.3 1.2,2.1 2.8,4.2 -0.5,-1 -0.3,-2.1 1.1,-2.6"
   id="path68" />
		<path
   class="st1"
   d="m 216.4,190 c -2,-0.4 -4.7,-0.8 -4.9,3.4 -0.1,1.6 1.5,2.8 2.9,3.4 1.5,0.6 1.2,1.6 -0.3,1 -1.6,-0.6 -2.8,-0.9 -3.9,2.3 -1.1,3.2 0.9,3.7 1.9,3.9 1,0.2 1.8,0.4 1.6,1.8 -0.2,1.3 -0.9,5.3 1.7,5.6 2.5,0.3 4.8,-2.8 5.6,-4.4 0.8,-1.6 1.7,-3.1 1.9,-1.3 0.2,1.8 -0.1,2.7 -1,4.7 -0.9,2 -0.9,2.9 0.4,2.8 1.3,-0.1 3.6,0 4.2,-1.6 0.6,-1.6 1.7,-4.6 1.8,-6.7 0.1,-1.3 1.2,-1.5 2.1,-1.3 0.3,-2.2 0.6,-4.5 0.9,-6.4 -4.4,0.7 -8.2,-4.7 -9.4,-9.3 -1.6,1.3 -3.8,2.5 -5.5,2.1"
   id="path70" />
		<path
   class="st1"
   d="m 195.6,189.2 c -0.8,1.3 -3,5.1 -2,6.4 1,1.3 2.1,-1.2 3,-0.3 0.9,0.9 2.9,1.9 2.9,1.2 0,-0.7 0.2,-2 0.6,-3.8 0.3,-1.8 1.1,-2.8 1.9,-1.3 0.8,1.5 1.9,2.7 4.7,2 2.8,-0.7 2.5,-3.6 1.9,-5.7 -0.6,-2.1 1.5,-3.1 2.5,-3.7 1,-0.6 3.6,-2.6 1.7,-4.4 -1.9,-1.8 -3.6,0.8 -5.3,1.1 -1.7,0.3 -1,-1.1 2.5,-3.8 3,-2.3 0.4,-4.7 -1.3,-5.4 -4.8,4.8 -13.3,12.6 -15.2,14.4 -0.7,0.7 -1.2,1.3 -1.8,2.3 4.2,-2 4.6,-0.4 3.9,1"
   id="path72" />
		<path
   class="st1"
   d="m 223.1,234 c 1.5,1.3 4.9,3.2 7.4,1 2.5,-2.2 -0.6,-4.7 -0.9,-6.5 -0.3,-1.8 1.8,-2.9 0.7,-5.8 -1.9,-5 -4.8,1 -6.5,2.7 -1.7,1.7 -1.3,-1.1 0.1,-2.7 0.8,-0.8 4.2,-2.9 2.2,-5.3 -2,-2.3 -4.9,-1 -6.4,0 -1.5,1 -2.5,2.2 -4.8,1.6 -2.2,-0.7 -4.1,-0.9 -5.4,2.3 -1.3,3.2 1.2,2.3 3.2,4.7 2.1,2.3 0.8,2.5 -0.9,1.9 -1.7,-0.6 -2.5,-2.7 -4.9,-2.3 -2.5,0.3 -2.5,4.2 -1.7,5.3 0.8,1 2.3,1.6 1.2,3.5 -1.1,1.9 0.6,4.1 2.5,5 2,0.9 5,-2.7 6.1,-4.1 1.1,-1.5 2.2,-1.1 2,0 -0.2,1 -0.7,3.5 -0.8,5.6 1.8,-0.6 3.4,-1.1 5,-1.5 0,-1.1 -0.3,-3.1 -0.8,-4.8 -0.2,-2.6 1.2,-1.9 2.7,-0.6"
   id="path74" />
		<path
   class="st1"
   d="m 194.2,245.8 c -2.7,0.8 -3.1,-0.4 -4.9,-1.1 -1.8,-0.7 -1.9,0.9 -0.7,2.8 1.2,1.9 2.6,3.7 1.1,3.7 -1.5,0 -2.6,0.2 -2.8,1.3 -0.2,1.1 -2.6,-0.2 -3.1,-2.5 -0.6,-2.3 -1.1,-6.8 -2.3,-4.6 -1.2,2.2 -2.3,5.9 -5.4,4.2 -3.1,-1.7 -1,-3.9 -2.6,-5.4 -1.6,-1.6 -3,-3.6 -1.5,-6.4 1.5,-2.8 2.9,-0.4 4.4,-0.4 1.5,0 1.7,-1.3 0.3,-2.3 -1.3,-1 -3,-5.8 3.1,-5.4 2.3,0.1 4.9,-0.7 6.8,-2.1 2,-1.5 7.3,-0.7 5.1,3 -2.1,3.7 -1.5,4.5 -0.2,3.1 1.2,-1.3 2.8,-3.8 5.1,-3.1 2.3,0.7 1.3,2.5 -0.1,4.5 -1.5,2 -0.6,3.4 0.6,4.1 1.2,0.7 3.3,4.9 -2.9,6.6"
   id="path76" />
		<path
   class="st1"
   d="m 205.5,219.6 c -2,0.1 -4.5,-0.4 -4.5,-0.4 -0.2,2.1 -2.3,5.1 -4.4,8.3 -0.2,0.3 -1.5,0.3 -2,-0.1 -0.6,-0.4 -2.1,-1.2 -0.9,-2.5 1.2,-1.3 3.2,-4.1 2.9,-5.4 -0.3,-1.2 -1.2,-2.3 -2.6,-0.7 -1.3,1.7 -3.5,5.1 -5.8,5.3 -2.3,0.2 -4.7,-2 -3.6,-4.1 1.1,-2.1 1.5,-3.2 -0.1,-5.1 -1.6,-1.9 -1,-4.4 2.3,-5.8 1,-0.4 2.8,0 3.9,1 1.2,1 1.9,0 0.2,-1 -1.7,-1 -3,-2.2 -3.2,-4.5 -0.2,-2.1 1.1,-4.4 3.9,-3.1 2.9,1.2 4.7,0.2 5.9,-0.8 1.2,-1 6.5,-2.2 5.7,2.3 -0.6,3.4 -2.1,3.5 -2.5,5.3 -0.4,1.8 0.9,0.7 1.7,-0.7 0.8,-1.3 2.5,-6.8 6.1,-2.7 0.9,1 0.6,2.7 -0.6,4.6 -1.1,1.9 -0.2,3 0.4,3.9 1.3,0.9 2.8,5.9 -2.8,6.2"
   id="path78" />
		<path
   class="st0"
   d="m 198.2,70.9 c 0.2,-0.6 0.3,-1.1 0.6,-1.7 -0.8,0.3 -1.7,0.9 -2.3,1.2 0.4,1 1.1,2 1.7,0.5"
   id="path80" />
	</g>
</g>
<g
   id="Layer_6"
   transform="translate(-56.1,-50)">
	<g
   id="g96">
		<path
   class="st3"
   d="m 107.7,80.4 c 0.8,1.1 1.6,0.9 1.9,0.1 0.7,-1.7 2,-7 2,-11.1 0,-9.4 1.2,-13.1 3.6,-17.4 -10.8,0.6 -20.6,6.1 -26.5,14.5 9.1,2.4 16,9.8 19,13.9 z"
   id="path84" />
		<path
   class="st3"
   d="m 106.8,85.7 c 1.1,-1.5 -0.2,-2.3 -0.8,-3.1 -2.9,-4.1 -9.6,-11.5 -18.7,-13.9 -3.2,5.4 -5.1,11.4 -5.1,18.1 0,3 0.3,5.8 1,8.4 17.1,1.5 22.6,-8.1 23.6,-9.5 z"
   id="path86" />
		<path
   class="st3"
   d="m 118.9,51.7 c -2.5,3.9 -3.9,6.9 -4.9,17.2 -1,10.2 -1.9,17.3 -9.3,23.5 -5.7,4.6 -16.9,5.9 -20.5,5.7 1.7,4.9 4.4,9.3 7.9,13 10.6,-3.6 18.3,-8.2 28.5,-17.7 10.2,-9.5 15.3,-19.2 16.9,-22.8 1,-2.3 2.9,-5.4 1.6,-0.2 -1.3,5.1 -6.1,16.1 -16.1,25.5 -9.8,9.4 -18.8,14.2 -29.2,16.9 6.1,5.6 14.4,9.1 23.5,9.1 0.3,0 0.4,0 0.8,0 2,-12.6 5.1,-16.8 11.3,-22.1 6,-5.4 14.6,-8.2 21.9,-5.1 0.6,-2.3 0.8,-5 0.9,-7.9 0,-19 -14.7,-34.2 -33.3,-35.1 z"
   id="path88" />
		<path
   class="st3"
   d="m 133.2,100.5 c -0.9,0.6 -1.6,1 -0.4,2 2,2 5,5.8 7.2,11 4.8,-4 8.4,-9.4 10.4,-15.4 -1.8,-2.4 -7.7,-3.5 -17.2,2.4 z"
   id="path90" />
		<path
   class="st3"
   d="m 128.4,104.4 c -5.3,4.7 -7.3,11.7 -8.4,17.2 6.3,-0.4 12.2,-2.7 17.1,-6 -2,-4.9 -3.7,-8.5 -5.6,-11 -1.1,-1.3 -1.2,-1.8 -3.1,-0.2 z"
   id="path92" />
		<path
   class="st3"
   d="m 279.1,312.2 c 2,-6.5 5.3,-6.4 4.2,-8.9 -1.1,-2.5 -2.8,-4.4 -4.1,-5.8 -1.3,-1.5 -0.3,-4.9 -0.3,-6.4 -0.1,-2.7 -2.2,-3.1 -2.5,-6.1 -0.3,-3 -0.4,-5.4 1.8,-8.5 2.2,-3 -0.8,-2.9 -1.8,-4.8 -1,-1.9 -1.6,-4.5 -0.7,-8.3 0.4,-2 0.2,-2.5 -0.3,-2.8 -0.6,-0.2 -2.9,-0.7 -2.9,-0.7 l -3.5,6.8 c 0.6,1.3 0.8,3.4 0.8,4.7 l -0.9,5.7 c -0.8,1.3 -2.1,3.5 -2.1,5.4 0,1.9 -1.9,3.9 -1.7,4.8 0.2,0.9 2.7,3.2 4.1,5.7 1.5,2.5 3.2,6.1 3.2,12.3 0,6.2 -2,14.5 -2.2,15.5 -0.2,1.1 -0.8,2 0.9,3.6 1.7,1.6 4.4,4.5 5.4,11.1 1,6.6 1.7,10.1 2.1,10.4 0.4,0.3 0.3,0.9 0.3,2.1 0,1.2 1.1,8.3 1.9,9.6 0.8,1.3 0.7,-7.5 0.6,-10.2 -0.1,-2.5 0.1,-14.8 0.6,-16.7 0.4,-1.8 0.9,-3.8 -0.7,-6 -1.5,-2.2 -4.2,-6.1 -2.2,-12.5 z"
   id="path94" />
	</g>
</g>
<g
   id="Layer_4"
   transform="translate(-56.1,-50)">
	<g
   id="g165">
		<path
   class="st4"
   d="m 157.5,127.4 c -2.9,0.6 -2.8,1.1 0.3,0.8 1,0 15,-2.1 16.8,-2.5 1.8,-0.3 2.2,0.9 2.7,0.6 0.6,-0.2 -0.2,-0.2 -0.6,-2.5 l -2.6,0.3 c -3.1,0.8 -13.7,2.7 -16.6,3.3 z"
   id="path99" />
		<path
   class="st4"
   d="m 274.1,127.1 c -12,-12 -26.4,-20.7 -42,-25.6 -0.1,1.6 -0.2,3 -0.2,3.6 3.1,1.6 6.6,4.9 5.3,11.2 -0.6,2.6 -2.7,5 -2.9,6 -0.3,1.7 -3.9,4.6 -4.9,6.8 -1,2.2 -1.2,4 -1,5 1.8,1.7 5.8,3.9 8,4.7 1.7,0.6 1.7,1 1,2 -0.2,0.2 -0.6,0.4 -0.6,0.7 -2.7,3.7 -7,13 -8.9,18.8 -2,5.8 -6.6,19.7 -3.2,28.7 3.2,9.1 9.6,3.4 11.1,-0.1 1.5,-3.5 3.7,-9.4 4.4,-11 0.7,-1.6 1,-2.5 2.2,1.2 1.2,3.7 3,12.5 3,13.3 0,0.8 -1.2,3 -2.5,6.5 -1.3,3.5 -2.1,5.9 -0.8,8 1.3,2.1 6.6,11.1 8.3,15 1,2.3 1.9,2.8 4.6,2.1 2.7,-0.7 9.2,-2.9 11.1,-3.8 1.9,-0.9 1,-2.5 0.4,-4.4 -0.9,-2.9 -4.2,-19 -4.2,-21.1 0,-2.1 0.6,-4.9 -2.2,-1.8 -1,1.1 -2.3,0 -2,-1.6 0.3,-1.6 3.7,-23.4 3.9,-25.9 -1.9,-4.1 -7.5,-17.1 -8.9,-19.6 -1.6,-2.3 -2.1,-2.5 -4.5,-1.2 -2.4,1.3 -7.5,3.1 -9.5,-1.3 -0.2,-0.4 -0.4,-1.2 -0.3,-1.8 0.6,0.3 1,0.9 1.7,1.7 1.2,1.5 4.5,0.6 6.5,-0.4 2,-1 4.6,-1.3 6.6,1.1 2,2.5 5,7 6.5,11.2 1.5,4.2 3,7.6 3.5,8.3 0.4,0.7 -1.6,13 -2.1,17.8 -0.6,4.9 -1,7 -1.1,7.8 -0.1,0.8 3.1,-2.8 3.2,1.5 0.1,3.4 1.7,14.2 3.5,22.2 0.4,2 1,3.9 1.5,5.4 1.3,0.2 2.5,2.9 3.2,7 0.8,4.1 2.5,6.7 2.5,8.7 0.1,2 0.7,2.3 1.3,2.7 0.7,0.3 0.4,1.3 -1.6,3.7 0.4,0.3 1.1,1 1.6,1.5 0.6,-0.6 2.1,-2.3 2.1,-2.3 0,0 6.1,2.5 7.5,2.9 1.3,0.4 2.9,-2.8 6.8,-1.1 1.1,0.4 2.3,2 3.2,3.5 6.1,-13.3 9.7,-28.3 9.7,-43.9 -0.3,-27.8 -11.2,-54.1 -30.8,-73.7 z"
   id="path101" />
		<path
   class="st4"
   d="m 264,280.3 c -1.6,-0.8 -2.6,0.3 -3.4,-5.8 -0.2,-1.8 -1.7,-4.1 -2.8,-5.3 -1.1,-1.1 -1.2,-3.2 -0.7,-5 0.9,-2.8 1.1,-5.4 1,-7.5 -0.1,-2.2 0.3,-5 3.5,-6.4 -1.1,-1.2 -1.7,-2.8 -2,-3.9 -4.6,-1.6 -5.5,-1.7 -6.4,-3.9 -1.6,-3.7 -2.5,-9.1 -3,-12.1 -0.2,-1.5 -0.3,-2.8 -0.3,-4 -1.5,-2.8 -4.7,-8.9 -7.3,-13.5 -1,-1.8 -1.8,-3.2 -2.3,-4.2 -2.2,-3.9 0,-8.9 1.1,-12 1.1,-3 2,-5.7 1,-8.7 -1,-3 -1,-3.7 -1.2,-4.9 -0.2,-1.2 -1.2,-2.8 -2.5,1.5 -1.3,4.2 -3.9,10.4 -5.4,16.9 -0.9,3.7 -1.3,7.6 -1.1,11.5 0.2,2.9 0.8,5.8 2,8.4 2.9,6 6.4,11.6 5.9,14.9 -0.4,3.4 -1.1,3.5 -1.2,4 -0.6,6.5 -3.4,18.9 -4.8,22.5 -1.5,3.6 -7.2,16.4 -8.3,21.9 -1,4.1 -3.5,13.2 -5.7,18.4 16.7,-3.2 32,-10.3 44.8,-20.5 0.2,-0.9 0.1,-1.8 -0.9,-2.3 z"
   id="path103" />
		<path
   class="st4"
   d="m 140.3,134.1 c 1.2,1.7 2.8,3.1 4.9,4.1 5.4,2.8 6.6,4.7 6.6,9.6 0,4.8 0.9,14.6 2.5,16.2 1,-1 2.1,-2.5 2.3,-2.9 1.6,2.9 4.7,8.3 9.7,11.6 0.1,0 0.1,0.1 0.1,0.2 0,0.1 -0.1,0.1 -0.1,0.2 -0.4,0.9 -1.3,0.6 -1.9,0.4 -1.2,-0.3 -5.4,-4.8 -6.8,-7.3 -1.4,-2.5 -1.7,-2.2 -2.2,-0.4 -0.6,1.8 -2.7,5.7 -4.1,7.5 -1.5,1.9 -5.3,6.8 -6.3,7.9 -1,1.1 0,1.6 0.9,2.5 0.9,0.9 5.4,6.5 6.5,7.6 1,1.2 2.1,3.5 4.8,1 2.7,-2.5 5.9,-6.8 7.4,-11.5 1.3,-4.1 1.6,-6.5 2.5,-6.7 0.1,0.1 0.2,0.1 0.3,0.2 1.7,0.4 12.5,2.1 12.7,4.4 2.2,-2.2 5.8,-7.8 6.5,-9.7 0.7,-1.9 4.6,-7.9 7.5,-11.2 0,-1.3 0,-2.1 0.1,-2.5 -0.8,0.7 -2,2.3 -3.8,3.1 -1.8,0.8 -8,3.5 -12.5,5.7 -1.6,0.8 -4.4,1.7 -5.4,-6.5 -1.1,-8.2 0,-12.4 0.8,-14.2 0.8,-1.9 2.2,-3.6 5,-2.8 2.8,0.8 7.3,2.5 8.5,2.5 0.2,-0.9 1,-2.5 -2,-2.9 -2.1,-0.2 -7.7,-1.8 -11,-6.1 -1.2,-1.8 -2.1,-3.9 -2.2,-6.7 -6.4,1 -21,2.9 -24.1,3.7 -3.2,0.8 -6,1.5 -7,-5.9 -0.4,-3.1 -1.2,-7.5 1,-5.9 1.8,-1.3 4.2,-2.9 8.6,-2.2 0.8,0.1 1.8,0.8 2.1,1.5 0.2,1.1 -0.2,2.8 -0.8,4.6 -1,3 -2.8,5.1 3.2,3.8 6.4,-1.5 14.4,-2.7 16.5,-3.1 0.3,-2.1 2,-5.5 4.1,-7.9 2.1,-2.5 2.5,-4.5 2.6,-5.3 0.1,-0.8 -0.6,-1 -1.7,0 -1.2,1.1 -4.9,3.4 -8.3,2.5 -1.3,-0.3 -3,-2.9 -3.9,-4.4 0.8,-1.6 2.6,-4.1 4.8,-6.8 -11.8,3.8 -22.9,9.7 -32.9,17.5 -0.1,1.2 0.1,4 0.9,7.3 0.5,1.9 1.5,4.8 3.6,7.3 z"
   id="path105" />
		<path
   class="st4"
   d="m 148,286.3 c 4.6,-1.8 8.2,-1.8 11.7,3 1,1.3 1.8,5.3 10.4,1.8 -4.6,-5.4 -7.4,-11.8 -9.7,-20.6 -3.9,-13.7 -12.9,-29.3 -9.6,-36.4 -1.9,-1.8 -4.1,-8.7 -6.5,-7.9 -1.6,0.4 -3.8,0.6 -2,-4.7 0.8,-2.3 2.1,-5.3 4.7,-8.6 3.1,-4.1 7.8,-9.2 15.6,-15.2 0.7,-0.6 0.8,-1 0.3,-1.5 -0.8,-0.8 -1.6,-1.7 -2.3,-2.1 -0.8,-0.4 -1.6,-0.2 -2.2,0.4 -0.7,0.7 -1.8,1.5 -2.5,1.9 -0.7,0.4 -6,-4.8 -8.8,-8.6 -2.8,-3.8 -5.7,-5 -6.6,-5.4 1.1,-1.2 3.7,-3.9 2.7,-3.6 -1.7,0.6 -4.7,1 -7.5,-2.2 -3.7,-3.9 -2.2,-5.9 -3,-6.5 -0.8,-0.6 -4.8,0.3 -7.8,-4.4 -3,-4.7 -4.2,-6.7 -1.8,-10.1 1.2,-1.7 1.7,-2.5 1.3,-4.6 -0.3,-2.1 0,-3.5 2.8,-6.1 2.8,-2.7 4.5,-5.1 5.7,-4.9 1,0.2 -1.8,-3.4 -3.6,-6 -0.4,-0.7 -0.8,-1.3 -1.1,-1.8 -0.4,-1.1 -1.1,-2.9 -1.2,-4.9 -19.6,19.7 -30.4,45.7 -30.4,73.4 0,27.7 10.8,54 30.5,73.6 4.7,4.7 9.6,8.7 14.8,12.4 2.2,-2.5 4.8,-1.5 6.1,-0.4 z"
   id="path107" />
		<path
   class="st4"
   d="m 259.8,243.3 c 3.6,-0.1 9.6,-1.7 14,-5.7 -1.2,-1.5 -3.4,-8.4 -3.9,-11.3 -0.8,-3.1 -0.8,-6.4 -4,-4.6 -2,1.1 -9.1,4.2 -12,4.7 -3,0.4 -2.2,1.2 -1.7,3.5 0.5,2.3 2.2,8.9 3.1,11.2 0.9,2.3 2.1,2.3 4.5,2.2 z"
   id="path109" />
		<path
   class="st4"
   d="m 211.1,162.5 c -1.5,-1 -6.8,-4.4 -7.6,-4.9 -0.9,-0.7 -1.2,-0.7 -1.6,-0.1 -0.2,0.4 -1,1.8 -2.8,1.8 -1.8,0 -3.2,-0.6 -4.4,1 -1.1,1.6 -7.3,8.9 -8.6,13.6 1.3,2.8 3.1,7.8 4.5,11.3 4.4,-3.7 18.2,-17.2 20.8,-19.8 1.1,-1 1.2,-1.9 -0.3,-2.9 z"
   id="path111" />
		<path
   class="st4"
   d="m 177.6,178.9 c -1,0.2 -5.1,-1.5 -9.1,-2.2 -1.2,-0.1 -1.5,-0.1 -1.7,0.3 -0.9,3.5 -2.5,9.5 -5.4,14.1 1.1,1.8 2,3.4 3.4,3.9 3.1,-2.2 8.9,-7.7 10.7,-9.7 1.7,-2 3.8,-5 3.8,-5.7 0.1,-0.7 -0.7,-0.9 -1.7,-0.7 z"
   id="path113" />
		<path
   class="st4"
   d="m 235.9,70.8 c -1.3,-1.5 -2.1,-1.1 -3.4,0.3 -3,3.6 -8.9,6.7 -19.1,9.3 -10.2,2.6 -19.8,9.7 -24,13.2 -4.1,3.5 -14.5,12 -19.6,14 -1.3,0.6 -4.1,2.5 -0.6,2.9 2.7,0.3 4.6,-1.2 10.4,-5.4 5.8,-4.2 10.3,-7.3 14.8,-11.6 4.1,-4 11.6,-7.8 19.7,-10.1 8.1,-2.3 18.6,-5.7 21.6,-8.9 1.5,-1.6 1.6,-2.4 0.2,-3.7 z"
   id="path115" />
		<path
   class="st4"
   d="m 184.5,109.2 c 0.6,-0.3 -0.1,-2.7 -2,-2.3 -0.6,0.2 0.1,-1.3 -1,-0.7 -0.9,0.4 -1.2,1 -2.2,4.2 -1,3.2 -0.9,5.1 -0.1,5.9 0.6,0.6 1.5,0.6 1.9,0.6 0.3,0 0.7,0.1 0.6,-0.9 -0.2,-0.9 -0.2,-5 2.8,-6.8 z"
   id="path117" />
		<path
   class="st4"
   d="m 149.5,120.8 c 0,-1.8 -0.9,-1.8 -2.5,-1.8 -1.9,0 -3.9,0.7 -5.4,1.3 0.2,0.7 0.1,3.5 0.4,5.3 1.1,5.7 3.1,4.9 4.5,4.7 1.3,-0.2 3.8,-1.2 2.8,-1.2 -1,0 -1,-0.7 -0.9,-2.3 0.2,-1.8 1,-4.3 1.1,-6 z"
   id="path119" />
		<path
   class="st4"
   d="m 183.3,309 c 1.9,-2.2 1.8,-7.7 0.8,-12 -0.9,-4.2 -7.5,-5.9 -13.4,-3.5 -5.9,2.5 -9.4,1.5 -10.8,0.6 0,0 -0.8,-0.6 -1.3,-0.9 -0.6,-0.3 -0.6,1 -1.2,2.3 -0.6,1.3 -0.8,5 0.2,7.2 2.6,0 6.1,1.1 8.3,2.1 2.1,0.9 9.6,4.4 12.9,5.4 1.5,0.6 2.9,0.8 4.5,-1.2 z"
   id="path121" />
		<path
   class="st4"
   d="m 196.5,334.1 c -0.2,-0.8 -0.6,-5.5 -0.6,-6.8 0,-1.3 0.3,-4.7 0.4,-5.8 0.1,-1.1 0.4,-2.1 -1.5,-2 -1.8,0.2 -6.1,-0.3 -6.8,-2.5 -0.9,-2.7 -3.5,-3.2 -4.9,-3.2 -2.6,0 0,2.8 0.8,4.9 0.9,2.2 4.1,14.8 2.7,14.9 -1.5,0.1 0,1.3 1.2,2.2 2.3,1.7 6,0.6 7,0.1 1.1,-0.4 1.9,-0.9 1.7,-1.8 z"
   id="path123" />
		<path
   class="st4"
   d="m 146.1,291.3 c 0.7,-0.8 0.6,-1.5 0.1,-2.2 -0.4,-0.8 -0.8,-1.3 -1.3,-1.6 -1.3,-0.4 -2.5,0.2 -3.6,2.8 -1.1,2.3 -1.3,10.1 -1,12.5 0.9,-0.2 2.6,0.1 3.4,0.3 -0.3,-4.3 1.1,-10.4 2.4,-11.8 z"
   id="path125" />
		<path
   class="st4"
   d="m 166.9,367 c -3.5,0.3 -6,-0.2 -9.9,-1.9 -3.8,-1.7 -9.1,-6.5 -11.8,-9.6 -0.9,-1 -1.7,0.2 -0.9,1.3 3.4,4.8 8.6,8.2 12,9.9 3.4,1.8 8.5,1.8 10.7,1.5 2.1,-0.3 2.7,-1.5 -0.1,-1.2 z"
   id="path127" />
		<path
   class="st4"
   d="m 203.1,347.7 c -2.2,1.1 -6.5,3.1 -10.4,4.1 0.4,2 0.6,2.9 0.6,3.5 2.5,0 7.2,-1.8 11.1,-4.1 0.9,-0.6 1.2,-1.2 0.9,-2 -0.5,-0.7 -0.9,-2.1 -2.2,-1.5 z"
   id="path129" />
		<path
   class="st4"
   d="m 179.9,337.3 c -0.7,0 -3.8,0.7 -3.2,1.2 0.3,0.3 1.7,1.8 2.5,2.7 0.9,0 2.9,-0.6 3.2,-0.8 0.4,-0.2 0.6,-0.4 0.2,-0.8 -0.4,-0.5 -1.9,-1.9 -2.7,-2.3 z"
   id="path131" />
		<path
   class="st4"
   d="m 203.9,272.1 c -1,0.1 -8.3,0.1 -13.4,-0.6 -9.1,-1.1 -18.1,-6.3 -21,-9.7 -0.4,-0.6 -3.1,-0.3 -0.9,1.5 2.2,1.8 7.9,7 16.2,8.6 1.9,0.3 4.9,0.9 5.4,7.8 0.4,6.8 -0.2,11.3 -0.2,12 0,0.7 -0.4,0.9 -1,0.1 -0.6,-0.8 -2.5,-3.4 -3.5,-3.9 -1,-0.5 -1.7,-0.4 -2.5,0.2 -0.9,0.7 -2.2,2 -2.8,2.7 l 2.5,1.5 c -0.9,-0.7 -0.8,-1 -0.3,-1.7 0.4,-0.7 0.9,-1.1 1.3,-1.3 0.4,-0.2 1.1,-0.3 1.9,0.8 0.8,1.1 5,8.2 5.9,10.1 0.9,1.9 2,0.7 1.6,-0.4 -0.4,-1.1 -1.3,-3 -1.7,-3.6 1.2,-3.8 2.5,-9.6 2.5,-13.3 0,-3.7 -0.9,-7.5 -1.6,-8.9 3,0.1 9.6,0 12.2,-0.8 2.5,-1 0.4,-1.2 -0.6,-1.1 z"
   id="path133" />
		<path
   class="st4"
   d="m 150.1,321 c -0.3,0.8 -1.5,3.9 -1.8,6.1 -0.3,2.3 -0.9,5.8 0,10.8 0.9,5 1.3,6.6 1.6,7.5 l 2.7,-0.9 c -1.5,-0.9 -3.1,-5 -3.5,-13.3 -0.1,-2.8 1,-7.5 1.9,-9.7 0.9,-2.2 -0.6,-1.3 -0.9,-0.5 z"
   id="path135" />
		<polygon
   class="st4"
   points="297.5,131 300.9,128.6 308.3,139.5 312.6,136.4 304.9,125.7 308.3,123.3 316.3,134.6 320.7,131.6 308.7,114.7 289,128.8 299.9,144.2 304.1,141.1 "
   id="polygon137" />
		<polygon
   class="st4"
   points="313.7,156.3 328.8,150 326.1,144 304.8,153.3 311.7,169 318.2,166 "
   id="polygon139" />
		<polygon
   class="st4"
   points="330.6,183.5 331.2,189.7 337.6,189.2 335.8,168.4 329.3,168.9 329.9,177.5 315.6,179.2 316.3,185.1 "
   id="polygon141" />
		<polygon
   class="st4"
   points="337.4,206.5 337.3,199.5 316.3,199.6 316.3,206.6 "
   id="polygon143" />
		<path
   class="st4"
   d="m 326.3,216.7 c -3.6,-0.7 -7.7,-0.1 -10.6,2.1 -2.6,2 -3.9,3.9 -4.6,7.6 -0.4,2.3 -0.1,5.4 0.7,8 l 5.6,-1.8 c -0.6,-1.2 -0.8,-3.2 -0.2,-5.3 1.1,-3.8 4.2,-5.5 8,-4.9 3.9,0.6 6.3,4.2 5.6,8.6 -0.3,1.8 -1.1,3.2 -3.1,4.5 l 3.5,4.1 c 2.8,-1.8 4.9,-5.1 5.4,-7.5 0.8,-3.9 -0.2,-6.8 -2,-10.1 -2.1,-3.1 -5.2,-4.8 -8.3,-5.3 z"
   id="path145" />
		<path
   class="st4"
   d="m 322.3,246.1 c -2.9,-0.8 -6.9,2.5 -8.9,4.4 -1.1,1.1 -5,5 -6.8,4.4 -1.7,-0.6 -1.1,-3 -0.6,-4.7 0.8,-2.3 2,-4.4 3.9,-5.6 l -3.5,-1.6 c -1.7,1.5 -3.6,3.7 -4.4,6 -0.9,2.6 -1.2,5.8 -0.9,7.7 0.4,2.5 1.3,4.1 4.2,3.9 2.2,-0.2 7.8,-3.9 11.1,-6.8 1.7,-1.6 3,-1.8 3.8,-1.2 1.1,0.7 1.1,2.6 0.7,3.9 -0.6,1.7 -1.3,4.2 -2.7,5.3 l 4.7,3.2 c 1.9,-1.9 3,-4.9 3.5,-7.6 1.4,-6.8 -2.2,-10.9 -4.1,-11.3 z"
   id="path147" />
		<path
   class="st4"
   d="m 275.8,118.3 c 1.9,1.3 4.8,2.2 7.5,2.7 l 0.6,-5.8 c -1.3,0 -3.2,-0.7 -4.8,-1.9 -3,-2.6 -3.2,-6.7 -1.2,-9.4 2.5,-3.2 6.6,-3.9 10.3,-1.6 1.5,1 2,2.5 2.3,4.8 l 5.4,-0.9 c -0.3,-3.2 -2.2,-7 -4,-8.6 -2.8,-2.5 -6.1,-3.1 -9.7,-2.6 -3.6,0.4 -6.9,2.8 -8.9,5.5 -2,2.9 -3.2,6.9 -2.5,10.5 0.7,3.3 1.9,5.2 5,7.3 z"
   id="path149" />
		<path
   class="st4"
   d="m 80.3,227.6 c 0.2,-1.6 0.1,-4.6 1.8,-4.8 1.7,-0.3 2.8,1.2 3.1,2.9 0.4,2.5 1.1,4.2 0.2,6.4 l 4.5,-0.4 c 0.8,-2.1 0.4,-4.8 0,-7.3 -0.6,-2.7 -1.5,-4.7 -3.5,-6.5 -1.9,-1.8 -3.4,-2.2 -6.3,-1.6 -1.8,0.3 -4.8,3.5 -4.9,9.7 0,1.1 -0.3,3.5 -1.3,3.5 -1.3,0.1 -2.3,-1.6 -2.6,-2.8 -0.3,-1.8 0.1,-5.5 0.8,-7 h -4.7 c -0.7,2.7 -1,6.4 -0.3,9.2 1.2,6.1 4.9,8 7.9,7.7 3.2,-0.5 4.8,-3.8 5.3,-9 z"
   id="path151" />
		<polygon
   class="st4"
   points="87.5,196.7 71,196.9 70.8,189.8 65.5,190 65.7,209.7 71.1,209.6 71,202.1 87.5,201.9 "
   id="polygon153" />
		<polygon
   class="st4"
   points="88.3,142.4 105.2,142.1 109.2,136 88.3,123.9 85.1,128.7 99.5,137.6 79.9,138.2 77.2,143.4 97.8,155.4 101,149.8 88.2,142.6 "
   id="polygon155" />
		<path
   class="st4"
   d="m 80.2,181.7 c 7.2,0 12.9,-5.8 12.9,-12.9 0,-7.2 -5.8,-12.9 -12.9,-12.9 -7.2,0 -12.9,5.8 -12.9,12.9 0.1,7.1 5.8,12.9 12.9,12.9 z m 0,-19.7 c 3.7,0 6.7,3 6.7,6.7 0,3.7 -3,6.7 -6.7,6.7 -3.7,0 -6.7,-3 -6.7,-6.7 0,-3.7 3,-6.7 6.7,-6.7 z"
   id="path157" />
		<path
   class="st4"
   d="m 101.4,253.6 c 0,-7.2 -5.8,-12.9 -12.9,-12.9 -7.2,0 -12.9,5.8 -12.9,12.9 0,7.2 5.8,12.9 12.9,12.9 7.1,0 12.9,-5.9 12.9,-12.9 z m -12.9,6.6 c -3.7,0 -6.7,-3 -6.7,-6.7 0,-3.7 3,-6.7 6.7,-6.7 3.7,0 6.7,3 6.7,6.7 0,3.7 -3,6.7 -6.7,6.7 z"
   id="path159" />
		<path
   class="st4"
   d="m 104,268.2 c -1.9,1.8 -2.9,5.9 -1.1,8.7 -2,-1 -6.1,-1.3 -8,0.3 -4.7,4 1,9.8 5.6,14.4 l 6.5,6.4 17,-14 -6.9,-8 c -2.3,-3.2 -9.1,-11.4 -13.1,-7.8 z m 0.7,22.5 c -1.8,-2 -6.8,-6 -4.7,-8 2,-1.9 7.2,4.2 7.7,5 z m 7.9,-7.2 -0.4,-0.6 c -1.5,-1.8 -6.1,-6.8 -4.2,-8.6 1.8,-1.8 6.4,4 7.6,5.6 l 0.6,0.7 z"
   id="path161" />
		<path
   class="st4"
   d="m 161.2,312.1 c -1.8,0 -3.5,-0.8 -4.4,-0.2 -0.8,0.4 -0.1,1.8 1,2.1 0.9,0.3 5.9,0 6.8,0 l 1.6,0.2 c 0,-2.1 -0.7,-2 -1.1,-2.3 -0.4,-0.2 -2.2,0.2 -3.9,0.2 z"
   id="path163" />
	</g>
</g>
</svg>
