<?xml version="1.0" encoding="UTF-8" standalone="no"?>
<!-- Generator: Adobe Illustrator 21.0.0, SVG Export Plug-In . SVG Version: 6.00 Build 0)  -->

<svg
   version="1.1"
   id="Layer_2"
   x="0px"
   y="0px"
   viewBox="0 0 309.11307 278.5"
   xml:space="preserve"
   sodipodi:docname="chi.svg"
   width="309.11307"
   height="278.5"
   inkscape:version="1.1.2 (b8e25be8, 2022-02-05)"
   xmlns:inkscape="http://www.inkscape.org/namespaces/inkscape"
   xmlns:sodipodi="http://sodipodi.sourceforge.net/DTD/sodipodi-0.dtd"
   xmlns="http://www.w3.org/2000/svg"
   xmlns:svg="http://www.w3.org/2000/svg"><defs
   id="defs44" /><sodipodi:namedview
   id="namedview42"
   pagecolor="#ffffff"
   bordercolor="#666666"
   borderopacity="1.0"
   inkscape:pageshadow="2"
   inkscape:pageopacity="0.0"
   inkscape:pagecheckerboard="0"
   showgrid="false"
   inkscape:zoom="1.535"
   inkscape:cx="155.37459"
   inkscape:cy="140.71661"
   inkscape:window-width="1296"
   inkscape:window-height="969"
   inkscape:window-x="0"
   inkscape:window-y="25"
   inkscape:window-maximized="0"
   inkscape:current-layer="Layer_2" />
<style
   type="text/css"
   id="style2">
	.st0{fill:#CD1F43;}
	.st1{fill:#FFFFFF;}
</style>
<g
   id="Layer_2_1_"
   transform="translate(-44.092549,-59)">
	<path
   d="M 353.1,117.7 C 351.9,96.2 342.2,76.9 336.5,65.4 l -0.7,-1.4 -2.5,-5 0.5,5.6 c 0.7,7.7 2.4,34.1 -5.5,49.1 -9.8,20.2 -38.4,18.3 -47.8,17.6 l -0.7,-0.1 c -15.5,-1 -65.8,-2.9 -81.2,-2.8 -20.4,0.1 -42.9,1.7 -61,3.1 -8.8,0.7 -16.5,1.2 -21.6,1.4 -0.4,0 -1,0.1 -1.9,0.2 C 88.8,135.4 72.7,128 66.5,110.9 62.7,100.4 62.8,79.7 62.8,69.7 v -2.9 -4.2 l -2,3.7 c -4.8,8.8 -13.6,25.2 -16.6,52.4 -1.6,32.1 15,43.5 27.7,49.4 13.2,6.1 26.7,7 31.2,7.3 h 0.3 -0.1 c 1,0.2 2,0.2 3,0.3 1.4,0.1 2.9,0.2 4.3,0.4 -2.4,0.4 -5.5,1 -8.3,1.5 -2.9,0.5 -5.7,1 -7.2,1.3 -3,0.6 -15.7,3.6 -22.7,6 -5.9,2 -12.1,4.9 -12.2,5 l -1.1,0.5 0.8,1 c 0.1,0.1 2.2,3 4.4,5.2 4.5,4.4 17,12.3 32.1,10.5 12,-1.5 18.5,-4.3 21,-5.6 0.8,2.6 2.7,8.6 4.5,13.3 5.5,13.5 17.8,39.3 22.5,48.2 3.8,7.3 7.5,13.7 9.9,17.9 l 0.9,1.6 c -0.8,2.8 -2.8,4.5 -4.2,5.8 -0.4,0.3 -0.7,0.6 -1,1 l -0.3,0.3 v 0.4 c -0.1,2.5 -0.7,24.9 14.5,41.3 l 0.2,0.2 0.3,0.1 c 7.6,2.9 17.5,5.9 33.4,5.9 16.3,0 29.9,-3.9 34.8,-6.3 l 0.2,-0.1 0.2,-0.2 c 10.6,-12.5 15.5,-31.5 15.6,-38.3 V 292 l -0.3,-0.3 c -0.3,-0.3 -0.5,-0.5 -0.9,-0.8 -1.6,-1.6 -3.7,-3.5 -4.8,-8.2 1.3,-2.2 3.8,-7.5 5.9,-11.9 1.1,-2.4 2.2,-4.5 2.7,-5.5 4.5,-8.7 17.6,-36.9 22.8,-50.2 3.3,-8.4 5.1,-12.6 6,-14.4 2.3,1.2 8.5,4 20.2,5.2 15.2,1.6 29.7,-8.7 33.7,-14.2 0.7,-1 1.8,-2.2 1.8,-2.2 l 1,-1 -1.3,-0.6 c -0.1,0 -0.6,-0.3 -2.9,-1 l -8.4,-2.9 -8.4,-2.9 c -2.2,-0.8 -12.5,-3 -20.1,-4.7 l -5.7,-1.2 1.8,-0.3 c 17.6,-3.3 63.7,-11.4 61.1,-57.2"
   id="path4" />
	<path
   class="st0"
   d="M 48.3,108.5 C 50.8,95.4 55,83.2 60.8,71.4 l 0.1,-0.2 h 0.1 0.1 v 0.3 -0.3 h 0.3 v 0.3 c -0.2,3.5 -0.3,7.1 -0.3,10.8 0,8.7 0.6,17.5 2.5,25.4 l 0.2,0.8 -0.6,-0.5 c -2.5,-2.2 -5,-4.8 -7.6,-7.1 -2.3,2.6 -4.5,5.4 -6.8,7.9 l -0.6,0.6 z"
   id="path6" />
	<path
   class="st0"
   d="m 348.6,103.1 -0.3,0.1 0.3,-0.1 C 345.2,92 342.3,80.9 336.7,70.7 l -0.4,0.1 c 0.2,3.5 0.3,7 0.3,10.5 0,8.5 -0.7,16.8 -2.1,24.9 l -0.1,0.4 0.4,-0.2 c 2.7,-1.3 5.3,-3 8,-4.2 l 6.7,4.8 z"
   id="path8" />
	<path
   class="st0"
   d="m 240.4,221.5 -0.5,0.3 c -3.8,1.6 -7.6,3.3 -11.7,4.2 -2.7,0.7 -5.4,1 -8,1 -8.3,0 -16.2,-3.5 -21.1,-10.9 l -0.2,-0.3 -0.2,0.2 c -1,0.9 -1.6,1.9 -2.6,2.9 -5.2,6 -12.8,8.3 -20.5,8.3 -6,0 -12.1,-1.4 -17.2,-3.5 l -0.5,-0.3 0.2,0.5 c 3.9,10.4 6.3,21.9 6.3,33.4 0,5.2 -0.5,10.4 -1.6,15.5 -0.7,3.5 -1.9,7.3 -2.9,10.8 l -0.2,0.5 0.5,-0.3 c 11,-5.9 24.5,-8.8 38,-8.8 12.7,0 25.4,2.7 36,8 1.7,0.7 3.4,1.9 4.9,2.4 l 0.4,0.2 -0.2,-0.4 c -3.1,-9.1 -4.9,-18.8 -4.9,-29 0,-0.2 0,-0.3 0,-0.4 0,-0.7 0,-1.3 0,-1.9 0,-11.1 2.3,-22 5.6,-31.8 z"
   id="path10" />
	<path
   class="st0"
   d="m 132.4,232.2 c -1.2,-1.5 -2.2,-3 -2.5,-4.9 l -0.1,-0.6 0.5,0.3 c 2,1.3 4.2,1.8 6.4,1.8 4.6,0 9.4,-2.2 13.1,-4.8 l 0.2,-0.1 0.2,0.2 0.1,0.1 -0.2,0.2 0.2,-0.2 0.1,0.1 v 0.1 c -0.5,4.7 -2.2,10.1 -7.2,11.9 -0.8,0.2 -1.5,0.3 -2.2,0.3 -3.4,-0.1 -6.2,-2 -8.6,-4.4"
   id="path12" />
	<path
   class="st0"
   d="m 249.7,230.4 c -1,-1.6 -1.6,-3.3 -2,-5.3 l -0.1,-0.6 0.5,0.4 c 2.5,2 5.6,2.8 8.8,2.8 3.7,0 7.6,-1.2 10.6,-3.1 l 0.6,-0.3 -0.3,0.7 c -1.5,4.2 -5.2,8.7 -9.7,9.6 -0.4,0.1 -0.8,0.1 -1.1,0.1 -2.9,-0.2 -5.6,-1.7 -7.3,-4.3"
   id="path14" />
	<path
   class="st0"
   d="m 255.4,236.6 c 0.6,0.1 1.2,0.2 1.7,0.2 1.7,0 3.4,-0.4 5,-1 l 0.5,-0.2 -0.2,0.5 c -6.2,15.5 -13.7,30.5 -21.4,45.3 l -0.3,0.5 -0.2,-0.5 c -1.6,-4.2 -2,-8.8 -2,-13.4 0,-3.4 0.3,-6.8 0.4,-10.3 1.1,-9.9 3.5,-19.6 6.5,-28.8 l 0.2,-0.5 0.3,0.5 c 2.1,3.5 5.6,7.1 9.5,7.7"
   id="path16" />
	<path
   class="st0"
   d="m 157.7,281.5 c -9.3,-14.3 -16.4,-29.3 -23.3,-44.6 l -0.3,-0.7 0.6,0.3 c 1.8,1 4.3,1.8 6.7,1.8 1.6,0 3.1,-0.3 4.4,-1.2 3,-2.1 4.8,-5.4 6,-8.7 l 0.2,-0.5 0.3,0.5 c 5.1,10.4 7.6,23 7.6,35.5 0,5.9 -0.5,11.8 -1.6,17.4 v 0.1 l -0.1,0.1 -0.3,0.3 z"
   id="path18" />
	<path
   class="st0"
   d="m 165.9,329.2 v 0 0 C 156.3,318.7 152.8,305.3 152.2,291 v -0.1 l 0.1,-0.1 c 12.5,-9.1 29.2,-13.9 45.8,-13.9 10.8,0 21.5,2.1 30.9,6.4 6,2.7 11.8,5.6 17,9.9 l -0.2,0.2 0.2,-0.2 0.1,0.1 v 0.2 c -1.6,13.3 -6.4,25.3 -14.8,35.6 v 0.1 h -0.1 c -10,3.9 -21.9,6.1 -33.7,6.1 -11.1,-0.2 -22.2,-2.1 -31.6,-6.1"
   id="path20" />
	<path
   class="st0"
   d="m 333.2,188.9 c 0,0 -5.9,-2.2 -7.4,-2.9 -16.1,-6.1 -36.9,-9.8 -54.5,-10.2 -1.7,-19.6 -4,-31.9 -7.8,-43 l -0.1,-0.2 h -0.2 c -9.1,-0.5 -49.4,-2.2 -65,-2.2 -15.6,0 -55.1,2.4 -64.2,2.9 v 0 l -0.1,0.2 c -3.6,10.6 -7.8,23.7 -9.8,43.2 -17.8,1.1 -41.8,6.2 -57.9,12.3 -1.1,0.4 -2,0.9 -2.6,1.1 -0.3,0.2 -0.5,0.3 -0.7,0.3 0,0 -0.1,0 -0.1,0.1 l -0.5,-0.5 0.2,0.9 c 0,0.1 0,0.1 0.1,0.1 2.5,2.8 11.6,13.7 28.5,14.1 0.3,0 0.6,0 0.9,0 5.5,0 14.9,-1 21.1,-3.8 1.6,-0.7 4.5,-1.9 5.3,-2.2 0.3,0.6 1.2,2.2 1.6,3.5 1.8,5 4,12.3 5.5,15.4 2.3,4.7 6.1,8.5 12.4,8.6 0.1,0 0.2,0 0.3,0 5.6,0 9.4,-4.5 10.1,-5.5 l 0.3,-0.3 h -0.4 c -15.6,-0.8 -22,-9.1 -23,-21.5 v -0.2 H 125 c -1.8,-0.3 -3,-0.6 -3.7,-1 -0.7,-0.4 -1,-0.9 -1.3,-1.8 -0.1,-0.4 -0.2,-0.9 -0.2,-1.3 0,-1.6 0.6,-3.2 1.7,-5.1 1.2,-1.6 3,-3.2 6.5,-3.2 1.5,0 3.2,0.3 5.4,1 4.8,1.6 8.7,4.7 11.4,7 3.2,2.9 12.6,12.6 18.3,16.1 3.4,2 8.5,3.9 13.7,3.9 4.2,0 8.4,-1.2 11.8,-4.5 7.3,-7.1 8.1,-13.2 9.1,-17 l 0.1,-0.3 h -0.3 c -12.5,-0.3 -24.4,-1.6 -35.3,-3.1 -1.3,-0.2 -1.6,-0.7 -1.6,-1.1 0,-0.5 0.6,-1.2 1.6,-1.2 0.2,0 0.4,0 0.6,0.1 0,0 20.7,2.8 35,2.9 h 0.3 v -0.3 c 0.1,-1.7 0.2,-4.7 0.3,-8 v -0.3 h -0.3 c -8.6,-0.2 -22.9,-1.1 -36.5,-3.8 -1.2,-0.3 -1.6,-1 -1.6,-1.6 0,-0.6 0.4,-1 1.2,-1.1 0.2,0 0.4,0 0.6,0.1 2,0.5 24.2,3.6 36.2,3.6 h 0.1 0.3 v -0.3 c 0.1,-2.6 0.1,-6.2 0.1,-9.7 v -0.3 H 198 c -0.3,0 -0.5,0 -0.8,0 -7.8,0 -19.1,-0.8 -35.1,-3.2 -1.3,-0.2 -1.8,-0.9 -1.8,-1.3 0,-0.5 0.4,-1 1.5,-1 0.1,0 0.2,0 0.3,0 0,0 19.6,2.9 34.9,2.9 0.3,0 0.7,0 1,0 h 0.3 V 166 c 0,-2.3 0,-5.1 0,-7.9 V 158 c 0,-1.5 0.7,-2.1 1.1,-2.1 0.4,0 1,0.5 1,1.9 0,1 0.1,4.1 0.1,7.8 v 0.2 0.3 h 0.3 c 14.8,-0.4 27.8,-2.2 33.9,-3.3 0.3,-0.1 0.7,-0.1 1,-0.1 1.2,0 1.6,0.5 1.6,1 0,0.5 -0.4,1 -1,1.1 -2,0.3 -19.1,3.6 -35.4,4.1 h -0.3 v 0.3 c 0,2.9 0.1,6.6 0.2,9.7 v 0.3 h 0.3 c 11,-0.4 23.6,-0.8 34.5,-3.2 0.5,-0.1 1,-0.2 1.3,-0.2 1.3,0 1.7,0.5 1.7,1 0,0.5 -0.6,1.2 -2.2,1.5 -10.6,1.8 -26,3.6 -35.4,3.7 h -0.3 v 0.3 c 0.1,2.7 0.1,5.9 0.3,8 v 0.3 h 0.3 c 17.5,-0.4 34,-2.9 36.9,-3.4 0.2,0 0.4,-0.1 0.6,-0.1 1.1,0 1.6,0.6 1.6,1.1 0,0.5 -0.5,1.2 -1.8,1.4 -3.1,0.4 -23.6,3 -36.7,3.4 h -0.3 l 0.1,0.3 c 1.3,4.4 1.6,10.9 8,16.4 3.1,2.7 7.4,3.9 11.8,3.9 4.3,0 8.7,-1.2 12.5,-3.3 5.8,-3.4 14.9,-13.3 18.1,-16.2 2.7,-2.3 8.8,-8 17,-8 0.1,0 0.3,0 0.3,0 4.2,0.1 6.2,1.2 7.4,2.4 1,1.2 1.2,2.5 1.5,3.3 0.2,0.5 0.3,1.2 0.3,1.9 0,1 -0.3,2.1 -1.3,2.7 -1.5,0.9 -2.8,0.7 -4.3,1.4 l -0.1,0.1 v 0.2 c -1,6.8 -3.2,14.6 -8.6,18.7 -2.9,2.2 -6.7,3.5 -9.6,4.2 -3,0.7 -5.3,0.8 -5.3,0.8 h -0.5 l 0.3,0.3 c 0,0 1.3,1.4 1.7,1.8 1,0.9 3.6,2.2 7.2,2.2 0.3,0 0.8,0 1.1,-0.1 3.9,-0.3 8.3,-3.3 10.2,-5.2 2.9,-3.7 5.5,-11.5 7.4,-16.4 0.7,-1.8 2.2,-4.8 2.9,-6.4 1.6,0.8 2.5,1.2 5.5,2.5 6.3,2.5 14.3,3.6 19.6,3.6 0.3,0 0.6,0 0.9,0 8.7,-0.3 18.7,-5.5 24.7,-11.1 1,-1 3,-3.4 3,-3.4 l 0.2,-0.3 z"
   id="path22" />
	<path
   d="m 207.7,296.6 c -1,1.6 -1.3,3.4 -1.3,5.2 0,2.9 1.1,6 2.8,8.1 0.1,0.2 0.3,0.2 0.4,0.2 0.2,0 0.4,-0.1 0.5,-0.3 v -0.2 c 0,-1.7 -1.1,-3.3 -1.1,-5.2 0,-0.4 0.1,-1 0.3,-1.4 l 0.2,-0.5 0.3,0.4 c 1.7,2.9 4.5,4.6 7.4,5.5 1.1,0.3 2.2,0.4 3.4,0.4 3.8,0 7.4,-1.7 9.9,-4.8 1.2,-1.6 2.1,-3.8 2.1,-5.9 0,-1 -0.2,-1.9 -0.7,-2.9 -1.8,-3.5 -5.5,-5.5 -9.2,-6.1 -0.6,-0.1 -1.3,-0.1 -1.9,-0.1 -5.5,0.3 -10.4,2.7 -13.1,7.6"
   id="path24" />
	<path
   d="m 186.8,311.3 c 0.3,0 0.7,-0.3 1,-0.8 1.4,-2.2 2.3,-5.1 2.3,-7.9 0,-1.8 -0.4,-3.6 -1.4,-5.2 l 0.2,-0.1 -0.2,0.1 c -1.5,-2.9 -4.5,-5.1 -7.4,-6.1 -1.6,-0.5 -3.4,-0.8 -5.1,-0.8 -4.1,0 -8.1,1.6 -10.6,4.9 -1,1.3 -1.5,2.9 -1.5,4.6 0,0.9 0.2,1.7 0.4,2.5 1.4,3.7 4.9,6.7 8.7,7.4 0.9,0.2 1.7,0.3 2.5,0.3 4.4,0 8.3,-2.2 11.1,-6 l 0.3,-0.3 0.2,0.4 c 0.1,0.3 0.2,0.7 0.2,1 0,0.8 -0.2,1.6 -0.3,2.2 -0.1,1.1 -1,2 -1,2.8 0,0.3 0.1,0.5 0.3,0.8 0.1,0.2 0.2,0.2 0.3,0.2"
   id="path26" />
	<path
   d="m 166.9,325.9 c 9.6,-4.1 21.1,-6.4 32.5,-6.4 8.7,0 17.2,1.3 24.8,4.2 1.9,0.9 4,1.5 5.9,2.1 0.5,-0.6 0.7,-0.8 1,-1.3 -9.3,-4.6 -20.4,-6.7 -31.5,-6.7 -11.9,0 -23.7,2.4 -33.7,6.9 0.4,0.5 0.6,0.8 1,1.2"
   id="path28" />
	<path
   d="m 175.2,254.8 c 5.7,7.2 14.4,10.3 23.1,10.4 3.2,0 6.5,-0.4 9.6,-1.2 14.6,-4.1 23.4,-20 26.5,-34 -0.4,-0.4 -0.8,-0.5 -1.4,-0.7 -1.8,8.2 -5.4,16.3 -10.5,23.1 -6.2,7.5 -15.3,11.3 -24.4,11.3 -3.2,0 -6.4,-0.5 -9.4,-1.5 -13.4,-4.2 -20.3,-18.9 -21.6,-32.2 -0.5,0 -1,0 -1.4,0.3 1.1,9.3 3.8,17.5 9.5,24.5"
   id="path30" />
	<path
   class="st1"
   d="m 66.4,117 c 7.7,14.8 23.2,19.6 38.9,18.9 8.8,-0.1 17.3,-1 26,-1.6 v 0.6 c -4.4,12.5 -7.3,25.2 -9.1,38.2 -22.8,0.9 -46.2,-1 -63,-16.2 -11.4,-11.6 -14.4,-27.5 -11.9,-43.3 2.7,-3.2 5.5,-6 8.4,-9.2 3.7,4 9.7,7.1 10.7,12.6"
   id="path32" />
	<path
   class="st1"
   d="m 349.9,110.3 c 0.6,2.2 0.7,4.4 0.9,6.8 1.1,17.6 -6.5,33.7 -21.5,42.6 -16.3,9.9 -35.3,13.3 -55.3,13.8 -0.3,-1.8 -0.6,-4.1 -0.8,-6.1 -1.6,-11.5 -3.7,-23.2 -7,-34.3 21.5,-0.3 47.7,5.5 61.9,-14.4 1.9,-2.8 3.8,-5.3 5.5,-8.2 3.2,-1.4 6.2,-3.5 9.3,-5.1 2.4,1.4 4.4,3.4 7,4.9"
   id="path34" />
	<path
   class="st1"
   d="m 268.2,199.1 c 0.1,6.7 -2.1,13.7 -8,16.9 -2.9,1.6 -6.1,2.2 -9.3,2 -0.1,-0.6 -0.3,-1.3 -0.1,-2.1 4.9,0.2 9.6,-1.6 12.3,-5.7 1.8,-3 2.5,-6.3 2.5,-10 0.7,-0.5 1.6,-0.9 2.6,-1.1"
   id="path36" />
	<path
   class="st1"
   d="m 146.8,217.4 c -0.9,0.2 -1.3,0.3 -2.9,0 -7.9,0 -16.2,-6.3 -15.7,-17 1,-0.3 2,-0.3 2.9,0.1 0,6.1 2.4,14.4 15.4,14.4 0.9,1.3 0,1.5 0.3,2.5"
   id="path38" />
</g>
</svg>
