<?xml version="1.0" encoding="UTF-8" standalone="no"?>
<!-- Generator: Adobe Illustrator 26.1.0, SVG Export Plug-In . SVG Version: 6.00 Build 0)  -->

<svg
   version="1.1"
   id="Layer_1"
   x="0px"
   y="0px"
   viewBox="0 0 312.34866 268.82034"
   xml:space="preserve"
   sodipodi:docname="cle.svg"
   width="312.34866"
   height="268.82034"
   inkscape:version="1.1.2 (b8e25be8, 2022-02-05)"
   xmlns:inkscape="http://www.inkscape.org/namespaces/inkscape"
   xmlns:sodipodi="http://sodipodi.sourceforge.net/DTD/sodipodi-0.dtd"
   xmlns="http://www.w3.org/2000/svg"
   xmlns:svg="http://www.w3.org/2000/svg"><defs
   id="defs13" /><sodipodi:namedview
   id="namedview11"
   pagecolor="#ffffff"
   bordercolor="#666666"
   borderopacity="1.0"
   inkscape:pageshadow="2"
   inkscape:pageopacity="0.0"
   inkscape:pagecheckerboard="0"
   showgrid="false"
   inkscape:zoom="1.535"
   inkscape:cx="156.02606"
   inkscape:cy="132.24756"
   inkscape:window-width="1296"
   inkscape:window-height="969"
   inkscape:window-x="0"
   inkscape:window-y="25"
   inkscape:window-maximized="0"
   inkscape:current-layer="Layer_1" />
<style
   type="text/css"
   id="style2">
	.st0{fill:#BC945C;}
	.st1{fill:#860038;}
</style>
<g
   id="g8"
   transform="translate(-43.851325,-67.792196)">
	<path
   class="st0"
   d="M 356.2,121.3 V 98.4 l -5.6,-5.7 C 278.6,24.2 124.4,114.1 72,157.5 l -25.9,40.1 32.2,-8 c -49.4,62 -31.8,102.7 -29.7,106.9 5.2,14.6 17.1,26.3 36.3,34 14.6,5.8 31.2,6.6 45.4,5.9 61.4,-2.9 134,-41.2 180.9,-81.9 l 1.1,-0.9 9.3,-47.1 -18.2,10.1 c -63.3,27.8 -114.2,43.2 -114.2,43.2 -33.3,10.4 -48.6,12.1 -59.5,9.5 l -1.3,-0.4 c -3,-1.2 -3.5,-3.9 -3.5,-4.6 -0.5,-20.8 35.4,-65.6 53.4,-85 16.8,-18.1 43.3,-37.9 65.7,-47.3 15,-6.3 24.7,-8.8 29.2,-8.4 -1.2,3.9 -3.3,8.7 -6.2,14.5 0,0 -24,47.3 -25,49.2 z"
   id="path4" />
	<path
   class="st1"
   d="m 213.9,118 c -20.6,10.9 -44.3,32.8 -51.7,40.7 -60.4,64.3 -102.7,150.3 29.5,109.1 0,0 51.4,-15.6 115.2,-43.6 C 126.3,376.8 -44.2,313 123.6,152.5 108.3,156 92.9,159.3 77.8,163.5 131.5,119 278.9,36.1 344.7,98.7 l -70.3,43.1 C 304.6,82.7 250.2,96.6 213.9,118"
   id="path6" />
</g>
</svg>
