<?xml version="1.0" encoding="UTF-8" standalone="no"?>
<!-- Generator: Adobe Illustrator 23.0.0, SVG Export Plug-In . SVG Version: 6.00 Build 0)  -->

<svg
   version="1.1"
   id="Layer_1"
   x="0px"
   y="0px"
   viewBox="0 0 298.79999 298.30017"
   xml:space="preserve"
   sodipodi:docname="dal.svg"
   width="298.79999"
   height="298.30017"
   inkscape:version="1.1.2 (b8e25be8, 2022-02-05)"
   xmlns:inkscape="http://www.inkscape.org/namespaces/inkscape"
   xmlns:sodipodi="http://sodipodi.sourceforge.net/DTD/sodipodi-0.dtd"
   xmlns="http://www.w3.org/2000/svg"
   xmlns:svg="http://www.w3.org/2000/svg"><defs
   id="defs89" /><sodipodi:namedview
   id="namedview87"
   pagecolor="#ffffff"
   bordercolor="#666666"
   borderopacity="1.0"
   inkscape:pageshadow="2"
   inkscape:pageopacity="0.0"
   inkscape:pagecheckerboard="0"
   showgrid="false"
   inkscape:zoom="1.535"
   inkscape:cx="146.25407"
   inkscape:cy="150.4886"
   inkscape:window-width="1296"
   inkscape:window-height="969"
   inkscape:window-x="0"
   inkscape:window-y="25"
   inkscape:window-maximized="0"
   inkscape:current-layer="Layer_1" />
<style
   type="text/css"
   id="style2">
	.st0{fill:#FFFFFF;}
	.st1{fill:#061922;}
	.st2{fill:#BBC4CA;}
	.st3{fill:#0064B1;}
</style>
<g
   id="g84"
   transform="translate(-53.4,-49.7)">
	<g
   id="g6">
		<path
   class="st0"
   d="M 63.8,249.9 C 61.4,246.3 53.4,232.8 53.4,211 v 0 c 0,-8.2 1.1,-17.5 4.1,-27.9 v 0 c 0,-0.1 0,-0.1 0,-0.2 v 0 l 1.3,-5 0.3,0.3 c 0.2,-0.6 0.4,-1.2 0.6,-1.8 v 0 c 1,-3.1 2.1,-6.4 2.4,-7.1 v 0 c 0.2,-0.7 1.1,-4.4 1.9,-7 v 0 c 0.2,-0.8 0.4,-1.4 0.6,-2 v 0 -0.4 c 0.2,-1.9 0.5,-3.8 0.9,-5.6 v 0 c 0.1,-1 0.3,-1.9 0.4,-2.7 v 0 l 0.1,-0.3 0.1,-0.3 c 0.1,-0.2 0.2,-0.4 0.2,-0.5 v 0 C 70,135.3 77,126.3 80.9,122.2 v 0 -0.1 -0.1 c 0.8,-0.7 2.9,-2.7 5.4,-4.3 v 0 c 1.1,-1.5 4.8,-6.3 8.2,-10.1 v 0 c 1.2,-1.3 2.3,-2.4 3.3,-3.4 v 0 c 0.6,-1.3 1.9,-4 4.4,-7.2 v 0 c 3.4,-4.2 8.8,-9.2 17.2,-12.2 v 0 c 6.4,-4.4 13.2,-8.2 20.3,-11.6 v 0 c 1.4,-1.4 6.5,-6.5 14.5,-11.6 v 0 c 9.3,-5.9 22.4,-11.9 38,-11.9 v 0 c 0.6,0 1.2,0 1.8,0 v 0 l 5.7,0.2 -7,9.4 c 3.7,-0.3 7.5,-0.4 11.3,-0.4 v 0 c 20.1,0 39.4,3.9 56.9,11 v 0 h 0.1 0.1 c 0.7,0.3 1.9,0.9 3.1,1.7 v 0 c 1.1,0.7 2.1,1.4 3.1,2.4 v 0 c 1.2,0.1 3.8,0.6 6.6,1.8 v 0 h 0.1 0.1 c 18.9,9.9 35.4,23.8 48.3,40.4 v 0 l 0.1,0.1 0.1,0.2 c 0.2,0.3 0.7,1.4 1.1,3.5 v 0 c 0.2,0.1 0.5,0.3 0.9,0.6 v 0 c 0.7,0.5 1.5,1 2.2,1.8 v 0 l 0.2,0.2 0.1,0.2 c 15.8,23 25.1,50.7 25.1,80.5 v 0 c 0,28.2 -8.3,54.6 -22.7,76.9 v 0 l -0.1,0.1 -0.1,0.1 c -0.2,0.3 -0.3,0.4 -0.5,0.6 v 0 c -0.2,0.2 -0.4,0.4 -0.7,0.6 v 0 c -0.4,0.3 -1,0.7 -1.7,1.2 v 0 c -0.1,0.3 -0.1,0.6 -0.2,1.1 v 0 c -0.2,0.9 -0.5,2 -1.2,3.1 v 0 0.1 l -0.1,0.1 C 298,324 253.9,348 204,348 v 0 C 139.1,348.1 83.7,307.1 63.8,249.9 Z"
   id="path4" />
	</g>
	<path
   class="st1"
   d="m 325,124.8 c -0.9,-0.9 -2.9,-2.1 -2.9,-2.1 -0.7,-0.3 -0.9,-1 -0.9,-1 -0.4,-2.5 -0.9,-3.4 -0.9,-3.4 -12.6,-16.3 -28.8,-29.8 -47.4,-39.6 -3.3,-1.5 -6.3,-1.6 -6.3,-1.6 -0.7,0 -1,-0.5 -1,-0.5 -1.1,-1.5 -4.4,-3.2 -5.6,-3.8 -17.2,-7 -36,-10.8 -55.8,-10.8 -6,0 -11.9,0.4 -17.7,1.1 l 7.6,-10.2 C 163.6,52 141.8,75.8 141.8,75.8 v 0 c -7.3,3.4 -14.3,7.4 -20.9,11.9 v 0 c -15.9,5.7 -20.5,18.5 -20.5,18.5 -4,3.4 -12,14 -12,14 -2.3,1.3 -4.7,3.5 -5.4,4.2 -3.7,3.8 -10.4,12.4 -13.9,27.2 -0.1,0.2 -0.2,0.5 -0.3,0.7 -0.1,0.8 -0.3,1.8 -0.4,2.7 -0.3,1.8 -0.7,3.6 -0.9,5.5 l 0.2,-0.2 c -0.1,0.4 -0.1,0.6 -0.1,0.6 -0.4,0.3 -2.7,9.4 -2.7,9.4 -0.4,1.2 -4.5,13.6 -4.5,13.6 v 0 c 0,0 0,0.1 0,0.1 -10.9,38.2 3.6,61.3 6.1,64.8 19.3,56.1 73.7,96.6 137.8,96.6 48.9,0 92.2,-23.5 118.5,-59.6 v 0 c 0.7,-1.2 1.1,-3.6 1.1,-3.6 0,-0.8 0.6,-1.1 0.6,-1.1 2,-1.1 2.7,-1.8 2.8,-2 14.1,-21.8 22.2,-47.6 22.2,-75.3 0.1,-29.4 -9,-56.5 -24.5,-79 z"
   id="path8" />
	<path
   class="st0"
   d="m 143.3,97.4 c 0.4,-0.4 0.7,-0.8 1,-1.1 0.5,-0.5 0.7,-0.6 0.7,-0.6 0.1,-0.1 0.1,-0.1 0.1,-0.1 0.1,-7.3 1.8,-13.1 1.8,-13.1 13.2,-18.5 35,-23.3 35,-23.3 2.7,-0.8 1,0.4 1,0.4 -13.7,15.4 -12.3,28.1 -12.3,28.1 l 13.1,47.8 c 0,0 -10.6,-3.7 -18.8,-20.5 -3.8,33.5 27.8,60.7 27.8,60.7 1.4,1.2 -0.8,-0.1 -0.8,-0.1 -7.9,-3.9 -17,-12.3 -19.5,-14.6 0.7,2.6 16,79.9 16.1,80.1 0.1,0.4 0.3,1.1 0.4,1.6 l 5.3,-13.2 4.4,39 c -20,18.6 -41.3,11.3 -42.7,10.8 0.5,0.8 0.9,1.4 0.9,1.4 0,0 17.3,34 87.9,30.4 0,0 1.7,0 1.4,0.2 0,0.1 -0.1,0.1 -0.4,0.2 -1.3,0.5 -3.4,0.8 -3.4,0.8 -85.2,22.8 -129.3,-49.8 -131.2,-53.1 -0.5,-0.7 -4.7,-6.6 -7,-12.4 -0.1,-0.2 -0.2,-0.7 0.2,-0.3 0,0 9,9.4 34.6,11.8 0.2,0 0.3,0 0.3,0 -19.8,-22 -28.2,-38 -29.4,-40.5 0,0 0,0 0,0 0,0 -2.4,-3.6 -5.2,-13.7 0,0 0.1,-0.5 0.3,0 1,2 7.5,11.7 15.5,13.8 v 0 c -6.8,-10.9 -11,-28.1 -11.5,-30.7 9.2,12.9 25.5,13.8 25.5,13.8 0,0 0,-0.1 -0.1,-0.1 0,0.1 0.1,0.1 0.1,0.1 -26.8,-26.8 -21,-55.9 -10.2,-76.9 6.6,-12.5 14.8,-22.1 19.1,-26.7 z"
   id="path10" />
	<g
   id="g32">
		<g
   id="g14">
			<path
   class="st2"
   d="M 223.6,274.5 206,293 c 0,0 0,0 0,0 v 0 l 21.7,-16.7 -11.2,-38.8 4.9,-46.6 -8.6,44.5 z"
   id="path12" />
		</g>
		<g
   id="g18">
			<path
   class="st2"
   d="m 227.5,160.4 c -1.5,8 -4,16.1 -8.4,19.8 v 0 c 0.3,-0.2 0.7,-0.4 1.2,-0.6 v 0 c 1.3,-0.8 3,-2 4.8,-3.8 v 0 c 3.5,-3.6 7,-9.5 7,-18.8 v 0 c 0,-4.2 -0.7,-9 -2.4,-14.6 v 0 c -0.3,3.1 -0.8,10.5 -2.2,18 z"
   id="path16" />
		</g>
		<g
   id="g22">
			<path
   class="st2"
   d="m 227.2,101.6 0.3,-0.1 z m 0.1,-0.7 c 6.1,-9.3 16.2,-10.1 20.5,-10.1 v 0 c -3.7,-1.1 -7.1,-1.5 -10.2,-1.5 v 0 c -6.5,0 -11.3,1.8 -13.3,2.7 v 0 c -0.3,0.1 -0.5,0.2 -0.7,0.3 v 0 c 1.6,2.2 3.2,6.9 3.7,8.6 z"
   id="path20" />
		</g>
		<g
   id="g26">
			<path
   class="st2"
   d="m 204.3,172.8 v 0 z m 15.3,-52.5 c 0.2,0 0.3,0.1 0.3,0.3 v 0 c 0,0.9 0,1.7 0,2.6 v 0 c 0,19.9 -5.3,41.8 -7.3,49.4 v 0 c 7.6,-17.5 9.7,-33.8 9.7,-46.3 v 0 c 0,-7.3 -0.7,-13.4 -1.4,-17.6 v 0 c -0.4,-2.2 -0.7,-3.9 -1,-5 v 0 c -1.9,15 -7.6,21.8 -7.7,21.9 v 0 c -0.1,0.1 -0.2,0.1 -0.3,0.1 v 0 c -0.1,0 -0.2,-0.1 -0.2,-0.2 v 0 C 202.3,108.2 188.4,97.6 182.1,93.4 v 0 c -1.1,-0.7 -2,-1.3 -2.5,-1.6 v 0 c 17.9,38.8 23.1,68.8 24.4,78.7 v 0 c 0,-1.1 0.1,-2.3 0.1,-3.5 v 0 c 0,-17.7 -4.5,-39.1 -6.8,-48.7 v 0 c -0.8,-3.2 -1.3,-5.1 -1.3,-5.1 v 0 c 0,-0.1 0,-0.3 0.1,-0.3 v 0 c 0.1,-0.1 0.2,-0.1 0.4,0 v 0 c 8,6.2 13.7,24 14.7,27.3 v 0 c 1.5,-1.9 3.5,-6.5 5.1,-10.8 v 0 c 1.7,-4.6 3.1,-8.8 3.1,-8.8 v 0 c -0.1,-0.2 0,-0.3 0.2,-0.3 v 0 c -0.1,0 -0.1,0 0,0 z m -7.7,5.1 0.3,-0.1 z"
   id="path24" />
		</g>
		<g
   id="g30">
			<path
   class="st2"
   d="m 69.2,200.9 c 0,18.5 3.2,37.8 19.1,62.5 v 0 0 c 15,31.6 42.7,48.6 55.6,55.2 v 0 c 4.3,2.2 6.9,3.2 7,3.2 v 0 c 20.5,9.7 39.8,13.2 57.1,13.2 v 0 c 36.2,0 63.6,-15.6 75.1,-23.4 v 0 c 3.8,-2.6 5.9,-4.3 5.9,-4.3 v 0 l 0.2,0.2 -0.2,-0.2 c 0.8,-0.6 1.3,-1.1 1.8,-1.5 v 0 c -0.2,0.1 -0.5,0.3 -0.7,0.4 v 0 c -0.8,0.5 -1.6,1 -1.6,1 v 0 c -28.1,16.5 -54,21.5 -75.2,21.5 v 0 c -33.1,0 -54.6,-12.4 -54.6,-12.4 v 0 C 88.4,279.5 87.4,215.6 87.4,215.6 v 0 c 0,-0.1 0.1,-0.3 0.2,-0.3 v 0 c 0.1,0 0.3,0 0.3,0.2 v 0 c 9.1,17.6 20.1,23.6 24.9,25.5 v 0 c 0.7,0.3 1.3,0.5 1.7,0.6 v 0 C 94,215.7 88.2,194 88.2,177.7 v 0 c 0,-21.6 10.2,-33.9 10.3,-33.9 v 0 c 0.1,-0.1 0.2,-0.1 0.4,-0.1 v 0 c 0.1,0.1 0.2,0.2 0.2,0.3 v 0 c -1.5,7.6 -2,14.4 -2,20.2 v 0 c 0,14.3 3.3,23.1 5,26.7 v 0 c 0,0.1 0.1,0.2 0.1,0.3 v 0 c -0.6,-5.2 -0.9,-10.2 -0.9,-15 v 0 c 0,-48.2 28.2,-77.8 34.2,-83.6 v 0 c -4.5,1.9 -9.9,6.7 -14.3,11.2 v 0 c -4.9,5 -8.6,9.6 -8.6,9.6 v 0 c -0.1,0.1 -0.2,0.1 -0.3,0.1 v 0 c -0.1,0 -0.2,-0.2 -0.2,-0.3 v 0 c 0,-3.8 2.2,-8.6 3.4,-11 v 0 c -3.6,3.3 -6.6,8.5 -8.8,13 v 0 c -2.4,5 -3.7,9.2 -3.7,9.2 v 0 l -0.1,0.1 c -11.2,12.6 -16.6,26.2 -18.6,32.1 v 0 c -0.7,2 -1,3.1 -1,3.1 v 0 c -0.3,1 -0.4,1.5 -0.5,1.8 v 0 c -0.1,0.1 -0.1,0.2 -0.4,0.3 v 0 c -0.2,0 -0.3,-0.2 -0.3,-0.2 v 0 c 0,-0.1 0,-0.1 0,-0.2 v 0 c 0,-0.1 0,-0.3 0,-0.4 v 0 c 0,-0.6 0.1,-1.4 0.1,-1.4 v 0 c 0.2,-9.1 4,-19.3 5.5,-23.1 v 0 C 77,148 74.4,163.6 74.4,176.1 v 0 c 0,5.9 0.6,11.1 1.2,14.8 v 0 c 0.6,3.7 1.2,5.9 1.2,5.9 v 0 0.1 c 0,7.3 1.5,16.4 2.9,23.7 v 0 c 1.4,7.2 2.9,12.6 2.9,12.6 v 0 c 0.5,1.4 0.7,2 0.7,2.4 v 0 c 0,0.1 0,0.1 0,0.2 v 0 c 0,0.1 -0.2,0.2 -0.3,0.2 v 0 c -0.2,0 -0.3,-0.1 -0.3,-0.2 v 0 c -0.1,-0.1 -0.1,-0.2 -0.2,-0.3 v 0 c -0.1,-0.2 -0.3,-0.5 -0.4,-0.7 v 0 c -0.3,-0.5 -0.5,-1 -0.5,-1 v 0 c -7.5,-11.5 -11.1,-30.4 -12,-35.1 v 0 c -0.4,0.7 -0.4,1.4 -0.4,2.2 z"
   id="path28" />
		</g>
	</g>
	<g
   id="g50">
		<g
   id="g36">
			<path
   class="st3"
   d="m 234,110.7 -0.2,-0.1 0.1,-0.2 c 3.4,-9.2 19.6,-17.3 22.7,-18.9 v 0 C 249.1,87.3 241.9,86 235.9,86 v 0 c -4.5,0 -8.3,0.7 -11,1.5 v 0 c -2.7,0.7 -4.2,1.4 -4.2,1.4 v 0 l -0.2,0.1 -0.1,-0.2 c -2.8,-3.5 -6.4,-6.9 -9.3,-9.5 v 0 C 208.3,76.8 206.2,75.2 206,75 v 0 c -0.4,-0.3 -0.7,-0.4 -0.7,-0.8 v 0 c 0,-0.2 0.2,-0.4 0.3,-0.4 v 0 c 0.1,-0.1 0.3,-0.1 0.4,-0.1 v 0 c 0.3,-0.1 0.7,-0.1 1,-0.1 v 0 c 0.4,0 0.7,0 0.8,0 v 0 c 64.4,0 98.6,46 98.6,46 v 0 c 0.4,0.5 0.7,1 0.7,1.5 v 0 c -0.1,1.4 -1.6,2 -3,2.5 v 0 c -1.4,0.4 -2.9,0.6 -2.9,0.6 v 0 c -6.2,0.9 -12,1.2 -17.3,1.2 v 0 c -33.7,0 -49.9,-14.7 -49.9,-14.7 z"
   id="path34" />
		</g>
		<g
   id="g40">
			<path
   class="st3"
   d="m 212.1,296.6 c -0.1,0 -0.2,-0.1 -0.2,-0.2 v 0 c 0,-0.1 0,-0.2 0.1,-0.3 v 0 l 21.6,-17.4 -11,-40.6 V 238 l 3,-27.2 c 0,-0.1 0.1,-0.2 0.1,-0.2 v 0 c 0.1,-0.1 0.2,-0.1 0.3,0 v 0 c 4.9,1.5 7.2,8.2 8.4,14.4 v 0 c 0.8,4.5 1.1,8.7 1.1,10.8 v 0 c 5.7,-12.4 7.6,-22.4 7.6,-30.1 v 0 c 0,-10.9 -3.8,-17.4 -5.6,-19.9 v 0 c -0.6,-0.8 -1,-1.2 -1,-1.2 v 0 0 c -0.1,-0.1 -0.1,-0.3 0,-0.4 v 0 c 0.1,-0.1 0.3,-0.1 0.4,0 v 0 c 25.7,24.4 30.9,58.5 30.9,82 v 0 c 0,15.9 -2.4,26.9 -2.4,27 v 0 0 c -0.8,2.5 -3.4,3.1 -3.5,3.2 v 0 c -10.5,2.3 -19.7,3.1 -27.3,3.1 v 0 c -14.1,-0.2 -22.5,-2.9 -22.5,-2.9 z"
   id="path38" />
		</g>
		<g
   id="g44">
			<path
   class="st3"
   d="m 272.5,293.7 c -0.4,-0.3 -0.7,-0.9 -0.6,-1.6 v 0 c 0,-0.3 0,-0.7 0.2,-1.2 v 0 c 0,0 0.8,-3.2 1.7,-8.8 v 0 c 0.8,-5.5 1.7,-13.4 1.7,-22.6 v 0 c 0,-24.5 -5.9,-58.7 -33.2,-85.2 v 0 c -0.1,-0.1 -0.5,-0.3 -0.7,-0.6 v 0 c -0.1,-0.1 -0.2,-0.2 -0.2,-0.4 v 0 c 0,-0.1 0.1,-0.3 0.2,-0.4 v 0 c 0.1,-0.1 0.2,-0.1 0.4,-0.1 v 0 c 0.3,0 0.6,0.1 1.2,0.2 v 0 c 0,0 7.3,2.2 12.4,7.9 v 0 c 0,-0.4 -0.1,-0.8 -0.2,-1.3 v 0 c -0.2,-1.5 -0.6,-3.5 -1.3,-5.9 v 0 c -1.4,-4.8 -3.9,-10.9 -8.5,-16.2 v 0 c 0,0 -0.6,-0.7 -1,-1.1 v 0 c -0.1,-0.2 -0.2,-0.2 -0.2,-0.5 v 0 c 0,-0.1 0,-0.2 0.1,-0.2 v 0 c 0.1,-0.1 0.2,-0.1 0.2,-0.1 v 0 c 0.2,0 0.3,0.1 0.5,0.2 v 0 c 0.2,0.1 0.5,0.3 0.9,0.6 v 0 c 1.6,0.8 70.2,34 72.6,100.9 v 0 c 0,0 0,0.4 0,1 v 0 c 0,1.6 -0.3,4.9 -2.4,6.8 v 0 c -0.7,0.8 -16.9,21 -40.8,28.8 v 0 c 0,0 -0.7,0.3 -1.5,0.3 v 0 c -0.6,-0.1 -1.1,-0.2 -1.5,-0.5 z"
   id="path42" />
		</g>
		<g
   id="g48">
			<path
   class="st3"
   d="m 324.1,246.5 c -0.2,-0.5 -0.3,-1.1 -0.3,-2 v 0 0 c -1.6,-64.4 -72.2,-105 -89.9,-114.1 v 0 c -2.5,-1.3 -3.9,-2 -3.9,-2 v 0 l -1.2,-0.6 h 1.4 c 0.1,0 0.1,0 0.2,0 v 0 c 9.3,0 14.9,5.6 16.6,7.5 v 0 0 0 c 0,-1.7 -0.3,-3.5 -0.7,-4.8 v 0 c -0.3,-1.4 -0.7,-2.3 -0.7,-2.3 v 0 l -0.2,-0.6 0.6,0.2 c 7.4,2.8 16.9,3.8 26.3,3.7 v 0 c 9,0 17.9,-0.9 24.5,-1.7 v 0 c 6.6,-0.9 10.9,-1.7 10.9,-1.7 v 0 0 0 c 0.3,0 0.7,0 1,0 v 0 c 3.8,0 5,2.1 5.1,2.5 v 0 c 8.8,9.8 19.8,32.7 21.6,60.1 v 0 c 0.2,3.4 0.3,6.8 0.3,10 v 0 c 0,24.1 -5.8,41.6 -9.2,45.7 v 0 c -0.5,0.6 -0.9,1 -1.5,1 v 0 c -0.4,-0.1 -0.7,-0.4 -0.9,-0.9 z"
   id="path46" />
		</g>
	</g>
	<path
   class="st1"
   d="m 173.7,65.9 c 0,-0.1 0.1,-0.1 0.1,-0.2 v 0 0 c -0.8,0.2 -14.9,4.4 -19,25.8 0,0 0,0.4 0.2,0 1.3,-2.1 5.7,-8.7 9.7,-6.8 0,0 0,-0.2 0.1,-0.4 0.1,-1.7 1.5,-9.2 8.9,-18.4 z"
   id="path52" />
	<g
   id="g56">
		<path
   class="st1"
   d="m 162.9,259.9 c -3,-6.1 -22.6,-48.8 -22.6,-48.8 -6.1,1.9 -13.6,-3 -13.6,-3 0,0 0,0 0,0 9.6,25.5 32.2,47.9 35.9,51.9 0,0 0,0 0.1,0.1 0.6,0.7 0.6,0.4 0.6,0.4 -0.2,-0.1 -0.3,-0.3 -0.4,-0.6 z"
   id="path54" />
	</g>
	<g
   id="g60">
		<path
   class="st1"
   d="m 143.5,120.9 c -17.6,40.3 22.1,56.9 22.6,57.1 v 0 l -2.1,-9.3 -1.2,-5.3 c -1,-0.3 -1.9,-0.7 -2.8,-1.1 -0.3,-0.1 -0.6,-0.3 -0.9,-0.4 -0.4,-0.2 -0.7,-0.4 -1.1,-0.5 -17.3,-9.2 -15.7,-31.3 -14.6,-38.5 0,-0.1 0,-0.1 0,-0.2 0,-0.2 0.1,-0.4 0.1,-0.6 0.1,-0.7 0.2,-1.1 0.2,-1.4 0,-0.1 0,-0.2 0,-0.2 0,0 0,0 0,0 0.1,-0.4 -0.1,0.2 -0.2,0.4 z"
   id="path58" />
	</g>
	<path
   class="st2"
   d="m 169.6,234.4 -2.9,-50.7 17,56.5 c 0.1,0 -5.5,-13.3 -14.1,-5.8 z"
   id="path62" />
	<g
   id="g66">
		<path
   class="st2"
   d="m 170.7,88.7 3.8,30.3 c 0,0 1.8,8.3 -9.5,-4.1 8.2,16.8 18.8,20.5 18.8,20.5 L 170.8,88 c -0.1,0.1 -0.2,0.2 -0.1,0.7 z"
   id="path64" />
	</g>
	<path
   class="st2"
   d="m 152.6,144 c -1.1,-2.5 -1.5,-4.8 -1.5,-6.8 0,-7.4 5.4,-11.5 5.4,-11.5 l 0.2,-0.1 c 0,0.1 -0.3,-4.7 0.2,-12.3 -4.4,6.4 -13.6,21.6 -2.5,33.5 -0.2,-0.2 -0.3,-0.5 -0.5,-0.7 -0.6,-0.9 -1,-1.5 -1.3,-2.1 z"
   id="path68" />
	<path
   class="st1"
   d="m 164.1,150.2 c -1.9,-3.3 -6.7,-13.8 -7.4,-24.4 0,-0.1 0,-0.1 0,-0.2 l -0.2,0.1 c 0,0 -5.4,4.2 -5.4,11.5 0,2 0.4,4.3 1.5,6.8 0.3,0.6 0.7,1.3 1.3,2.1 0.1,0.2 0.3,0.4 0.5,0.7 0.2,0.3 0.4,0.5 0.7,0.8 1.9,2 5,4.1 10.2,4.3 -0.1,0 -0.6,-0.6 -1.2,-1.7 z"
   id="path70" />
	<g
   id="g82">
		<g
   id="g80">
			<path
   class="st2"
   d="m 188,270.3 v 0 c 0,0 0,0 0,0 0,0 0,0 0,0 0,0 0,0 0,0 0,0 0,0 0,0 z"
   id="path72" />
			<path
   class="st2"
   d="m 179.5,246.4 c 1.8,0 3.1,1.6 4.2,3.9 1.1,2.3 2,5.2 2.7,8.2 0.9,3.7 1.4,7.4 1.7,9.6 0,1 0,1.8 0,2.2 0,0 0,0 0,0 0.4,-2.4 4,-26.1 -8.1,-29.5 0,0 -8.4,-2.1 -7.8,15.3 0.1,-0.4 0.1,-0.7 0.1,-1.1 2.7,-6.1 5,-8.6 7.2,-8.6 z"
   id="path74" />
			<path
   class="st1"
   d="m 188,270.3 c 0,0 0,0 0,0 0,0 0,0 0,0 0,0 0,0 0,0 z"
   id="path76" />
			<path
   class="st1"
   d="m 188.1,268 c 0,-0.7 -0.8,-5.9 -1.7,-9.6 -0.7,-3 -1.6,-5.9 -2.7,-8.2 -1.1,-2.2 -2.4,-3.8 -4.2,-3.9 -2.2,0 -4.5,2.5 -7.3,8.7 -0.2,0.4 -0.1,0.5 -0.1,1.1 l 4.1,9.1 c 0,0 2.4,-24.4 11.7,4.9 0,0.1 0,0.1 0,0.1 v 0 c 0,0 0,0 0,-0.1 0,0 0,0 0,0 0,0 0,0 0,0 0,0 0,0 0,0 0.2,-0.3 0.3,-0.8 0.2,-2.1 z"
   id="path78" />
		</g>
	</g>
</g>
</svg>
