<?xml version="1.0" encoding="UTF-8" standalone="no"?>
<!-- Generator: Adobe Illustrator 24.0.1, SVG Export Plug-In . SVG Version: 6.00 Build 0)  -->

<svg
   version="1.1"
   id="Layer_1"
   x="0px"
   y="0px"
   viewBox="0 0 300.2001 300.20001"
   xml:space="preserve"
   sodipodi:docname="det.svg"
   width="300.2001"
   height="300.20001"
   inkscape:version="1.1.2 (b8e25be8, 2022-02-05)"
   xmlns:inkscape="http://www.inkscape.org/namespaces/inkscape"
   xmlns:sodipodi="http://sodipodi.sourceforge.net/DTD/sodipodi-0.dtd"
   xmlns="http://www.w3.org/2000/svg"
   xmlns:svg="http://www.w3.org/2000/svg"><defs
   id="defs55" /><sodipodi:namedview
   id="namedview53"
   pagecolor="#ffffff"
   bordercolor="#666666"
   borderopacity="1.0"
   inkscape:pageshadow="2"
   inkscape:pageopacity="0.0"
   inkscape:pagecheckerboard="0"
   showgrid="false"
   inkscape:zoom="1.535"
   inkscape:cx="150.16287"
   inkscape:cy="149.83713"
   inkscape:window-width="1296"
   inkscape:window-height="969"
   inkscape:window-x="0"
   inkscape:window-y="25"
   inkscape:window-maximized="0"
   inkscape:current-layer="Layer_1" />
<style
   type="text/css"
   id="style2">
	.st0{fill:#B3B2B1;}
	.st1{fill:#1D428A;}
	.st2{fill:#C8102E;}
	.st3{fill:#FFFFFF;}
</style>
<g
   id="g50"
   transform="translate(-49.799889,-50)">
	<path
   class="st0"
   d="M 350,200.1 C 350,283 282.8,350.2 199.9,350.2 117,350.2 49.8,283 49.8,200.1 49.7,117.2 116.9,50 199.9,50 282.8,50 350,117.2 350,200.1"
   id="path4" />
	<g
   id="g48">
		<path
   class="st1"
   d="m 345.7,200.1 c 0,80.5 -65.3,145.8 -145.8,145.8 -80.5,0 -145.8,-65.3 -145.8,-145.8 0,-80.5 65.3,-145.8 145.8,-145.8 80.5,0 145.8,65.3 145.8,145.8"
   id="path6" />
		<g
   id="g46">
			<path
   class="st2"
   d="m 324.2,200.1 c 0,68.6 -55.6,124.4 -124.4,124.4 -68.6,0 -124.4,-55.6 -124.4,-124.4 0,-68.6 55.6,-124.4 124.4,-124.4 68.8,0 124.4,55.8 124.4,124.4"
   id="path8" />
			<path
   class="st3"
   d="m 199.9,75.7 c -68.5,0 -124.4,55.8 -124.4,124.4 0,68.6 55.8,124.4 124.4,124.4 68.6,0 124.4,-55.8 124.4,-124.4 C 324.2,131.6 268.4,75.7 199.9,75.7 M 82.7,203.8 h 22.9 v -7.3 H 82.7 c 0.1,-2.7 0.2,-5.5 0.5,-8.2 8.1,-40.9 57.3,-72.3 116.6,-72.3 59.3,0 108.5,31.5 116.6,72.3 0.3,2.7 0.4,5.5 0.5,8.2 h -23 v 7.3 h 22.9 c -0.1,2.7 -0.2,5.5 -0.5,8.2 -8.1,40.8 -57.4,72.3 -116.6,72.3 -59.2,0 -108.4,-31.5 -116.5,-72.3 -0.2,-2.7 -0.3,-5.5 -0.5,-8.2 M 199.9,82.9 c 49.6,0 92.2,31 109.2,74.7 -20.8,-28.5 -61.9,-48 -109.2,-48 -47.3,0 -88.4,19.4 -109.2,48 17,-43.6 59.5,-74.7 109.2,-74.7 m 0,234.5 c -49.6,0 -92.2,-31 -109.2,-74.7 20.8,28.5 61.9,48 109.2,48 47.3,0 88.4,-19.4 109.2,-48 -17.1,43.5 -59.6,74.7 -109.2,74.7"
   id="path10" />
			<g
   id="g44">
				<g
   id="g26">
					<rect
   x="147.3"
   y="203.39999"
   class="st3"
   width="8.6999998"
   height="39.5"
   id="rect12" />
					<path
   class="st3"
   d="m 181,203.4 h -0.3 c -2.4,0 -11.5,-0.1 -13.2,0 h -0.4 c -2.6,0 -4.4,1.2 -4.8,3.6 -0.1,0.4 -0.1,0.6 -0.1,0.6 0,0.1 -0.6,7.5 0.1,9.6 1.2,3.4 4,4.7 6.4,5.4 0.1,0 0.2,0.1 0.3,0.1 0.2,0 0.3,0.1 0.5,0.2 0.3,0.1 0.5,0.3 0.6,0.4 v 14.2 h -7.2 v 5.3 h 9.6 v 0 c 3.4,-0.1 5.6,-1.6 6.4,-4.1 0.2,-1.9 0.3,-15.2 0.1,-17.9 -0.1,-1 -0.5,-1.9 -1.5,-2.6 -0.4,-0.3 -0.8,-0.6 -1.4,-0.9 -0.5,-0.3 -1.1,-0.5 -1.6,-0.8 -2,-1 -4.4,-2.1 -4.4,-4.8 v -2.2 h 6.9 c 1.4,0 2.5,-0.7 3.3,-2 0.5,-1 0.7,-2 0.7,-2 0.1,-0.6 0,-1.2 0,-1.6 z"
   id="path14" />
					<path
   class="st3"
   d="m 221.3,203.4 c -1.9,0 -4.1,0.1 -5.7,0.5 -4.3,1 -6.4,3.9 -6.4,8.8 v 23.5 c 0,6 4.3,7.2 10.8,7.2 7.8,0 12.3,-2.7 12.3,-7.6 v -24.5 c -0.1,-7.9 -5.1,-7.9 -11,-7.9 m -3,8.9 c 0,-1 0.1,-1.8 0.3,-2.4 l 0.2,-0.1 c 0.4,-0.1 0.8,-0.1 1.2,-0.1 h 0.2 c 2.9,0 3.1,0.9 3.1,6.3 v 16.5 c 0,0.5 0,0.9 0,1.4 0,0.5 -0.1,0.9 -0.2,1.3 l -0.2,0.2 c -0.5,0.1 -1,0.1 -1.5,0.1 -1.1,0 -1.8,-0.2 -2.3,-0.7 -0.7,-0.7 -0.7,-1.9 -0.7,-3.4 v -16.7 c -0.1,0 -0.1,-1.8 -0.1,-2.4"
   id="path16" />
					<path
   class="st3"
   d="m 252.6,220.1 c -4.2,-15.3 -11,-16.9 -13.7,-16.9 -0.7,0 -1.1,0.1 -1.2,0.1 l -0.2,0.1 v 39.5 h 8.9 V 227 l 6.2,15.9 h 9.1 v -39.5 h -9.1 z"
   id="path18" />
					<path
   class="st3"
   d="m 136.6,203.4 h -22.2 -0.3 v 0.3 c 0,0 -0.2,4.7 5,5.8 V 243 h 9.2 v -16.8 h 7.6 c 4.1,0 6.4,-2.6 6.4,-7.3 v -1.4 c -0.1,-11.3 -0.5,-13.5 -5.7,-14.1 m -3.5,17.5 h -5 v -11.5 c 0,0 2.6,-0.1 3.1,0 1,0.1 1.8,0.5 1.8,1.7 0.1,0.4 0.1,9.8 0.1,9.8"
   id="path20" />
					<path
   class="st3"
   d="m 206.4,203.5 h -20.5 v 6.2 h 5.9 V 243 h 9.1 v -33.4 c 0.1,0 0.2,0 0.3,0 1.6,0 2.9,-0.5 3.9,-1.4 1.6,-1.7 1.5,-4.4 1.5,-4.5 z"
   id="path22" />
					<path
   class="st3"
   d="m 285.6,203.4 h -0.3 c -2.4,0 -11.5,-0.1 -13.2,0 h -0.4 c -2.6,0 -4.4,1.2 -4.8,3.6 -0.1,0.4 -0.1,0.6 -0.1,0.6 0,0.1 -0.6,7.5 0.1,9.6 1.2,3.4 4,4.7 6.4,5.4 0.1,0 0.2,0.1 0.3,0.1 0.2,0 0.3,0.1 0.5,0.2 0.3,0.1 0.5,0.3 0.6,0.4 v 14.2 h -7.2 v 5.3 h 9.6 v 0 c 3.4,-0.1 5.6,-1.6 6.4,-4.1 0.2,-1.9 0.3,-15.2 0.1,-17.9 -0.1,-1 -0.5,-1.9 -1.5,-2.6 -0.4,-0.3 -0.8,-0.6 -1.4,-0.9 -0.5,-0.3 -1.1,-0.5 -1.6,-0.8 -2,-1 -4.4,-2.1 -4.4,-4.8 v -2.2 h 6.9 c 1.4,0 2.5,-0.7 3.3,-2 0.5,-1 0.7,-2 0.7,-2 0.1,-0.6 0,-1.2 0,-1.6 z"
   id="path24" />
				</g>
				<g
   id="g42">
					<path
   class="st3"
   d="m 204.9,178.9 h 1.5 c 1.4,0 4,0.5 4,3.2 0,1.2 0.1,5.2 0.2,6.7 v 0.6 c 0,0.2 0.1,2.1 0.2,2.5 0.6,2.3 2.4,3.7 5.2,4 h 2.5 v -14 c 0,-1.2 -0.6,-2.8 -1.6,-4.1 l -0.2,-0.2 c 1.4,-1.6 1.9,-3.2 1.9,-5.6 v -1.4 c 0,-10.9 -0.4,-13.1 -5.5,-13.6 H 196 v 38.5 h 8.7 v -16.6 z m 0,-16 h 1.5 0.2 c 2.3,0 3.2,0 3.1,4.1 0,3.3 0,3.5 -0.1,5 v 0.3 c 0,0.5 -0.2,1 -0.5,1.3 -0.2,0.2 -0.4,0.3 -0.7,0.3 h -3.6 v -11 z"
   id="path28" />
					<polygon
   class="st3"
   points="250.8,195.3 259.4,195.3 259.4,156.8 250.8,156.8 "
   id="polygon30" />
					<path
   class="st3"
   d="m 177.1,195.4 h 8.8 v -32.5 c 0.1,0 0.2,0 0.3,0 1.6,0 2.8,-0.5 3.8,-1.4 1.6,-1.7 1.5,-4.2 1.5,-4.4 v -0.3 h -20.1 v 6.1 h 5.7 z"
   id="path32" />
					<path
   class="st3"
   d="m 269.7,195.4 h 8.8 v -32.5 c 0.1,0 0.2,0 0.3,0 1.6,0 2.8,-0.5 3.8,-1.4 1.6,-1.7 1.5,-4.2 1.5,-4.4 v -0.3 H 264 v 6.1 h 5.7 z"
   id="path34" />
					<polygon
   class="st3"
   points="157.5,179.8 163.8,179.8 163.8,171.4 157.5,171.4 157.5,162.8 166.7,162.8 166.7,156.8 149,156.8 148.8,195.3 166.7,195.3 166.7,189.2 157.5,189.2 "
   id="polygon36" />
					<path
   class="st3"
   d="m 137.8,156.8 h -22 v 0.2 c 0,0.1 -0.3,2.3 1.1,4 0.9,1.1 2.2,1.6 4.1,1.8 v 32.4 h 16.4 c 3.8,0 6.2,-3.2 6.2,-7.9 v -17.9 c 0,-9.8 0,-12.4 -5.8,-12.6 m -3.1,32.4 h -4.9 v -26.3 c 3.1,-0.1 3.7,0.1 3.8,0.2 1.1,0.4 1.1,2.5 1.1,2.6 0.2,3 0,21.1 0,23.5"
   id="path38" />
					<path
   class="st3"
   d="m 235.2,156.8 c -1.9,0 -4,0.1 -5.7,0.5 -4.3,1 -6.3,3.9 -6.3,8.6 v 23 c 0,5.9 4.3,7.1 10.7,7.1 7.7,0 12.2,-2.7 12.2,-7.4 v -24 c 0.1,-7.8 -5,-7.8 -10.9,-7.8 m -2.9,8.7 c 0,-1 0.1,-1.8 0.3,-2.4 l 0.2,-0.1 c 0.4,-0.1 0.8,-0.1 1.2,-0.1 h 0.2 c 2.9,0 3.1,0.9 3.1,6.2 v 16.2 c 0,0.5 0,0.9 0,1.4 0,0.5 -0.1,0.9 -0.2,1.3 l -0.2,0.1 c -0.5,0.1 -1,0.1 -1.5,0.1 -1.1,0 -1.8,-0.2 -2.3,-0.7 -0.7,-0.7 -0.7,-1.9 -0.7,-3.3 V 168 c -0.1,0 -0.1,-1.9 -0.1,-2.5"
   id="path40" />
				</g>
			</g>
		</g>
	</g>
</g>
</svg>
