<?xml version="1.0" encoding="UTF-8" standalone="no"?>
<!-- Generator: Adobe Illustrator 23.0.0, SVG Export Plug-In . SVG Version: 6.00 Build 0)  -->

<svg
   version="1.1"
   id="Layer_1"
   x="0px"
   y="0px"
   viewBox="0 0 280.70441 372.20001"
   xml:space="preserve"
   sodipodi:docname="hou.svg"
   width="280.70441"
   height="372.20001"
   inkscape:version="1.1.2 (b8e25be8, 2022-02-05)"
   xmlns:inkscape="http://www.inkscape.org/namespaces/inkscape"
   xmlns:sodipodi="http://sodipodi.sourceforge.net/DTD/sodipodi-0.dtd"
   xmlns="http://www.w3.org/2000/svg"
   xmlns:svg="http://www.w3.org/2000/svg"><defs
   id="defs13" /><sodipodi:namedview
   id="namedview11"
   pagecolor="#ffffff"
   bordercolor="#666666"
   borderopacity="1.0"
   inkscape:pageshadow="2"
   inkscape:pageopacity="0.0"
   inkscape:pagecheckerboard="0"
   showgrid="false"
   inkscape:zoom="1.535"
   inkscape:cx="138.43648"
   inkscape:cy="183.71336"
   inkscape:window-width="1296"
   inkscape:window-height="969"
   inkscape:window-x="0"
   inkscape:window-y="25"
   inkscape:window-maximized="0"
   inkscape:current-layer="Layer_1" />
<style
   type="text/css"
   id="style2">
	.st0{fill:#061922;}
	.st1{fill:#CE1141;}
</style>
<g
   id="g8"
   transform="translate(-61.295578,-16.5)">
	<path
   class="st0"
   d="m 249.8,189.4 0.4,-33.3 c 0,-15.6 -16.3,-18.2 -28.3,-18.1 8,-2.7 17.7,-7.2 24.7,-14.8 7.4,-6.8 12.6,-16.4 11.7,-29.8 -1.5,-22.6 -29.8,-33.8 -76.6,-29.3 -0.8,0.1 -1.5,0.2 -2.3,0.2 -2.2,-16.7 -5.6,-32.9 -10.8,-47.8 l -2.3,2.3 c -6.2,19.3 -9.9,34.7 -12.1,49 C 126.3,72.6 106.7,79 106.7,79 l -2.3,2.3 c 0,0 22.6,-2 48.3,-1.7 -2.9,29.3 0.1,57.1 0,109.6 -41.6,-1.2 -78.1,5.7 -87,16.9 -2.9,2.4 -4.5,5.1 -4.4,7.9 0.5,12.7 38.3,24.4 91.4,28.9 l 2.3,72.2 2.3,-2.3 3.7,-49 c 0,-0.8 0.1,-1.5 0.3,-2.1 1.1,0.2 2.2,1.6 2.2,4.1 l 1.6,64.5 2.3,-2.3 4,-52.5 c 0,-1.2 0.1,-2.1 0.3,-2.9 1.1,0.2 2.2,1.8 2.1,4.8 l 1.8,67.2 2.3,-2.3 3.2,-97.8 c 6.1,0.2 12.3,0.3 18.7,0.3 6.7,0 13.3,-0.1 19.8,-0.3 l 3.2,102 2.3,-2.3 2.7,-53.4 c 0,-1.1 0.1,-2 0.3,-2.7 1,0.2 2,1.8 2,4.6 l 2.8,74.9 2.3,-2.3 2.8,-64.7 c 0,-0.9 0.2,-1.7 0.4,-2.3 1.3,0 2.7,1.6 2.7,4.7 l 2.3,85.7 2.3,-2.3 3.4,-143.6 c 45.4,-4 79.9,-13.1 88.5,-23.7 2.8,-2.4 4.4,-4.9 4.4,-7.4 -0.6,-13.8 -42.7,-24.6 -92.2,-22.3 m -97.5,38.5 c -36.4,-3.5 -61,-10.9 -61,-20.2 0,-0.7 0.2,-1.3 0.6,-2 8.5,-6 34.7,-9.8 60.9,-13.7 0,10.3 -0.2,21.5 -0.5,33.8 z m 74.2,-125.4 c 1.4,10.3 -1.6,18.1 -6.9,24 -9.5,8.6 -24.4,12.5 -36.5,14.3 0.2,-19.4 -0.1,-39.6 -1.8,-59.4 23.4,2.5 43.5,8.4 45.2,21.1 m -6.9,127.4 c -5.7,0.2 -11.5,0.3 -17.5,0.3 -7,0 -13.9,-0.1 -20.5,-0.4 l 0.3,-8.3 c -0.6,-21 0.7,-47.4 1.1,-75.6 17.1,2 37.6,6.8 37.3,18.8 z m 90.6,-16.2 c -8.5,6.7 -31,11.9 -60.8,14.5 l 0.4,-35.8 c 34.1,4.4 61.8,9.4 61.8,17.6 0,1.2 -0.5,2.5 -1.4,3.7"
   id="path4" />
	<path
   class="st1"
   d="m 342,211.9 c -0.6,-14 -42.7,-24.8 -92.2,-22.4 l 0.4,-33.3 c -0.1,-20.6 -28.3,-18.6 -37.8,-17.3 11.1,-2 48.2,-11.3 45.9,-45.3 -1.5,-22.6 -29.8,-33.8 -76.6,-29.3 -0.8,0.1 -1.5,0.2 -2.3,0.2 -2.2,-16.7 -5.6,-32.9 -10.8,-47.8 -6.5,20.2 -10.3,36.1 -12.4,50.9 -29,4.8 -49.5,11.6 -49.5,11.6 0,0 22.6,-2 48.3,-1.7 -2.9,29.7 0.1,57.9 0,112 -49.2,-1.7 -91.9,7.8 -91.4,22.4 0.4,12.7 38.3,24.4 91.4,28.9 l 2.3,72.2 3.7,-49 c 0.1,-6.1 4.7,-5.5 4.7,-0.3 l 1.7,64.5 4,-52.5 c -0.1,-7.1 4.9,-6.7 4.7,-0.4 l 1.8,67.2 3.2,-100.2 c 6.8,0.2 13.8,0.4 20.9,0.4 6.7,0 13.3,-0.1 19.8,-0.3 l 3.2,102 2.7,-53.4 c 0,-6.8 4.6,-6.5 4.6,-0.4 l 2.8,74.9 2.8,-64.7 c 0.2,-6.4 5.3,-6.1 5.4,0 l 2.3,85.7 3.4,-145.6 v -0.1 c 54,-4.5 93,-16.2 93,-28.9 M 228.8,100.2 c 3.8,28.2 -25,37.5 -45.7,40.6 0.2,-20.3 -0.1,-41.4 -2,-62 24.4,2.4 45.9,8.2 47.7,21.4 M 91.3,207.7 c 0,-8.6 31.9,-13.2 63.8,-18 0,10.3 -0.2,21.5 -0.5,33.8 l 0.1,4.7 c -37.8,-3.5 -63.4,-11 -63.4,-20.5 m 90.3,22.1 0.3,-8.3 c -0.6,-21.7 0.8,-49 1.1,-78.1 17.4,1.8 39.9,6.5 39.5,19.1 l -0.6,67.4 c -6.4,0.2 -13,0.3 -19.8,0.3 -7,-0.1 -13.8,-0.2 -20.5,-0.4 m 67.8,-1.6 0.5,-38.4 c 35.1,4.5 64,9.6 64,17.9 0,9.5 -26.4,17.1 -64.5,20.5"
   id="path6" />
</g>
</svg>
