<?xml version="1.0" encoding="UTF-8" standalone="no"?>
<!-- Generator: Adobe Illustrator 28.3.0, SVG Export Plug-In . SVG Version: 6.00 Build 0)  -->

<svg
   version="1.1"
   id="Layer_1"
   x="0px"
   y="0px"
   viewBox="0 0 320 320"
   xml:space="preserve"
   sodipodi:docname="lac.svg"
   width="320"
   height="320"
   inkscape:version="1.1.2 (b8e25be8, 2022-02-05)"
   xmlns:inkscape="http://www.inkscape.org/namespaces/inkscape"
   xmlns:sodipodi="http://sodipodi.sourceforge.net/DTD/sodipodi-0.dtd"
   xmlns="http://www.w3.org/2000/svg"
   xmlns:svg="http://www.w3.org/2000/svg"><defs
   id="defs13" /><sodipodi:namedview
   id="namedview11"
   pagecolor="#ffffff"
   bordercolor="#666666"
   borderopacity="1.0"
   inkscape:pageshadow="2"
   inkscape:pageopacity="0.0"
   inkscape:pagecheckerboard="0"
   showgrid="false"
   inkscape:zoom="1.535"
   inkscape:cx="159.93485"
   inkscape:cy="159.60912"
   inkscape:window-width="1296"
   inkscape:window-height="969"
   inkscape:window-x="0"
   inkscape:window-y="25"
   inkscape:window-maximized="0"
   inkscape:current-layer="Layer_1" />
<style
   type="text/css"
   id="style2">
	.st0{fill:#FFFFFF;}
	.st1{fill:#12173F;}
</style>
<g
   id="g8"
   transform="translate(-40,-40.5)">
	<path
   class="st0"
   d="m 360,200.5 c 0,88.4 -71.7,160 -160,160 -88.3,0 -160,-71.7 -160,-160 0,-88.3 71.7,-160 160,-160 88.3,0 160,71.6 160,160"
   id="path4" />
	<path
   class="st1"
   d="m 84.4,189.9 -30.7,4.8 C 56.7,116.4 121.1,54 200.1,54 v 0 0.8 47.5 0 14.2 0 7.8 0 8 l 0.7,0.2 2.2,-8.3 h 38.3 l 0.3,1 c -0.4,2.8 -0.2,11.2 13.9,17.2 l 0.4,1.1 -55.8,-1.4 -55.8,1.4 0.4,-1.1 c 14,-6 14.2,-14.4 13.9,-17.2 l 0.3,-1 h 38.3 l -2,-7.6 -27.9,0.9 0.2,-0.7 c 8.3,-4.7 8.6,-11.3 8.4,-13.7 l 0.3,-0.9 h 15.2 L 187,85.1 C 132.5,91.2 89.4,135 84.4,189.9 m 214.6,-50.3 -4.5,13.6 1,2 H 336 l 1.7,-5.1 C 317.9,95.8 266.7,56.5 206,54.1 l 4.8,30.8 c 37.4,3.4 69.6,24.4 88.2,54.7 m -3.5,106.2 -1,2 4.5,13.6 c -18.7,30.3 -50.8,51.3 -88.1,54.8 l -4.8,30.8 c 60.6,-2.5 111.7,-41.7 131.6,-96.1 l -1.7,-5.1 z m -37,-94.5 -0.4,-1.2 h -58 -58 l -0.4,1.2 c -0.1,3.5 -1.7,14.5 -16.9,29.6 l -0.4,1.3 c 8.5,-3.7 16.1,-6.7 23.3,-9.4 8.8,-3.3 17,-5.9 25.1,-8.1 4.4,-1.2 8.8,-2.2 13,-3.1 4.5,-0.9 9,-1.7 13.3,-2.3 l 0.9,-0.1 0.9,0.1 c 3.7,0.5 7.5,1.1 11.4,1.9 3.6,0.7 7.4,1.6 11.2,2.6 6.9,1.8 14,4 21.8,6.7 10.4,3.7 20.7,7.9 30.6,12.2 l -0.6,-1.8 c -15.1,-15.1 -16.8,-26.1 -16.8,-29.6 m -25.9,-34.4 c -8.3,-4.7 -8.6,-11.3 -8.4,-13.7 l -0.3,-0.9 h -15.2 l -3.7,14.4 27.9,0.9 z M 226,269.1 c 0.1,0.2 0.2,0.3 0.4,0.5 v 0 0 c 0.3,0.4 0.8,0.8 1.3,1.1 0.5,0.3 1.2,0.7 2,1.1 v 0 0 c 1.4,0.6 3.1,1.2 5.3,1.7 4,1 8.5,1.5 12.5,1.9 1.1,0.1 2.2,0.2 3.3,0.3 1.8,-5.2 4,-10.3 6.6,-15.5 -4.7,2.1 -9.7,3.9 -15,5.4 -6.7,2 -12.5,3 -16.4,3.5 m -60.8,4.4 c 2.2,-0.5 3.9,-1.1 5.3,-1.7 v 0 c 0.8,-0.3 1.4,-0.7 2,-1.1 0.5,-0.4 1,-0.8 1.3,-1.1 v 0 0 c 0.1,-0.2 0.3,-0.3 0.4,-0.5 -3.9,-0.5 -9.7,-1.5 -16.4,-3.4 -5.3,-1.5 -10.3,-3.3 -15,-5.4 2.5,5.1 4.8,10.3 6.6,15.5 1.1,-0.1 2.2,-0.2 3.3,-0.3 3.9,-0.5 8.5,-1 12.5,-2 m 181.3,-73 v 0.1 5.7 l -30.7,4.8 -32.1,5.1 c -6.9,11.2 -14.3,22.3 -20.6,33.5 -0.8,0.5 -1.5,0.9 -2.3,1.4 -10.2,5.8 -21.6,9.3 -34.1,10.4 1.1,-2.7 2.8,-5.3 4.5,-7.9 0.9,-1.4 2,-2.9 3.3,-4.6 1.1,-1.5 2.2,-3 3.5,-4.6 3.2,-4.1 6.6,-8.4 9.9,-12.4 1.6,-2 3.3,-4.1 4.9,-6.1 l 3.7,-4.7 c 0.2,-0.2 0.3,-0.4 0.5,-0.6 1.1,-1.4 2.1,-2.8 3.1,-4.2 1.1,-1.5 2.3,-3.2 3.4,-4.9 0.3,-0.5 0.7,-1.1 1,-1.6 0.2,-0.3 0.4,-0.6 0.6,-0.9 v 0 c 0,0 0,0 0,0 l -6.2,-1.8 c 0,0 0,0.1 -0.1,0.1 -0.3,0.5 -0.6,1 -1,1.5 -0.9,1.4 -2,2.9 -3.3,4.7 -1.8,2.4 -4.3,5.5 -6.9,8.6 -0.1,0.2 -0.3,0.3 -0.4,0.5 v 0 c -3.3,3.8 -6.8,7.6 -10.3,11.2 -2,2.1 -4,4.3 -6,6.4 -2.5,2.7 -5.3,5.9 -7.9,9.3 -1.3,1.6 -2.5,3.4 -3.6,5.1 -0.9,1.5 -2.1,3.5 -2.9,5.7 -0.6,1.6 -1.4,4 -1.3,6.9 0,2.7 1.2,5.6 3.1,7.6 1,1.2 2.3,2.1 3.3,2.8 v 0 0 c 1.3,0.8 2.5,1.4 3.7,1.9 2.2,0.9 4.6,1.6 7.5,2.1 2.5,0.5 5,0.7 7.3,0.9 2.5,0.2 5,0.2 7.1,0.3 0.1,0 0.2,0 0.3,0 0.5,0 0.9,0 1.4,0 -0.4,1.4 -0.7,2.8 -1,4.2 0,0 0,0 0,0 0,0 0,0 -0.1,0 l -21.5,7.7 -13.3,5 -9.2,-95.6 -0.8,-8.7 -1.7,-17.5 -1,0.3 v 17.2 5 2.3 104.8 38.9 0.8 C 119.4,347.2 53.8,281.6 53.8,200.8 v 0 -0.1 h 32.3 54 8.5 l 0.3,-0.9 -14,-3.9 -13.2,-3.6 0.5,-1.4 c 24.1,-10.7 50.4,-21 78.2,-24.8 27.2,3.6 53.5,14.5 78.3,25.2 l 0.3,1 -13.2,3.6 -14,3.9 0.3,0.9 h 8.5 54 31.9 z m -157.1,115.7 -2.6,-16.8 -12.7,-4.7 -21.4,-7.7 c 0,0 -0.1,0 -0.1,0 0,0 0,0 0,0 v 0 0 c -0.3,-1.4 -0.6,-2.8 -1,-4.2 0.5,0 0.9,0 1.4,0 0.1,0 0.2,0 0.3,0 2.1,0 4.6,0 7.1,-0.3 2.3,-0.2 4.8,-0.4 7.3,-0.9 2.9,-0.5 5.2,-1.2 7.5,-2.1 1.2,-0.5 2.4,-1.1 3.7,-1.9 v 0 0 c 1.1,-0.7 2.3,-1.6 3.3,-2.8 1.9,-2.1 3,-4.9 3.1,-7.6 0,-1.4 0,-3.5 -1.3,-6.9 -0.9,-2.2 -2,-4.2 -2.9,-5.7 -1.1,-1.7 -2.3,-3.5 -3.6,-5.1 -2.6,-3.4 -5.5,-6.6 -7.9,-9.3 -2,-2.2 -4,-4.3 -6,-6.4 -3.4,-3.7 -7,-7.4 -10.3,-11.2 v 0 c -0.1,-0.2 -0.3,-0.3 -0.4,-0.5 -2.7,-3.1 -5.1,-6.2 -7,-8.6 -1.3,-1.8 -2.4,-3.3 -3.3,-4.7 -0.3,-0.5 -0.6,-1 -0.9,-1.5 0,0 0,-0.1 -0.1,-0.1 l -6.2,1.8 c 0,0 0,0 0,0 v 0 c 0.2,0.3 0.4,0.6 0.6,0.9 0.3,0.5 0.7,1.1 1,1.6 1.1,1.7 2.3,3.4 3.4,4.9 1,1.4 2.1,2.8 3.1,4.2 0.1,0.2 0.3,0.4 0.4,0.6 l 3.7,4.7 c 1.6,2 3.3,4.1 4.9,6.1 3.3,4.1 6.7,8.3 9.9,12.4 1.3,1.6 2.4,3.2 3.5,4.6 1.3,1.8 2.3,3.2 3.3,4.6 1.7,2.5 3.3,5.2 4.5,7.9 -12.4,-1.1 -23.9,-4.6 -34,-10.4 -0.8,-0.4 -1.6,-0.9 -2.3,-1.4 -6.4,-11.2 -13.7,-22.3 -20.6,-33.5 l -32.2,-5.1 c 4.9,55.7 49.2,100 104.8,105.1 m 10.7,-8.8"
   id="path6" />
</g>
</svg>
