<?xml version="1.0" encoding="UTF-8" standalone="no"?>
<!-- Generator: Adobe Illustrator 22.0.1, SVG Export Plug-In . SVG Version: 6.00 Build 0)  -->

<svg
   version="1.1"
   id="Layer_1"
   x="0px"
   y="0px"
   viewBox="0 0 303.40082 285.53687"
   xml:space="preserve"
   sodipodi:docname="mem.svg"
   width="303.40082"
   height="285.53687"
   inkscape:version="1.1.2 (b8e25be8, 2022-02-05)"
   xmlns:inkscape="http://www.inkscape.org/namespaces/inkscape"
   xmlns:sodipodi="http://sodipodi.sourceforge.net/DTD/sodipodi-0.dtd"
   xmlns="http://www.w3.org/2000/svg"
   xmlns:svg="http://www.w3.org/2000/svg"><defs
   id="defs27" /><sodipodi:namedview
   id="namedview25"
   pagecolor="#ffffff"
   bordercolor="#666666"
   borderopacity="1.0"
   inkscape:pageshadow="2"
   inkscape:pageopacity="0.0"
   inkscape:pagecheckerboard="0"
   showgrid="false"
   inkscape:zoom="1.535"
   inkscape:cx="151.4658"
   inkscape:cy="136.15635"
   inkscape:window-width="1296"
   inkscape:window-height="969"
   inkscape:window-x="0"
   inkscape:window-y="25"
   inkscape:window-maximized="0"
   inkscape:current-layer="Layer_1" />
<style
   type="text/css"
   id="style2">
	.st0{fill:#707271;}
	.st1{fill:#12173F;}
	.st2{fill:#5D76A9;}
	.st3{fill:#FFBB22;}
</style>
<g
   id="g22"
   transform="translate(-47.9,-63.563122)">
	<path
   class="st0"
   d="m 328.9,129.2 c 3.7,-7 5.4,-13.9 5.4,-20.6 0,-15.1 -8.5,-28.8 -20.4,-36.9 -16.6,-11.2 -41.4,-12.9 -58.9,8.2 -25.6,-3.5 -47.1,3.5 -55.3,7 -8.2,-3.3 -29.7,-10.4 -55.3,-7 -17.6,-21 -42.5,-19.4 -59,-8.2 C 73.5,79.8 65,93.4 65,108.6 c 0,6.7 1.7,13.6 5.4,20.6 -13.2,19.1 -22.5,41.8 -22.5,64.9 0,27.8 11.9,42.2 16.4,48.4 0,0 1.9,-1.9 3.6,-3.6 12.6,32 34.2,49.3 60.2,65 0,0 0.6,-3.1 1,-6 28,24.3 41.3,18.3 70.5,51.2 29,-32.9 42.8,-27.1 70.5,-51.2 0.5,2.9 1,6 1,6 11.6,-7 44.3,-24.6 60.2,-65 1.6,1.6 3.6,3.6 3.6,3.6 2.8,-3.8 16.4,-19 16.4,-48.4 0.1,-23 -9,-45.8 -22.4,-64.9"
   id="path4" />
	<path
   class="st1"
   d="M 320.9,129.6 C 347.7,88.6 287,45.9 257.7,87.2 228.1,82 203,92.7 199.7,94.3 196.4,92.8 171.3,81.9 141.7,87.2 112.4,45.9 51.7,88.6 78.5,129.6 48,171.4 51,212.7 65.2,232.1 l 5.8,-5.8 c 0,0 8.3,40.3 52.2,66.8 l 1.6,-8.7 c 27,28.9 51.7,28.2 74.9,54.6 23.2,-26.4 47.9,-25.7 74.9,-54.6 l 1.6,8.7 c 43.9,-26.5 52.2,-66.8 52.2,-66.8 l 5.8,5.8 c 14.2,-19.5 17.2,-60.7 -13.3,-102.5"
   id="path6" />
	<path
   class="st2"
   d="m 200,283 c 0,0 -21,0.3 -24.2,2.3 0,0 -3.6,6.3 24.2,6.2 26.5,-0.1 22.6,-5 22.8,-5.6 -0.2,-0.2 -9,-2.9 -22.8,-2.9"
   id="path8" />
	<path
   class="st2"
   d="m 181.7,258.5 c 0,0 3.2,-9.5 6.8,-6.5 4.9,4.2 11.2,12.7 11.2,13.5 v 11.3 l -7.7,0.4 c -4.4,0.1 -18.7,3.5 -18.7,3.5 -19.6,-48.5 -8.8,-85.1 -3.5,-98.3 -19.4,4.2 -22.6,-19 -22.6,-19 2,-0.4 5,0.5 8.4,2.1 5.1,2.5 11.3,6.7 16.2,10.5 v 0 c 1.4,1.1 2.8,2.2 3.9,3.1 13.2,11.1 23.9,8.9 23.9,8.9 v 47.4 c 0.1,0 -38.4,-2.9 -17.9,23.1"
   id="path10" />
	<path
   class="st2"
   d="m 217.8,258.5 c 24.5,-24.9 -15.5,-23.4 -18,-23 4.1,0.2 35.1,0.4 18,23"
   id="path12" />
	<path
   class="st2"
   d="m 234.1,183.3 c 22.1,59.4 -5.9,97.6 -6.1,97.8 17.3,-45.4 6.2,-83.2 -1.4,-97.3 -3.9,0.4 -8.6,0.2 -8.6,0.2 0,0 5.9,-3.6 9.6,-7 0.3,-0.3 0.6,-0.5 0.9,-0.8 3.1,-2.8 9.1,-7.7 16.5,-10.6 v 0 c 2.7,-1 5.5,-1.8 8.5,-2.1 0,-0.1 -2.1,19.6 -19.4,19.8"
   id="path14" />
	<path
   class="st2"
   d="m 269,106.4 c 0,0 9,-22.5 36.6,-17 0,0 -25.3,-16.7 -42.9,13.4 0,0 -25.2,-11.8 -62.9,4.5 0,0 -35.4,-12.5 -62.3,-5.4 0,0 -15.7,-27.2 -37.8,-16 -22.1,11.2 -10.7,37.1 -6.9,43.8 0,0 -36.7,37.3 -22.9,83.4 l 7.3,-9.2 c 0,0 10.5,50.3 37.7,66.1 l 1.6,-12.4 c 0,0 28.4,34.2 61.7,48.8 3.1,1.5 20.9,10.3 21.3,14.6 v -23.9 c 0,0 -23.1,1.9 -29.2,-8.8 -4.2,-7.2 -30.8,-54.7 -17.6,-104.4 0,0 -12.8,-1.9 -15.2,-23.5 0,0 -9.5,-4.7 -21.4,-3.7 0,0 21.2,-6.7 41,1 19.9,7.7 25.1,27.2 38.7,18.6 l 3.7,-55.1 4.2,55.3 c 13.4,8.7 18.8,-11 38.7,-18.6 19.9,-7.7 41,-1 41,-1 0,0 -8.5,-6 -22.1,-8.7 -11.3,-2.3 -28.1,5 -28.1,5 0,0 2.3,-15.6 9.9,-24 6.6,-7.2 21.4,-8.8 25.9,-22.8 z M 97.6,125.5 c -0.8,-7.5 8.7,-15 8.7,-15 -3.9,-4 -10.8,-0.6 -10.8,-0.6 6.2,-12.1 20.1,-6.2 20.1,-6.2 -5.2,-6.5 -16.4,-6 -16.4,-6 13.8,-13.7 30.5,7.3 30.5,7.3 -14.9,3.3 -32.1,20.5 -32.1,20.5 z"
   id="path16" />
	<path
   class="st3"
   d="m 171.9,176 c -2.1,-0.7 -5.6,1.5 -7.6,5.3 -6.6,-1.9 -8.9,-9 -8.6,-15.8 v 0 c 5.1,2.5 11.2,6.7 16.2,10.5"
   id="path18" />
	<path
   class="st3"
   d="m 236.6,181.4 c -2.1,-4 -5.8,-6.3 -7.9,-5.2 3.1,-2.8 9.1,-7.7 16.5,-10.6 v 0 c 0.2,6.7 -2.2,13.8 -8.6,15.8"
   id="path20" />
</g>
</svg>
