<?xml version="1.0" encoding="UTF-8" standalone="no"?>
<!-- Generator: Adobe Illustrator 21.0.0, SVG Export Plug-In . SVG Version: 6.00 Build 0)  -->

<svg
   version="1.1"
   id="Layer_2"
   x="0px"
   y="0px"
   viewBox="0 0 309.42111 324.92313"
   xml:space="preserve"
   sodipodi:docname="mia.svg"
   width="309.42111"
   height="324.92313"
   inkscape:version="1.1.2 (b8e25be8, 2022-02-05)"
   xmlns:inkscape="http://www.inkscape.org/namespaces/inkscape"
   xmlns:sodipodi="http://sodipodi.sourceforge.net/DTD/sodipodi-0.dtd"
   xmlns="http://www.w3.org/2000/svg"
   xmlns:svg="http://www.w3.org/2000/svg"><defs
   id="defs36" /><sodipodi:namedview
   id="namedview34"
   pagecolor="#ffffff"
   bordercolor="#666666"
   borderopacity="1.0"
   inkscape:pageshadow="2"
   inkscape:pageopacity="0.0"
   inkscape:pagecheckerboard="0"
   showgrid="false"
   inkscape:zoom="1.535"
   inkscape:cx="154.72313"
   inkscape:cy="181.10749"
   inkscape:window-width="1296"
   inkscape:window-height="969"
   inkscape:window-x="0"
   inkscape:window-y="25"
   inkscape:window-maximized="0"
   inkscape:current-layer="Layer_2" />
<style
   type="text/css"
   id="style2">
	.st0{fill:#961A31;}
	.st1{fill:#F9A11E;}
	.st2{fill:#FFFFFF;}
</style>
<g
   id="Layer_2_1_"
   transform="translate(-45.220263,-18.77686)">
	<path
   d="m 347.1,124 c -11.8,-13 -37.9,-23.6 -71.5,-30 0.2,-3.9 2.5,-5.5 6.7,-8.4 2.1,-1.5 4.6,-3.3 7.2,-5.6 10.9,-10.3 -1.9,-26 -2.4,-26.8 l -7,-8.6 1.7,10.9 c 1.1,7.4 -1.6,10.1 -9.8,15.8 -1,0.7 -2,1.5 -2.7,2.3 0.4,-5 0.6,-10.6 -1.1,-17.6 -1.7,-7 -5.1,-9.9 -5.1,-9.9 l -0.9,10.1 c 0,0.1 -0.7,7.9 -11.2,17.4 0.9,-1 1.8,-2 2.5,-3.2 5.1,-7.4 3.6,-16 2,-25.8 l -0.4,-2 c -1.8,-10.2 1,-16.6 2.8,-17.8 1.8,-2.1 5.1,-5.6 5.1,-5.6 0,0 -1.8,-0.8 -6.9,-0.2 -6.5,0.9 -17.6,4.8 -17.3,13.8 0.1,3.9 1.4,7.7 2.5,11 1.2,3.5 2.3,6.9 1.3,8.6 -0.8,1.4 -3.3,2.4 -7.1,3.2 -15.4,2.8 -27.2,10 -33.3,20.4 -2,3.4 -3.3,7.1 -4,10.9 -38.3,0.1 -74.6,4.9 -102.7,13.6 -31.5,9.8 -48.9,23.1 -50.2,38.4 -0.7,8.1 2.9,19.7 23.2,31 l -0.1,0.2 5.8,2.8 v 0 l 3.1,1.5 v 0 c 9.3,4.2 20.3,7.8 32.4,10.7 -4.4,2.4 -8.4,5.3 -11.9,8.5 -19.6,16.1 -30.9,40 -30.9,65.4 0,22.6 8.8,43.9 24.8,59.9 16,16 37.3,24.8 59.9,24.8 40.1,0 74.9,-28.4 82.9,-67.5 6.9,-20.5 6,-42.4 5.8,-50.7 -0.7,-18.8 8.6,-29.2 14.4,-33.9 26.8,-3.3 50.4,-9.2 68.1,-17.1 v 0 l 2.9,-1.4 v 0 l 6.1,-2.9 -0.2,-0.2 c 14.2,-7.9 22.1,-17.2 23,-27.1 0.4,-6.4 -2.1,-12.8 -7.5,-18.9 m -27.6,16.5 c 2.4,2.7 2.2,4.4 2.2,4.9 -0.3,3.1 -4.1,6.7 -10.5,10.1 v 0 c -13.5,7.1 -36.6,12.5 -64.2,15.2 1.2,-0.7 2.5,-1.5 4,-2 l 0.5,-0.2 c 7.9,-3.3 16.9,-6.9 17.3,-20 0.1,-2 0.2,-8.5 1.3,-10.8 1.5,-3 5.3,-7.4 8.6,-8.6 0.1,0 -5.6,-1.1 -5.6,-1.1 -0.3,0 -0.6,0 -0.8,-0.1 1.9,-1.4 3.3,-3 4.2,-4.7 22.4,4.7 37.5,11.1 43,17.3 m -241.8,3.2 c 0.9,-10.8 39.9,-25.1 102.8,-27.3 -5.9,4.4 -12.7,12 -14.5,24.4 l -0.7,4.6 c -0.4,2.9 -0.9,5.8 -2,8.7 -2.4,6.3 -9.3,11.6 -16.5,15.6 -25.4,-3.2 -46.5,-8.6 -58.9,-15.2 v 0 c -6.7,-3.7 -10.5,-7.6 -10.2,-10.8"
   id="path4" />
	<path
   class="st0"
   d="m 69.9,265.2 c 2.2,11.2 8.6,24.5 21.3,33.4 3.8,2.7 8,4.8 12.5,6.5 -2.7,-4.6 -6,-9.4 -9.2,-14.1 -6,-8.9 -12.4,-18.2 -16.3,-28.1 -4.1,-10.3 -5.2,-21 -3.4,-31.8 -3.3,8.7 -5,18.2 -5,28.2 -0.2,1.9 -0.1,3.8 0.1,5.9"
   id="path6" />
	<path
   class="st0"
   d="m 83.6,260.6 c 3.7,9.4 9.9,18.3 15.7,27.1 4.6,6.7 9,13.3 12.4,19.9 3.7,0.8 7.6,1.4 11.5,1.7 -4.1,-5.8 -7.6,-12.4 -10.6,-19.9 -11.7,-29.2 -10,-65.4 4.6,-86.3 7.5,-10.8 16.5,-18.1 28.2,-24.5 9.9,-5.5 16.2,-7.1 22.6,-10.9 6.9,-4.1 10.6,-11 6,-26.4 -1.3,-4.6 -1.6,-8.1 -1.3,-10.9 -1.6,3.1 -2.8,6.6 -3.3,10.7 v 0 c -0.7,4.4 -1,9.2 -2.9,14 -6.1,16 -35.6,24.8 -39.5,26 -11.2,3.3 -20.2,8.6 -27.2,14.8 C 79.3,214 75.7,241 83.6,260.6"
   id="path8" />
	<path
   class="st0"
   d="m 206.8,116.2 c 0.3,1 0.6,2 0.7,2.9 0.7,5.6 -0.9,10.1 -7.8,11.2 -7.1,1.1 -9.5,-5 -10,-10 -0.1,-1.8 0.1,-3.2 0.2,-4.1 -1.2,0 -2.3,0 -3.5,0.1 -2.2,1.3 -5.2,3.3 -8,6.1 -1.4,3.1 -3.1,7.2 -0.5,17 4.6,17.3 2.6,27.7 -11.2,33.7 -17.7,7.6 -29,12.1 -44.2,31.1 -7.3,9.1 -11.2,24.1 -11.8,39.2 -0.7,14.7 2.4,30.4 7.5,43.2 3.4,8.6 7.5,16.1 12.3,22.4 4.7,-0.2 9.6,-0.8 14.3,-1.9 -5.3,-6.1 -8.3,-13.7 -8.8,-22.1 -1.8,-28.1 13.3,-39.8 36.5,-58.5 l 10.4,-8.7 c 41.5,-35.2 29.4,-71 33.9,-101.6 -3.2,0.2 -6.6,0.1 -10,0"
   id="path10" />
	<path
   class="st0"
   d="m 223.4,116.8 c -1.3,6.1 -1.9,12.5 -2.2,19.1 -1.7,26.7 -0.8,56.8 -34.6,86.7 l -10.2,8.3 c -22.6,18.1 -35.5,29.4 -34.6,54 0.3,8.1 3.7,15.2 9.5,20.8 6.3,-1.9 12.6,-4.6 18.6,-8 29.4,-16.6 47.8,-41.6 54.9,-73.4 4.5,-20.2 4.4,-36.6 4.3,-49.8 0,-6.7 0.8,-19.8 0.8,-19.8 0.9,-8.3 2.2,-19.8 11.8,-35.1 0.3,-0.5 0.7,-1 0.9,-1.5 -6.1,-0.5 -12.5,-1 -19.2,-1.3"
   id="path12" />
	<path
   class="st0"
   d="m 233.3,202.5 v 0 0 c -0.9,4.8 -1.2,10.2 -1.8,15.5 -0.3,2 -0.6,4 -0.8,6 -0.1,0.6 -0.2,1.1 -0.4,1.6 -7.4,33.7 -26.6,59.8 -57.4,77.3 -5.3,3 -10.7,5.5 -16.1,7.4 9,6 19.6,7.8 26.9,6.8 27.7,-4.2 41.2,-22.2 47.7,-41.6 6.7,-19.8 6,-41 5.7,-49.7 -1.1,-29.3 21.5,-40.1 21.5,-40.1 -17.6,-1 -23.4,6.7 -25.3,16.8"
   id="path14" />
	<path
   class="st0"
   d="m 214.8,310.4 c -11.3,9.5 -23.5,11.5 -29.1,12.4 -10.9,1.7 -23.8,-0.9 -35.2,-9.9 -0.2,-0.2 -0.4,-0.3 -0.6,-0.5 -4.9,1.3 -9.8,2.1 -14.7,2.6 11.2,12 25.8,18.8 45.7,20.2 0.1,0 0.2,0 0.3,0 v 0 c 13.4,-5.3 25.1,-13.9 34,-25.1 -0.2,0.2 -0.2,0.2 -0.4,0.3"
   id="path16" />
	<path
   class="st0"
   d="m 111.8,330.5 c 0.2,-6.1 -1.5,-12.3 -4.4,-18.3 -6.8,-2 -13.4,-4.8 -19.8,-8.7 -3.6,-2.2 -6.9,-5.5 -9.7,-8.6 v 0 c 7.4,15.1 19.3,27.5 33.9,35.6 z"
   id="path18" />
	<path
   class="st0"
   d="m 168.2,339 c -11.1,-2.5 -20.5,-6.5 -28.7,-12.7 -4.3,-3.3 -8.1,-6.9 -11.6,-11 -4.5,-0.1 -8.9,-0.5 -13.3,-1.3 2.4,6.3 3.7,12.7 2.9,19.4 v 0 c 10.3,4.7 21.8,7.3 33.9,7.3 5.9,0 11.5,-0.7 17,-1.8 -0.1,0.1 -0.1,0.1 -0.2,0.1"
   id="path20" />
	<path
   class="st0"
   d="m 263.1,138.3 c -1.9,6.3 -8.2,5.6 -9.9,2.1 -2.9,-5.4 -1.8,-9.6 1.2,-12.5 3,-2.9 7.9,-4.4 12.6,-6.5 h 0.1 c -5.5,-0.9 -11.3,-1.8 -17.6,-2.5 -0.1,0.1 -0.2,0.2 -0.3,0.3 -0.6,0.7 -1.1,1.2 -1.7,1.9 -9.9,14.8 -11.1,25.8 -12.1,34.2 l -0.3,2.6 c -0.6,4.5 -0.6,10 -0.5,16.5 0,0.9 0,1.8 0,2.7 -0.1,2.2 -0.2,4.5 -0.3,6.7 0.1,0 0.1,0 0.1,0 0.1,-0.9 0.1,-1.2 0.1,-0.7 2.8,-8.8 7.9,-14.3 15.2,-17.2 7.8,-3.2 15.5,-6 15.9,-17.4 0.2,-4.7 0.5,-9.5 1.6,-11.9 2,-4.4 5.5,-5.6 5.5,-5.6 -3.6,-0.3 -7.7,1.3 -9.6,7.3"
   id="path22" />
	<path
   class="st1"
   d="m 272.6,93.4 c 0.6,-7.6 7.7,-9 14.7,-15.6 8.9,-8.5 -2.7,-22.6 -2.7,-22.6 1.5,9.5 -3,13.1 -11,18.8 -2.5,1.8 -4.4,4.3 -4.6,7.4 -0.3,3.5 -0.6,7.3 -1.3,11.2 1.6,0.3 3.2,0.6 4.9,0.8"
   id="path24" />
	<path
   class="st1"
   d="m 248,80.2 c -2.1,1.6 -4.2,3.3 -6,4.9 -1.3,1.3 -2.6,2.5 -3.8,3.8 7.8,0.7 15.4,1.6 22.8,2.6 4.6,-8.6 7,-18.2 4.2,-34.8 -0.1,0.1 -0.8,11.3 -17.2,23.5"
   id="path26" />
	<path
   class="st1"
   d="m 204.2,87.3 c 8.9,0.1 17.8,0.5 26.3,1 0.3,-0.3 0.6,-0.6 0.8,-0.8 5.8,-6.1 14.7,-11.4 19.4,-18.3 4.7,-7 2.9,-15.4 1.1,-25.7 -3.1,-17.7 4.5,-21 4.5,-21 0,0 -15,2 -14.7,10.7 0.4,11.6 12.4,22.5 -5.6,25.8 -19.8,3.6 -32.1,14.3 -34.8,28.3 1,0 1.9,0 3,0"
   id="path28" />
	<path
   class="st2"
   d="m 204.1,92 c -82.8,-0.8 -151.9,20.5 -154.3,47.8 -0.9,10.9 8.8,20.9 26.1,29.3 10.7,5.1 24.4,9.6 40.1,13 3.2,-1.4 6.4,-2.7 9.9,-3.7 2.7,-0.8 7.8,-2.5 13.4,-4.9 -23.2,-3.3 -41.9,-8.6 -53.6,-14.9 -8.6,-4.6 -13.1,-9.8 -12.6,-15.2 1.6,-18.2 59.6,-32.5 129.5,-31.8 69.9,0.7 125.3,16.1 123.7,34.3 -0.5,4.9 -5,9.7 -13,13.8 -14.6,7.7 -40.4,13.6 -71.8,16.4 -1.1,1.5 -2,3.2 -2.8,5 14.2,-5.4 30.7,2.6 30.7,2.6 0,0 1.1,0.5 1.9,0.9 20.8,-3.7 38.7,-9 52.1,-15.3 15.8,-7.5 25.5,-16.6 26.3,-26.5 2.5,-27.3 -62.8,-50 -145.6,-50.8"
   id="path30" />
</g>
</svg>
