<?xml version="1.0" encoding="UTF-8" standalone="no"?>
<!-- Generator: Adobe Illustrator 24.0.1, SVG Export Plug-In . SVG Version: 6.00 Build 0)  -->

<svg
   version="1.1"
   id="Layer_2_1_"
   x="0px"
   y="0px"
   viewBox="0 0 259.88513 344.89999"
   xml:space="preserve"
   sodipodi:docname="mil.svg"
   width="259.88513"
   height="344.89999"
   inkscape:version="1.1.2 (b8e25be8, 2022-02-05)"
   xmlns:inkscape="http://www.inkscape.org/namespaces/inkscape"
   xmlns:sodipodi="http://sodipodi.sourceforge.net/DTD/sodipodi-0.dtd"
   xmlns="http://www.w3.org/2000/svg"
   xmlns:svg="http://www.w3.org/2000/svg"><defs
   id="defs14" /><sodipodi:namedview
   id="namedview12"
   pagecolor="#ffffff"
   bordercolor="#666666"
   borderopacity="1.0"
   inkscape:pageshadow="2"
   inkscape:pageopacity="0.0"
   inkscape:pagecheckerboard="0"
   showgrid="false"
   inkscape:zoom="1.54"
   inkscape:cx="130.84416"
   inkscape:cy="172.72727"
   inkscape:window-width="1296"
   inkscape:window-height="838"
   inkscape:window-x="0"
   inkscape:window-y="33"
   inkscape:window-maximized="0"
   inkscape:current-layer="Layer_2_1_" />
<style
   type="text/css"
   id="style2">
	.st0{fill:#EDE0C5;}
	.st1{fill:#00471A;}
	.st2{fill:#FFFFFF;}
</style>
<g
   id="Layer_2_2_"
   transform="translate(-69.064208,-27.1)">
	<path
   class="st0"
   d="m 139,323.1 c -1.5,-1.3 -2.2,-3.3 -1.6,-5.3 l 17.9,-64.6 c 0.1,-0.3 0.3,-0.8 0.4,-1.1 l -8.3,-13.2 c -0.8,-1.2 -1,-2.7 -0.5,-4.1 l 1.2,-3.9 -11.4,-0.8 c -10.8,-0.8 -14.5,-2.2 -17.1,-3.6 -10.8,-5.9 -13.7,-22.9 -14.3,-28 l -0.8,-5.7 c -0.3,-2.4 0.3,-4.6 1.6,-6.2 1.1,-1.3 2.6,-2 4.2,-2.3 C 85.4,162 62.9,134.2 70.6,94.8 c 8.5,-43.5 43.6,-56.7 45,-57.3 0.5,-0.2 1.1,-0.3 1.7,-0.3 1.8,0 3.6,1 4.4,2.6 0.6,1.2 0.8,2.6 0.4,3.7 11.6,-9.9 22.6,-14.2 27.3,-15.7 0.5,-0.2 1,-0.3 1.5,-0.3 1.9,0 3.7,1.1 4.6,2.9 1.1,2.4 0.2,5.1 -1.9,6.3 C 143.1,43.2 133.9,52 127,62 c 8.4,-1.9 14.1,-2.3 16.1,-2.3 0.8,0 1,0 1,0 2.5,0.2 4.5,2 4.7,4.5 0.3,2.5 -1.4,4.7 -3.8,5.4 -0.1,0 -13.9,3.6 -29.1,14.5 -2.9,8.7 -4.2,17.9 -4.2,27.2 0.1,17.6 5.8,35.7 15.6,49.6 2.4,3.3 4.7,6.2 7.1,8.8 -1,-18.1 4.1,-46.4 36.8,-59.6 0.6,-0.3 1.3,-0.3 1.9,-0.3 1.8,0 3.7,1 4.5,2.7 1.2,2.4 0.3,5.2 -1.9,6.5 l -0.3,0.2 c -5.1,3.2 -9.4,7.6 -12.5,12.5 3.6,-1.1 6.6,-1.4 8.7,-1.7 l 0.3,-0.1 c 0.2,0 0.3,0 0.6,0 2,0 4,1.3 4.7,3.3 0.9,2.2 -0.1,4.7 -1.9,5.9 l -0.2,0.1 c -0.1,0 -0.2,0.1 -0.2,0.1 -10.4,6 -16.2,13.1 -17.2,21 -1.1,8.6 3.7,16.7 7.1,21.2 8.7,-10.2 14.4,-27.5 16,-34.2 0.5,-2.3 2.6,-3.8 4.8,-3.8 0.2,0 0.3,0 0.6,0 2.6,0.3 4.4,2.5 4.4,5 0.2,21.3 -5.5,35.9 -11.4,45.4 8.8,4.4 17.4,4.7 19.4,4.7 0.2,0 0.5,0 0.5,0 0.1,0 0.3,0 0.6,0 1.9,0 10.4,-0.3 19.4,-4.8 -5.9,-9.4 -11.6,-23.9 -11.6,-45.3 0,-2.6 1.9,-4.7 4.4,-5 0.2,0 0.3,0 0.6,0 2.3,0 4.3,1.5 4.8,3.8 1.6,6.6 7.4,24 16.2,34.1 3.3,-4.5 8.1,-12.7 7,-21.2 -1.1,-7.9 -6.9,-14.9 -17.3,-20.9 -0.1,0 -0.3,-0.2 -0.3,-0.2 -1.9,-1.3 -2.9,-3.7 -2,-5.9 0.8,-1.9 2.6,-3.3 4.7,-3.3 0.2,0 0.3,0 0.6,0 h 0.3 c 2,0.3 5.2,0.6 8.7,1.7 -3.2,-4.8 -7.5,-9.1 -12.6,-12.4 l -0.3,-0.2 c -2.3,-1.4 -3.1,-4.2 -1.9,-6.5 0.9,-1.7 2.6,-2.8 4.5,-2.8 0.6,0 1.3,0.1 1.9,0.3 32.7,13 38.1,41.3 37.1,59.4 2.5,-2.6 4.7,-5.5 7.1,-8.8 9.8,-13.9 15.4,-32.1 15.4,-49.7 0,-9.4 -1.5,-18.4 -4.4,-27.2 -15.4,-11 -29.1,-14.3 -29.2,-14.4 -2.5,-0.5 -4,-2.8 -3.8,-5.4 0.2,-2.5 2.2,-4.4 4.7,-4.6 0,0 0.3,0 1,0 1.9,0 7.6,0.2 16.1,2.2 -7,-10 -16.1,-18.7 -26.8,-25.1 -2.2,-1.3 -3.1,-4.1 -1.9,-6.3 0.9,-1.8 2.6,-3 4.5,-3 0.5,0 1,0.1 1.5,0.3 4.6,1.4 15.7,5.7 27.4,15.5 -0.3,-1.2 -0.2,-2.6 0.3,-3.7 0.9,-1.7 2.6,-2.6 4.4,-2.6 0.5,0 1.2,0.1 1.7,0.3 1.4,0.5 36.6,13.5 45.4,56.8 8,39.3 -14.4,67.3 -39.2,89.8 1.6,0.2 3.1,1 4.2,2.3 1.4,1.6 1.9,3.9 1.7,6.2 l -0.6,5.7 c -0.6,5.1 -3.3,22.2 -14.1,28.1 -2.6,1.4 -6.3,2.8 -17.1,3.7 l -11.5,0.9 1.2,3.9 c 0.4,1.4 0.2,2.9 -0.5,4.1 l -8.3,13.3 c 0.2,0.3 0.3,0.8 0.4,1.1 l 18.4,64.5 c 0.5,1.9 -0.1,4 -1.6,5.3 L 199.6,372 Z"
   id="path4" />
	<path
   class="st1"
   d="m 75.6,95.7 c 8.1,-41.1 41.9,-53.4 41.9,-53.4 -12.4,9.3 -25,26.4 -30.1,50.6 5.1,-6.3 9.8,-11 15.3,-14.9 13.7,-29.6 37,-41.5 48.4,-45.3 -14.9,9 -27.3,22.5 -34.8,38 17.2,-6.2 27.5,-5.7 27.5,-5.7 0,0 -15.4,3.8 -32.2,16.2 -3.2,9.5 -5.1,19.7 -5,30.3 0.1,18.7 6.1,37.9 16.6,52.5 5.9,8.2 11.5,13.9 18.5,19.2 -2.4,-5.9 -11.3,-50.9 31.3,-68.1 l -0.3,0.2 c -10,6.6 -17.4,16.7 -20.4,28.7 7.7,-7.5 16,-8.3 20.3,-8.8 -0.1,0 -0.2,0.1 -0.2,0.1 -39.5,22.9 -8,53.8 -8,53.8 12.5,-10.4 19.7,-34 21.2,-40.4 0.3,24.8 -8,39.6 -13.6,46.9 12.8,8.7 27.1,8.2 27.1,8.2 v 0 0 c 0,0 14.3,0.5 27,-8.2 -5.6,-7.2 -13.9,-22.1 -13.9,-46.8 1.6,6.5 8.9,29.8 21.4,40.2 0,0 31.3,-31 -8.3,-53.8 -0.1,0 -0.2,-0.1 -0.2,-0.1 4.3,0.5 12.6,1.3 20.3,8.7 -3.1,-11.9 -10.4,-22.1 -20.7,-28.5 l -0.3,-0.2 c 42.7,17 34,62.1 31.7,68 7.1,-5.3 12.7,-11 18.4,-19.3 10.3,-14.7 16.2,-33.9 16.2,-52.6 0,-10.7 -1.9,-20.8 -5.3,-30.2 C 269,68.8 253.5,65 253.5,65 c 0,0 10.4,-0.6 27.7,5.5 -7.6,-15.4 -20,-28.7 -35,-37.7 11.5,3.7 34.9,15.5 48.7,45 5.5,3.8 10.3,8.5 15.4,14.7 C 305.1,68.2 292.5,51 280,42 c 0,0 33.8,12.1 42.2,53.2 9.7,47.8 -28.5,77.8 -59.2,103.6 l 23.5,-9.7 c 1.6,-0.8 2.7,0.9 2.5,2.7 l -0.6,5.8 c -0.3,3.1 -2.6,19.5 -11.6,24.3 -1.9,1.1 -5.3,2.3 -15,3.1 l -17.6,1.2 3,9.9 -17.3,27.9 8.8,-9.4 18.4,64.5 -49.6,41.1 15.3,-70.5 -23.2,28.3 -23.2,-28.5 15.7,70.4 -49.9,-40.8 17.9,-64.6 8.9,9.4 -17.3,-27.8 2.9,-9.9 -17.8,-1.1 c -9.8,-0.8 -13.1,-1.9 -15,-3 -8.9,-4.8 -11.3,-21.1 -11.6,-24.3 l -0.8,-5.8 c -0.3,-1.8 0.9,-3.3 2.5,-2.7 l 23.6,9.5 C 104.6,173.5 66.2,143.5 75.6,95.7 m 223.3,50.8 c 0,0 19.5,-30.9 6,-48.1 -1.4,-1.7 -2.9,-3.3 -4.3,-5 5.6,19.7 -1.7,53.1 -1.7,53.1 m -199.4,0.6 c 0,0 -7.4,-33.3 -2,-52.9 -1.4,1.5 -2.9,3.1 -4.2,5 -13.3,17.1 6.2,47.9 6.2,47.9"
   id="path6" />
	<path
   class="st2"
   d="m 250.3,217.9 c 8.7,-0.8 18.7,-0.5 22.8,-2.8 6,-3.3 7.6,-17.8 7.6,-17.8 v 0 c -6.6,6.5 -20.8,16.8 -30.4,20.6 m -40.6,66 h -10.1 -10.1 l 4.8,6.6 h 5.3 5.3 z m 5.5,-56.4 c 2.5,2.4 6.9,4.6 12.2,0.5 2.8,-2.2 2.8,-5.4 2.6,-7.4 -0.2,-1 -1.3,-1.6 -2.2,-1.2 -4.7,2.2 -9.5,4.4 -12.1,5.5 -1,0.5 -1.3,1.7 -0.5,2.6 m -33.9,28.6 -2.8,12.6 7.1,9.4 h 7.4 l -6.9,-10.1 1.1,-6.2 c 3.1,3.3 7.6,5.4 12.5,5.4 4.9,0 9.4,-2.2 12.5,-5.5 l 1.1,6.2 -6.9,10.1 h 7.4 l 7,-9.5 -2.9,-12.6 c -6.7,-4.2 -8.2,-10.3 -8.2,-10.3 l -4.7,-15.3 -5.4,2.6 -5.4,-2.6 -4.6,15.3 c -0.1,0.2 -1.6,6.3 -8.3,10.5 m -9.7,-28 c 5.4,4.1 9.8,1.8 12.2,-0.5 0.9,-0.9 0.5,-2 -0.4,-2.6 -2.6,-1.2 -7.3,-3.3 -12.1,-5.5 -1,-0.4 -2,0.2 -2.2,1.2 -0.4,2.1 -0.3,5.3 2.5,7.4 m -53.7,-30.3 v 0 c 0,0 1.7,14.4 7.9,17.8 4.1,2.3 14.1,1.9 22.9,2.6 -9.8,-3.7 -24,-14 -30.8,-20.4"
   id="path8" />
</g>
</svg>
