<?xml version="1.0" encoding="UTF-8" standalone="no"?>
<!-- Generator: Adobe Illustrator 24.0.1, SVG Export Plug-In . SVG Version: 6.00 Build 0)  -->

<svg
   version="1.1"
   id="Layer_1"
   x="0px"
   y="0px"
   viewBox="0 0 349.29999 260.79999"
   xml:space="preserve"
   sodipodi:docname="no.svg"
   width="349.29999"
   height="260.79999"
   inkscape:version="1.1.2 (b8e25be8, 2022-02-05)"
   xmlns:inkscape="http://www.inkscape.org/namespaces/inkscape"
   xmlns:sodipodi="http://sodipodi.sourceforge.net/DTD/sodipodi-0.dtd"
   xmlns="http://www.w3.org/2000/svg"
   xmlns:svg="http://www.w3.org/2000/svg"><defs
   id="defs129" /><sodipodi:namedview
   id="namedview127"
   pagecolor="#ffffff"
   bordercolor="#666666"
   borderopacity="1.0"
   inkscape:pageshadow="2"
   inkscape:pageopacity="0.0"
   inkscape:pagecheckerboard="0"
   showgrid="false"
   inkscape:zoom="1.535"
   inkscape:cx="174.91857"
   inkscape:cy="130.29316"
   inkscape:window-width="1296"
   inkscape:window-height="969"
   inkscape:window-x="0"
   inkscape:window-y="25"
   inkscape:window-maximized="0"
   inkscape:current-layer="Layer_1" />
<style
   type="text/css"
   id="style2">
	.st0{fill:#B4975A;}
	.st1{fill:#0A2240;}
	.st2{fill:#CE0E2D;}
	.st3{fill:#FFFFFF;}
</style>
<g
   id="g124"
   transform="translate(-25,-70)">
	<path
   class="st0"
   d="m 372.3,169.8 1.1,0.4 v -19.7 c 0,-3.1 -0.5,-6.2 -1.6,-9.2 -1.1,-3 -2.6,-5.9 -4.6,-8.5 -1.8,-2.3 -3.9,-4.5 -6.2,-6.3 -2.1,-1.6 -4.3,-3 -6.7,-4.1 -1.5,-1 -4.5,-2.4 -12.6,-5.7 -6.9,-2.7 -18,-6.9 -32.4,-11.1 -13.1,-3.9 -30,-8.2 -48.7,-11.4 0,0 0,0 0,0 -0.1,-0.2 -12.7,-15.9 -31.6,-7.8 -0.6,0.3 -1.3,0.6 -1.9,0.9 -2.8,1.4 -5.3,2.6 -10.1,1.3 -2.8,-0.8 -6.4,-2.5 -5,-8.8 0.3,-1.4 1.4,-3.3 3.2,-4.3 1.2,-0.7 2.5,-0.9 3.9,-0.5 2.5,0.7 3.6,2.1 3.2,4.2 -0.1,0.8 -0.7,1.6 -1.5,1.9 -0.8,0.3 -1.6,0.1 -2.6,-0.5 -0.9,-0.6 -2.1,-0.4 -2.8,0.5 -0.6,0.9 -0.4,2.2 0.5,2.8 2.1,1.4 4.4,1.8 6.4,0.9 2,-0.8 3.5,-2.7 3.8,-4.9 0.3,-1.6 0.7,-6.8 -6,-8.7 -2.4,-0.7 -4.9,-0.4 -7,0.8 -2.4,1.4 -4.4,4.1 -5,6.9 0,0.1 0,0.2 0,0.2 -0.8,-1.1 -1.6,-2 -2,-2.4 l -6.5,-6.7 -6.5,6.7 c -0.4,0.4 -1.2,1.3 -2,2.4 0,-0.1 0,-0.2 0,-0.2 -0.6,-2.7 -2.6,-5.4 -5,-6.9 -2.2,-1.3 -4.6,-1.5 -7,-0.8 -6.7,2 -6.3,7.2 -6,8.7 0.4,2.1 1.9,4 3.8,4.9 2,0.9 4.3,0.5 6.4,-0.9 0.9,-0.6 1.1,-1.9 0.5,-2.8 -0.6,-0.9 -1.9,-1.1 -2.8,-0.5 -1,0.7 -1.8,0.8 -2.6,0.5 -0.7,-0.3 -1.3,-1.1 -1.5,-1.9 -0.4,-2.1 0.7,-3.5 3.2,-4.2 1.4,-0.4 2.7,-0.2 3.9,0.5 1.7,1 2.8,2.9 3.2,4.3 1.5,6.3 -2.1,8.1 -5,8.8 -4.8,1.3 -7.3,0.1 -10.1,-1.3 -0.6,-0.3 -1.3,-0.6 -1.9,-0.9 -18.9,-8.1 -31.5,7.6 -31.7,7.8 0,0 0,0.1 -0.1,0.1 -18,3.1 -34.3,7.2 -47,10.9 -24.4,7.2 -44.1,16.1 -44.9,16.5 l -2.6,1.2 v 0.4 c -1.1,0.2 -2.3,0.5 -3.4,1.1 -4.2,1.9 -8.3,4 -12.4,6 L 25,132 v 10.7 c 0,2.6 0.5,4.7 1.5,6.5 0.2,0.4 0.4,0.7 0.7,1 v 11.9 c -1.4,2.6 -2.1,5.3 -2.1,7.9 0,2.6 0.7,4.9 2.1,6.7 v 24.8 l 0.3,0.7 c 0.2,0.6 4.1,11.1 15.9,15.4 l -0.3,0.2 c 0,0 6.2,10 15.8,12.1 l -1.8,0.8 c 0,0 6.8,11 19.9,13.3 l -1.9,0.9 c 0,0 8.5,9.1 21.7,10.8 14,43.5 54.8,75.1 102.9,75.1 48.1,0 88.9,-31.6 102.9,-75.1 13.2,-1.7 21.7,-10.8 21.7,-10.8 l -1.9,-0.9 c 13.1,-2.3 19.9,-13.3 19.9,-13.3 l -1.8,-0.8 c 9.6,-2.1 15.8,-12.1 15.8,-12.1 l 0.6,-0.8 c 11,-4.7 17.4,-15.4 17.4,-25.5 v -12.6 c -0.3,-3.1 -1,-6.2 -2,-9.1 z M 253.8,93.2 C 246,92 238,91.1 229.8,90.5 c 0.2,-0.1 0.5,-0.2 0.7,-0.3 10.7,-4.6 18.9,-0.4 23.3,3 z m -85.3,-3 c 0.3,0.1 0.5,0.2 0.7,0.4 -8.2,0.6 -16.3,1.6 -24.1,2.8 4.5,-3.5 12.8,-7.8 23.4,-3.2 z"
   id="path4" />
	<g
   id="g122">
		<path
   class="st1"
   d="m 363.2,161.4 5.8,2.3 v -13.2 c 0,-2.6 -0.5,-5.2 -1.3,-7.7 -0.9,-2.6 -2.3,-5.1 -3.9,-7.3 -1.6,-2.1 -3.4,-3.9 -5.4,-5.5 -1.9,-1.5 -3.9,-2.7 -6.1,-3.7 -1.1,-0.8 -4.1,-2.3 -12.1,-5.4 -6.8,-2.7 -17.8,-6.8 -32,-11 -23.3,-7 -58.4,-15.2 -95,-15.7 -0.9,-2.5 -2.9,-4.4 -5.7,-5.1 -0.3,-4.8 -3.8,-8.5 -4.5,-9.3 l -3.4,-3.5 -3.4,3.5 c -0.7,0.7 -4.2,4.5 -4.5,9.3 -2.7,0.6 -4.8,2.5 -5.7,5 -36,0.6 -70.4,8.6 -93.3,15.4 -24.4,7.2 -44.3,16.3 -44.3,16.3 v 2.7 c 0,0 -0.3,-0.2 -0.5,-0.3 -0.7,-0.3 -1.4,-0.5 -2.2,-0.5 -1,0 -2.1,0.3 -3.3,0.8 -4.1,1.9 -8.2,3.9 -12.2,5.9 l -0.7,0.3 v 8.1 c 0,1.8 0.3,3.2 1,4.3 0.3,0.6 0.8,1.1 1.3,1.5 v 14.7 c -1.3,2.2 -2.1,4.6 -2.1,6.8 0,2.2 0.7,3.9 2.1,5 v 25.7 c 0,0 3.9,10.7 16.1,13.5 0.3,0.1 0.6,0.1 0.9,0.2 0,0 0,0 0.1,0 1.9,0.4 4,0.6 6.3,0.5 0,0 0,0 0,0 -2.2,1.1 -4.3,2.1 -6.5,3.3 0,0.1 6.5,10.7 21.9,9.2 -2.6,1.2 -5.1,2.5 -7.7,3.7 0,0.1 7.4,10.5 23.8,10.3 -3.8,1.9 -6,3.1 -6,3.1 0,0.1 7.4,7.2 19.7,8 12.8,42.7 52.4,73.9 99.3,73.9 46.9,0 86.5,-31.1 99.3,-73.9 12.4,-0.9 19.7,-8 19.7,-8 0,0 -2.3,-1.2 -6,-3.1 16.3,0.3 23.7,-10.1 23.8,-10.3 -2.6,-1.3 -5.1,-2.5 -7.7,-3.7 15.5,1.5 21.9,-9 21.9,-9.2 -2.2,-1.1 -4.3,-2.2 -6.5,-3.3 5.3,0.4 9.6,-1.1 12.9,-3 8.3,-4.5 12.7,-13.1 12.7,-20.5 v -12.6 c -0.2,-8.1 -6.6,-17.5 -6.6,-17.5 z"
   id="path6" />
		<g
   id="g10">
			<path
   class="st2"
   d="m 268.5,261.4 c 1.9,1.5 3.9,3 5.8,4.5 0,-0.2 -23,6.3 -39.5,-0.9 -0.6,-0.3 -1.2,-0.6 -1.8,-0.9 -4.1,14.7 -17.6,25.6 -33.6,25.6 -16,0 -29.5,-10.9 -33.6,-25.6 -0.6,0.3 -1.1,0.6 -1.8,0.9 -16.4,7.2 -39.5,0.7 -39.5,0.9 1.9,-1.5 3.9,-3 5.8,-4.5 -8,1.2 -15.4,-0.3 -20.5,-1.9 14.5,35.2 49.1,60 89.5,60 40.4,0 75,-24.8 89.5,-60 -4.9,1.7 -12.3,3.1 -20.3,1.9 z"
   id="path8" />
		</g>
		<g
   id="g16">
			<path
   class="st3"
   d="m 189.9,104.2 c -1.8,-0.9 -3.1,-2.4 -3.8,-4.2 -58,1.5 -115.9,22.3 -115.7,23.1 -2.5,0.9 -3.9,3.1 -3.9,4.6 v 2.1 c 40,-15.5 81.7,-23.7 123.5,-24.7 z"
   id="path12" />
			<path
   class="st3"
   d="m 332.3,124.6 c 0.1,-0.8 -60.6,-23.1 -119.4,-24.6 -0.7,1.8 -2.1,3.3 -3.8,4.2 v 0.8 c 43,1.2 86,10 127.1,26.2 v -2.1 c 0,-1.4 -1.4,-3.6 -3.9,-4.5 z"
   id="path14" />
		</g>
		<path
   class="st2"
   d="m 205.9,93.7 c -3.8,-0.5 -4.4,4.9 -4.5,6.7 h -1.2 c 0,-5.1 2.5,-7.2 2.5,-10.6 0,-3.4 -3.1,-6.6 -3.1,-6.6 0,0 -3.1,3.2 -3.1,6.6 0,3.4 2.4,5.5 2.4,10.6 h -1.2 c -0.1,-1.8 -0.7,-7.2 -4.5,-6.7 -4.1,0.5 -3.6,6.1 0,6.6 0,0 -0.7,-2.5 1.3,-2.5 1.5,0 1.9,1.7 2,2.6 h -1.7 -0.1 v 2 h 0.1 3.9 c -0.5,1.9 -1.8,2.5 -1.8,2.5 0,0 0.5,1.1 1.7,1.2 0,0 0,1.3 1,2.4 1,-1 1,-2.4 1,-2.4 1.2,-0.1 1.7,-1.2 1.7,-1.2 0,0 -1.3,-0.6 -1.8,-2.5 h 3.9 v 0 -2 0 h -1.7 c 0.1,-0.9 0.5,-2.6 2,-2.6 2,0 1.3,2.5 1.3,2.5 3.5,-0.5 3.9,-6.1 -0.1,-6.6"
   id="path18" />
		<g
   id="g40">
			<path
   class="st3"
   d="m 187.3,132.8 v -12.5 c 0,-1.7 -0.3,-3.3 -1,-4.5 -0.6,-1.3 -1.5,-2.3 -2.6,-3.1 -1.1,-0.8 -2.4,-1.4 -3.9,-1.7 -1.5,-0.3 -3.1,-0.4 -4.9,-0.3 -1.7,0.1 -3.4,0.4 -4.9,1 -1.5,0.5 -2.8,1.3 -4,2.2 -1.1,0.9 -2,2.1 -2.6,3.5 -0.6,1.4 -1,2.9 -1,4.7 v 12.6 c -1.3,0.3 -2.3,1.6 -2.3,2.9 0,1.4 1,2.3 2.3,2.4 v 14.1 c 0,1.7 0.3,3.2 1,4.5 0.6,1.2 1.5,2.3 2.6,3 1.1,0.8 2.4,1.3 4,1.6 1.5,0.3 3.1,0.4 4.9,0.3 1.7,-0.1 3.4,-0.4 4.9,-0.9 1.5,-0.5 2.8,-1.2 3.9,-2.1 1.1,-0.9 2,-2 2.6,-3.4 0.6,-1.3 1,-2.9 1,-4.6 v -14.1 c 1.4,-0.2 2.5,-1.4 2.5,-2.7 0,-1.7 -1.1,-2.8 -2.5,-2.9 z m -6.9,19.4 c 0,0.9 -0.2,1.7 -0.5,2.3 -0.3,0.6 -0.8,1.2 -1.3,1.6 -0.5,0.4 -1.1,0.7 -1.7,1 -0.6,0.2 -1.3,0.4 -1.9,0.4 -0.7,0 -1.3,0 -2,-0.1 -0.7,-0.1 -1.2,-0.4 -1.8,-0.7 -0.5,-0.3 -0.9,-0.8 -1.3,-1.4 -0.3,-0.6 -0.5,-1.3 -0.5,-2.3 v -31.4 c 0,-0.9 0.2,-1.7 0.5,-2.3 0.3,-0.6 0.8,-1.2 1.3,-1.6 0.5,-0.4 1.1,-0.8 1.8,-1 0.7,-0.2 1.3,-0.4 2,-0.4 0.7,0 1.3,0 1.9,0.2 0.6,0.1 1.2,0.4 1.7,0.8 0.5,0.4 0.9,0.8 1.3,1.4 0.3,0.6 0.5,1.4 0.5,2.3 z"
   id="path20" />
			<path
   class="st3"
   d="m 54.3,166.6 c 0,0.1 0,0.2 -0.1,0.1 -0.1,-0.1 -0.1,-0.1 -0.2,-0.2 -0.2,-0.6 -8.4,-28 -8.9,-29.2 -0.4,-1.3 -0.7,-1.9 -0.7,-2 -0.1,-0.4 -0.3,-0.7 -0.6,-0.8 -0.3,-0.1 -0.7,-0.1 -1.2,0.2 -2.5,1.2 -4.9,2.3 -7.4,3.5 v 2.3 c 0,0.8 0.1,1.4 0.3,1.7 0.2,0.4 0.5,0.6 0.8,0.8 0.3,0.2 0.7,0.2 1.1,0.2 v 20.9 c -1.2,0.8 -2.1,2.3 -2.1,3.7 0,1.3 0.9,2 2.1,1.6 v 29.5 c 1.9,-0.9 3.8,-1.8 5.8,-2.7 v -37 c 0,-0.3 0,-0.4 0.1,-0.4 0,0 0.1,0.1 0.1,0.1 0,0 0.2,0.7 0.7,1.9 0.4,1.2 8.5,28.2 8.6,28.4 0.2,0.7 0.5,1.2 0.7,1.6 0.2,0.4 0.7,0.5 1.2,0.2 1.3,-0.5 2.6,-1.1 3.9,-1.6 0.5,-0.2 0.9,-0.6 1.2,-1 0.3,-0.5 0.4,-0.9 0.4,-1.4 v -27.7 c 1.1,-0.8 1.9,-2.1 1.9,-3.3 0,-1.2 -0.8,-1.9 -1.9,-1.8 v -20.5 c 0,-0.4 0.1,-0.8 0.2,-1 0.1,-0.2 0.3,-0.5 0.4,-0.7 0.4,-0.4 0.7,-1 1.1,-1.6 0.4,-0.6 0.5,-1.4 0.5,-2.1 v -2 c -2.7,1.1 -5.4,2.2 -8.1,3.4 v 36.9 z"
   id="path22" />
			<path
   class="st3"
   d="m 328.2,167.1 c 0,0.1 0,0.1 -0.1,0 -0.1,-0.1 -0.1,-0.2 -0.2,-0.3 -0.2,-0.7 -0.5,-2 -1.1,-4 -0.5,-2 -1.2,-4.3 -1.9,-6.9 -0.7,-2.6 -1.4,-5.4 -2.2,-8.2 -0.8,-2.9 -1.5,-5.5 -2.2,-7.9 -0.7,-2.4 -1.3,-4.4 -1.7,-6.1 -0.5,-1.6 -0.7,-2.5 -0.7,-2.6 -0.1,-0.5 -0.3,-0.9 -0.6,-1.3 -0.3,-0.3 -0.7,-0.6 -1.2,-0.8 -2.6,-0.8 -5.1,-1.7 -7.7,-2.5 v 2.3 c 0,0.8 0.1,1.4 0.3,2 0.2,0.6 0.5,1 0.8,1.4 0.3,0.4 0.7,0.8 1.2,1.1 v 16.3 c -1.2,-0.2 -2.2,0.7 -2.2,2 0,1.3 0.9,2.7 2.2,3.3 v 23.9 c 2,0.6 4,1.3 6,1.9 V 148 c 0,-0.3 0,-0.4 0.1,-0.3 0,0.1 0.1,0.1 0.1,0.3 0,0.1 0.2,0.9 0.7,2.5 0.5,1.6 1,3.6 1.7,6 0.7,2.4 1.4,5 2.2,7.8 0.8,2.8 1.5,5.4 2.2,7.9 0.7,2.5 1.3,4.6 1.8,6.3 0.5,1.8 0.8,2.8 0.9,3 0.2,0.9 0.5,1.6 0.7,2.2 0.3,0.6 0.7,1 1.2,1.2 1.3,0.5 2.6,1 3.9,1.5 0.5,0.2 0.9,0.2 1.2,-0.1 0.3,-0.3 0.4,-0.6 0.4,-1.1 V 163 c 1.1,0.1 1.9,-0.6 1.9,-1.8 0,-1.2 -0.8,-2.6 -1.9,-3.3 V 142 c 0,-0.4 0.1,-0.7 0.2,-0.8 0.1,-0.1 0.3,-0.3 0.4,-0.4 0.4,-0.1 0.7,-0.4 1.1,-0.7 0.4,-0.4 0.5,-0.9 0.5,-1.7 v -2 c -2.7,-1.1 -5.5,-2.1 -8.2,-3.1 v 33.8 z"
   id="path24" />
			<path
   class="st3"
   d="m 362.4,172.3 c -0.8,-1.8 -1.9,-3.6 -3.1,-5.3 -1,-1.4 -2.1,-2.8 -3.3,-4.2 0.1,-0.2 0.1,-0.4 0.1,-0.6 0,-1.5 -1.2,-3.2 -2.6,-3.9 -0.6,-0.3 -1.2,-0.3 -1.6,-0.1 -0.2,-0.2 -0.4,-0.5 -0.6,-0.7 -1.2,-1.4 -2.3,-2.7 -3.1,-3.9 -0.8,-1.2 -1.3,-2.2 -1.3,-3.2 v -10.9 c 0,-0.5 0.2,-0.9 0.5,-1.1 0.3,-0.3 0.7,-0.4 1.2,-0.5 0.5,-0.1 1,0 1.5,0 0.5,0.1 1,0.3 1.5,0.5 0.4,0.2 0.9,0.5 1.5,0.8 0.5,0.4 1.1,0.8 1.5,1.2 0.5,0.5 0.8,1 1.1,1.5 0.3,0.6 0.5,1.1 0.5,1.7 v 2.6 c 0,1.1 0.4,2.2 1.1,3.3 0.7,1.1 1.7,1.9 2.8,2.4 1,0.5 2,0.9 2.9,1.4 v -5.1 c 0,-1.7 -0.3,-3.4 -0.8,-5 -0.6,-1.6 -1.4,-3 -2.4,-4.4 -1,-1.3 -2.2,-2.6 -3.6,-3.6 -1.4,-1.1 -2.9,-2 -4.5,-2.7 -1.6,-0.7 -3.1,-1.2 -4.5,-1.4 -1.4,-0.2 -2.6,-0.1 -3.6,0.3 -1,0.4 -1.8,1.2 -2.4,2.2 -0.6,1.1 -0.9,2.5 -0.9,4.4 v 9 c 0,1.9 0.4,3.7 1.2,5.4 0.8,1.7 1.9,3.3 3.1,4.8 1.2,1.5 2.5,3 3.9,4.4 -0.1,0.3 -0.2,0.6 -0.2,1 0,1.5 1.2,3.2 2.6,3.8 0.8,0.4 1.5,0.3 2,-0.1 1.1,1.3 2.1,2.7 2.8,4 0.8,1.5 1.2,2.9 1.2,4.5 v 12.9 c 0,0.6 -0.2,1.1 -0.5,1.4 -0.3,0.3 -0.8,0.5 -1.3,0.7 -0.5,0.1 -1.1,0.1 -1.7,0 -0.6,-0.1 -1.2,-0.2 -1.8,-0.5 -0.6,-0.3 -1.2,-0.6 -1.8,-1.1 -0.6,-0.5 -1.2,-1 -1.7,-1.5 -0.5,-0.5 -0.9,-1.1 -1.3,-1.7 -0.3,-0.6 -0.5,-1.2 -0.5,-1.8 v -3 c 0,-1.1 -0.3,-2 -0.9,-2.8 -0.6,-0.8 -1.5,-1.5 -2.7,-2 -1.1,-0.4 -2.1,-0.9 -3.2,-1.3 v 5.2 c 0,1.7 0.3,3.4 1,5 0.6,1.6 1.5,3 2.6,4.3 1.1,1.3 2.4,2.5 3.8,3.5 1.5,1 3,1.9 4.6,2.7 1.6,0.7 3.2,1.2 4.6,1.5 1.5,0.3 2.7,0.2 3.8,-0.1 1.1,-0.3 2,-1 2.6,-2 0.7,-1 1,-2.4 1,-4.1 v -12.4 c 0.1,-1.8 -0.3,-3.6 -1.1,-5.4 z"
   id="path26" />
			<path
   class="st3"
   d="m 130,142.5 c -0.3,2.4 -0.6,4.8 -0.8,7.2 -0.3,2.4 -0.5,4.4 -0.8,6.3 -0.2,1.8 -0.4,3.3 -0.6,4.4 -0.1,1.1 -0.2,1.7 -0.3,1.7 -0.6,-3.2 -1.1,-6.1 -1.5,-8.7 -0.4,-2.6 -0.9,-5.4 -1.5,-8.6 -0.5,-3.2 -1.1,-6.3 -1.6,-9.4 -0.6,-3.1 -1.1,-5.9 -1.6,-8.6 -0.5,-2.6 -0.9,-4.7 -1.3,-6.2 -0.1,-0.5 -0.5,-0.8 -1.3,-1 -0.8,-0.2 -1.5,-0.1 -2.3,0 -0.7,0.2 -1.4,0.5 -2.2,0.9 -0.8,0.4 -1.2,1 -1.3,1.6 -0.4,1.6 -0.8,3.8 -1.3,6.7 -0.5,2.8 -1,5.9 -1.6,9.3 -0.5,3.3 -1.1,6.7 -1.6,10.1 -0.5,3.4 -1,6.6 -1.5,9.4 -0.4,2.8 -0.9,6 -1.5,9.5 0,0 -0.1,-0.5 -0.3,-1.6 -0.2,-1.1 -0.3,-2.5 -0.6,-4.2 -0.2,-1.7 -0.4,-3.7 -0.7,-5.9 -0.3,-2.2 -0.6,-4.5 -0.8,-6.8 -0.6,-5.4 -2.9,-25 -2.9,-25 -2.8,0.8 -5.6,1.6 -8.4,2.4 v 2.1 c 0,0.8 0.2,1.4 0.5,1.8 0.3,0.4 0.7,0.7 1,0.8 0.2,0.1 0.4,0.3 0.6,0.4 0.2,0.2 0.3,0.4 0.4,0.8 0.7,5.5 1.3,10.6 1.8,15.4 -1,0.7 -1.7,1.8 -1.7,3 0,1.3 1,2.2 2.3,2 0,0.1 0,0.2 0,0.3 0.3,2.6 0.6,5.2 0.9,7.7 0.3,2.5 0.6,4.7 0.8,6.7 0.3,2 0.5,3.6 0.6,4.8 0.2,1.2 0.2,1.9 0.2,2 0,0.4 0.2,0.7 0.4,0.9 0.3,0.3 0.6,0.4 1.1,0.2 2.6,-0.7 5.2,-1.4 7.8,-2.1 0.5,-0.1 0.9,-0.4 1.2,-0.7 0.3,-0.3 0.5,-0.8 0.8,-1.5 2,-11.7 3.9,-23.3 5.9,-34.9 1.9,10.7 3.8,21.5 5.8,32.3 0.2,0.5 0.5,0.9 0.8,1.1 0.3,0.2 0.7,0.3 1.2,0.2 2.6,-0.5 5.2,-1 7.8,-1.5 0.5,-0.1 0.8,-0.3 1.1,-0.7 0.3,-0.4 0.4,-0.8 0.5,-1.1 0,-0.1 0.1,-0.8 0.3,-2.1 0.2,-1.3 0.4,-3 0.6,-5.1 0.3,-2.1 0.5,-4.4 0.8,-7.1 0.3,-2.6 0.6,-5.3 0.9,-8.1 0,-0.1 0,-0.2 0,-0.3 1.3,-0.4 2.3,-1.7 2.3,-3 0,-1.1 -0.7,-2 -1.7,-2.2 0.6,-5 1.2,-10.4 1.9,-16.2 0.1,-0.4 0.2,-0.7 0.4,-1 0.2,-0.3 0.4,-0.5 0.6,-0.7 0.4,-0.3 0.7,-0.7 1,-1.3 0.3,-0.6 0.5,-1.2 0.5,-2 v -2.1 c -2.9,0.5 -5.7,0.9 -8.5,1.5 0.4,0 -1.9,20.5 -2.6,26.2 z"
   id="path28" />
			<path
   class="st3"
   d="m 302.4,149.8 c 0,-1.3 -1,-2.7 -2.3,-3.3 -0.3,-1.9 -0.6,-3.8 -1,-5.7 -0.4,-2.6 -0.8,-4.9 -1.2,-7 -0.3,-2.1 -0.6,-3.8 -0.9,-5.2 -0.2,-1.3 -0.4,-2.1 -0.4,-2.3 -0.1,-0.9 -0.5,-1.7 -1.1,-2.5 -0.6,-0.8 -1.5,-1.3 -2.6,-1.6 -3.1,-0.8 -6.2,-1.6 -9.3,-2.3 v 1.6 c 0,2 0.6,3.3 1.7,4.1 0.2,0.1 0.3,0.4 0.3,0.7 0,0.3 0,0.6 -0.1,1 0,0 -0.1,0.6 -0.3,1.6 -0.2,1 -0.5,2.4 -0.8,4.1 -0.3,1.7 -0.7,3.6 -1.1,5.8 -0.2,1.1 -0.4,2.1 -0.6,3.2 -1.5,-0.3 -2.7,0.6 -2.7,2.1 0,1.1 0.7,2.2 1.7,2.9 -1.3,6.7 -4.5,23 -4.5,23 2.2,0.5 4.4,1 6.6,1.5 0,0 1.9,-11.2 2,-11.4 0.1,-0.9 0.5,-1.3 1.2,-1.1 2.6,0.6 5.3,1.3 7.9,2 0.4,0.1 0.8,0.3 1,0.5 0.3,0.3 0.5,0.7 0.5,1.3 0,0.2 1.5,12.3 1.5,12.3 2.3,0.7 4.6,1.3 6.9,2 0,0 -2.8,-17 -4.3,-25.4 1.3,-0.2 1.9,-0.9 1.9,-1.9 z m -7,5.2 c -0.2,0.2 -0.4,0.2 -0.8,0.1 -2.2,-0.6 -4.3,-1.1 -6.5,-1.7 -0.3,-0.1 -0.5,-0.2 -0.7,-0.5 -0.2,-0.2 -0.3,-0.5 -0.2,-0.8 0,0 0.1,-0.4 0.2,-1.1 0.1,-0.7 0.3,-1.6 0.4,-2.7 0.2,-1.1 0.4,-2.3 0.6,-3.7 0.2,-1.4 0.5,-2.8 0.8,-4.2 0.7,-3.8 1.4,-7.6 2.1,-11.5 0.1,0 0.1,0 0.1,0 0.7,4.2 1.4,8.3 2.1,12.5 0.3,1.6 0.5,3.1 0.8,4.6 0.2,1.5 0.4,2.9 0.6,4 0.2,1.2 0.3,2.2 0.5,3 0.1,0.8 0.2,1.2 0.2,1.2 0.1,0.4 0,0.7 -0.2,0.8 z"
   id="path30" />
			<path
   class="st3"
   d="m 218.2,156.9 c -0.2,-0.2 -0.4,-0.3 -0.6,-0.4 -0.2,-0.1 -0.2,-0.4 -0.2,-0.9 v -11.8 c 0,-1.7 -0.3,-3.3 -0.8,-4.7 -0.5,-1.4 -1.3,-2.5 -2.4,-3.3 -0.5,-0.5 -0.6,-1 -0.1,-1.4 1,-0.7 1.8,-1.7 2.4,-2.9 0.6,-1.2 0.9,-2.5 0.9,-4 v -5.4 c 0,-1.7 -0.2,-3.3 -0.6,-4.7 -0.4,-1.4 -1.1,-2.7 -2,-3.7 -0.9,-1 -2.1,-1.9 -3.5,-2.5 -1.4,-0.6 -3.1,-1 -5.2,-1 -4.9,-0.1 -9.7,-0.1 -14.6,0 v 2 c 0,1 0.2,1.7 0.5,2.2 0.4,0.5 0.7,0.9 1.1,1.1 0.2,0.1 0.4,0.2 0.5,0.4 0.1,0.2 0.2,0.5 0.2,0.9 v 15.7 c -1.3,0.3 -2.2,1.4 -2.2,2.7 0,1.3 0.9,2.4 2.2,2.6 v 23.9 c 2.3,0 4.6,0 6.9,0 V 139 c 0,-0.6 0.3,-1 0.9,-1 1.5,0 2.9,0 4.4,0.1 1.5,0 2.6,0.5 3.3,1.4 0.7,0.9 1,2.2 1,3.8 v 15.1 c 0,1 0.3,1.8 0.9,2.5 0.6,0.6 1.5,1 2.7,1 2,0.1 3.9,0.2 5.9,0.3 v -2.7 c 0,-0.8 -0.2,-1.4 -0.5,-1.8 -0.3,-0.2 -0.7,-0.5 -1.1,-0.8 z m -7.8,-29.5 c 0,1.6 -0.3,2.9 -1,3.8 -0.7,0.9 -1.8,1.4 -3.3,1.4 -1.5,0 -3,0 -4.5,-0.1 -0.2,0 -0.4,-0.1 -0.6,-0.2 -0.2,-0.1 -0.3,-0.3 -0.3,-0.5 V 117 c 0,-0.6 0.4,-1 1.1,-1 1.4,0 2.8,0 4.2,0.1 1.5,0 2.6,0.5 3.3,1.5 0.7,1 1,2.2 1,3.8 v 6 z"
   id="path32" />
			<path
   class="st3"
   d="m 240.3,143.8 c -0.7,0.2 -1.1,0.9 -1.1,1.9 0,0.3 0.1,11.9 -0.1,12.2 -0.2,0.2 -0.4,0.3 -0.7,0.3 -2.1,-0.2 -4.1,-0.4 -6.2,-0.6 -0.3,0 -0.6,-0.2 -0.7,-0.5 -0.1,-0.3 -0.2,-0.6 -0.2,-1 0,-12.6 0,-25.2 -0.1,-37.9 0,-0.5 0.1,-0.8 0.2,-1 0.1,-0.2 0.3,-0.3 0.5,-0.4 0.4,-0.2 0.7,-0.6 1.1,-1.1 0.4,-0.5 0.6,-1.1 0.6,-1.9 v -2.1 c -3.9,-0.4 -7.9,-0.7 -11.8,-0.9 v 2.1 c 0,0.8 0.2,1.4 0.6,2 0.4,0.5 0.8,0.9 1.1,1.2 0.2,0.2 0.4,0.3 0.6,0.5 0.1,0.2 0.2,0.5 0.2,1 v 15.7 c -1.3,0.2 -2.2,1.2 -2.2,2.5 0,1.3 1,2.5 2.2,2.8 v 23.9 c 6.2,0.4 12.4,1 18.6,1.7 0.5,0.1 0.9,0.1 1.4,0.2 0.4,0 0.7,-0.1 1.1,-0.3 0.4,-0.3 0.6,-0.7 0.6,-1.2 V 144 c -1,-0.1 -2,-0.2 -3,-0.4 -1,-0.1 -2,0 -2.7,0.2 z"
   id="path34" />
			<path
   class="st3"
   d="m 87,127.7 c -0.1,0 -0.2,0 -0.3,0.1 0,0 -0.1,0 -0.1,0 v 0 c -7.2,2.3 -14.4,4.8 -21.5,7.6 v 2 c 0,0.9 0.1,1.6 0.4,2 0.2,0.4 0.6,0.6 1,0.7 0.2,0.1 0.4,0.2 0.6,0.3 0.2,0.2 0.3,0.4 0.3,0.9 v 15.6 c -1.2,0.7 -2.1,2.1 -2.1,3.5 0,1.3 0.9,2.1 2.1,1.8 V 186 c 0.6,-0.2 1.2,-0.4 1.7,-0.7 3.1,-1.2 6.2,-2.3 9.2,-3.3 1.3,-0.5 2.6,-0.9 4,-1.3 1,-0.3 2,-0.7 3,-1 0.4,-0.1 0.8,-0.3 1.2,-0.4 0,0 0.1,0 0.1,0 0.2,-0.1 0.3,-0.1 0.5,-0.3 0.2,-0.2 0.4,-0.3 0.6,-0.6 0.3,-0.4 0.5,-0.9 0.5,-1.4 v -7 0 c 0,-2.5 0,-5 0,-7.5 -1,0.3 -1.9,0.6 -2.9,0.9 -1,0.3 -2,0.8 -2.7,1.4 -0.7,0.5 -1,1.3 -1,2.4 0,0.3 0.1,7.5 -0.1,7.8 -0.2,0.3 -0.4,0.5 -0.7,0.6 -0.9,0.3 -1.7,0.6 -2.6,0.9 -1.2,0.4 -2.4,0.8 -3.6,1.2 -0.5,0.2 -0.8,0 -0.8,-0.7 v -16 c 0,-0.6 0.3,-1.1 1,-1.3 2.7,-1 5.4,-1.9 8.1,-2.8 0.7,-0.2 1,-0.7 1,-1.3 v -3.9 c 0,-0.4 -0.1,-0.6 -0.4,-0.7 -0.2,-0.1 -0.5,-0.1 -0.7,0 -2.7,0.9 -5.4,1.8 -8.1,2.8 -0.7,0.2 -1,0 -1,-0.6 v -14.4 c 0,-0.3 0.1,-0.6 0.3,-0.8 0.2,-0.3 0.4,-0.5 0.6,-0.5 2.2,-0.8 4.3,-1.5 6.5,-2.2 0.1,0 0.2,0.1 0.3,0.2 0.2,0.2 0.1,7.5 0.1,7.8 0,1.1 0.3,1.6 1,1.7 0.7,0.1 1.7,-0.1 2.7,-0.4 1,-0.3 1.9,-0.6 2.9,-0.9 v -7.5 0 -7.3 c 0,-0.4 -0.2,-0.7 -0.5,-0.9 0,-0.2 -0.3,-0.3 -0.6,-0.3 z"
   id="path36" />
			<path
   class="st3"
   d="m 271.6,117.4 c -0.1,-0.1 -0.2,-0.1 -0.3,-0.1 0,0 -0.1,0 -0.1,0 v 0 c -7.4,-1.4 -14.8,-2.7 -22.2,-3.7 v 2 c 0,0.9 0.1,1.6 0.4,2.2 0.3,0.5 0.6,1 1.1,1.2 0.2,0.2 0.4,0.4 0.6,0.6 0.2,0.2 0.3,0.6 0.3,1 v 15.6 c -1.3,0.1 -2.2,1 -2.2,2.3 0,1.3 1,2.5 2.2,2.9 v 23.8 c 0.6,0.1 1.2,0.2 1.8,0.3 3.2,0.5 6.4,1 9.6,1.5 1.4,0.2 2.7,0.5 4.1,0.7 1,0.2 2,0.4 3.1,0.6 0.4,0.1 0.8,0.2 1.3,0.2 0,0 0.1,0 0.1,0 0.2,0 0.3,0 0.5,0 0.2,0 0.5,-0.1 0.7,-0.3 0.3,-0.2 0.5,-0.6 0.5,-1.1 v -7.1 -7.5 c -1,-0.2 -2,-0.4 -2.9,-0.6 -1,-0.2 -2,-0.2 -2.7,0 -0.7,0.2 -1,0.8 -1,1.9 0,0.3 0.1,7.6 -0.1,7.8 -0.2,0.2 -0.4,0.3 -0.7,0.2 -0.9,-0.2 -1.8,-0.3 -2.7,-0.5 -1.2,-0.2 -2.5,-0.4 -3.7,-0.6 -0.6,-0.1 -0.8,-0.5 -0.8,-1.1 v -16 c 0,-0.6 0.4,-0.9 1.1,-0.8 2.8,0.5 5.6,0.9 8.4,1.5 0.7,0.1 1,-0.1 1,-0.8 v -3.8 c 0,-0.4 -0.1,-0.7 -0.4,-0.9 -0.3,-0.2 -0.5,-0.3 -0.7,-0.4 -2.8,-0.5 -5.5,-1 -8.3,-1.5 -0.7,-0.1 -1.1,-0.5 -1.1,-1.1 v -14.4 c 0,-0.3 0.1,-0.5 0.3,-0.7 0.2,-0.2 0.4,-0.2 0.7,-0.2 2.2,0.4 4.5,0.7 6.7,1.2 0.1,0.1 0.2,0.2 0.3,0.3 0.2,0.3 0.1,7.5 0.1,7.8 0,1.1 0.4,1.8 1,2.3 0.7,0.5 1.7,0.8 2.7,1 1,0.2 2,0.4 2.9,0.6 v -7.5 -7.3 c 0,-0.4 -0.2,-0.7 -0.5,-1.1 -0.4,-0.1 -0.7,-0.3 -1.1,-0.4 z"
   id="path38" />
		</g>
		<g
   id="g58">
			<path
   class="st3"
   d="m 143.1,274.2 4.9,4.7 c 0.8,0.8 1.9,1.9 1.7,3.4 -0.1,0.7 -0.5,1.4 -1.1,2 -0.7,0.8 -1.5,1 -2.1,1.1 -1.4,0.2 -2.4,-0.7 -3.4,-1.7 l -2.8,-2.7 -2.9,3 -2,-1.9 z m -1.5,5.4 2.5,2.4 c 0.6,0.6 1.5,1.5 2.5,0.4 0.4,-0.4 0.5,-0.8 0.5,-1.2 0,-0.5 -0.3,-0.8 -1.2,-1.6 l -2.2,-2.2 z"
   id="path42" />
			<path
   class="st3"
   d="m 156.2,285.6 8.8,5.3 -1,1.7 -6.4,-3.9 -1.3,2.1 6.2,3.7 -1,1.7 -6.2,-3.7 -1.4,2.3 6.7,4 -1,1.7 -9.1,-5.4 z"
   id="path44" />
			<path
   class="st3"
   d="m 171.5,293.8 2.6,0.9 -2.8,8.5 5.8,1.9 -0.6,1.9 -8.4,-2.8 z"
   id="path46" />
			<path
   class="st3"
   d="m 186.6,297.9 2.7,0.4 -1.7,10.9 -2.7,-0.4 z"
   id="path48" />
			<path
   class="st3"
   d="m 210,305.9 c -0.2,0.7 -0.4,1.5 -1.3,2.4 -0.9,0.8 -2.3,1.8 -5.1,1.9 -3.9,0.2 -6.7,-1.8 -6.9,-5.6 -0.2,-4.1 3.1,-6 6.5,-6.1 1.3,-0.1 4.9,0.1 6.5,3.2 l -3,0.5 c -0.3,-0.5 -1.2,-1.7 -3.4,-1.6 -2.5,0.1 -3.8,1.9 -3.8,4 0.1,2.4 2,3.8 4.1,3.7 2.4,-0.1 3.1,-1.5 3.4,-2.2 z"
   id="path50" />
			<path
   class="st3"
   d="m 219.8,296.3 2.9,-0.8 8.2,9.1 -3,0.9 -1.5,-1.7 -5.4,1.6 -0.3,2.3 -2.9,0.9 z m 2.6,2.7 c -0.1,-0.1 -0.2,-0.2 -0.3,-0.4 -0.1,-0.1 -0.2,-0.2 -0.2,-0.4 0,0.1 0,0.3 0,0.4 0,0.2 0,0.3 0,0.5 l -0.6,4 3.7,-1.1 z"
   id="path52" />
			<path
   class="st3"
   d="m 233.3,291.4 2.4,-1.4 7.8,2.5 c 1,0.3 1.1,0.4 2.2,0.8 -0.6,-0.9 -0.8,-1.1 -1.3,-1.9 l -2.9,-4.8 2.3,-1.4 5.7,9.5 -2.5,1.3 -7.9,-2.5 c -0.8,-0.3 -1.2,-0.4 -2.1,-0.8 0.5,0.7 0.6,0.8 1,1.6 l 3.1,5.2 -2.3,1.3 z"
   id="path54" />
			<path
   class="st3"
   d="m 256,284.7 c 1.4,0.5 2.8,-0.3 3.9,-1.3 0.5,-0.5 1.9,-2 1,-3 -0.6,-0.6 -1.2,-0.2 -1.7,0.2 -0.4,0.2 -2.3,1.6 -2.7,1.9 -0.9,0.6 -3,2 -4.8,0.2 -0.4,-0.4 -0.7,-0.9 -0.8,-1.4 -0.4,-1.7 0.8,-3.4 2.1,-4.6 1.2,-1.1 2.2,-1.8 3.5,-2.2 1.2,-0.3 2.1,-0.1 2.5,0 l -1.4,2.3 c -0.2,-0.1 -0.6,-0.2 -1.3,0 -0.8,0.3 -1.5,0.9 -1.9,1.2 -0.9,0.8 -1.6,1.9 -0.9,2.6 0.5,0.5 1.1,0.2 1.8,-0.2 0.4,-0.2 2.3,-1.5 2.7,-1.8 1.1,-0.7 3,-1.9 4.7,-0.2 2.5,2.5 -0.5,5.6 -1.5,6.5 -1.3,1.3 -3.5,3 -6.5,2 z"
   id="path56" />
		</g>
		<path
   class="st3"
   d="m 186.8,231.9 c 0,0 -39.5,-13.2 -22.3,-55.3 0,0 -41.8,1.7 -99,24.8 0,0 -4,1.7 -6.4,2.5 -2.3,0.8 -6.1,2.3 -11.5,-0.3 0,0 52.3,-27.4 119.6,-33.7 8.9,-0.8 10,0.5 7.7,3.8 -1.9,2.9 -25.9,33.4 11.9,58.2 z"
   id="path60" />
		<path
   class="st0"
   d="m 151.7,188.5 c -33.8,4.4 -66.9,16.2 -66.9,16.2 5.6,10 20.9,5.8 20.9,5.8 28.7,-8.1 41.5,-10.9 45.6,-11.7 -0.2,-3.1 -0.1,-6.6 0.4,-10.3 z"
   id="path62" />
		<path
   class="st0"
   d="m 151.9,205 c -5.6,1.1 -29.3,6 -53.2,14.9 0,0 7.5,8.6 22.5,4.3 12.6,-3.6 28.7,-8.7 33.5,-10.3 -1.2,-2.6 -2.1,-5.6 -2.8,-8.9 z"
   id="path64" />
		<path
   class="st0"
   d="m 157.2,218.7 c -5.1,1.6 -30.6,9.9 -41.4,14.1 0,0 6.2,8.3 24,1.3 12.4,-4.9 19.3,-7.8 22.3,-9 -1.8,-1.9 -3.4,-4 -4.9,-6.4 z"
   id="path66" />
		<path
   class="st0"
   d="m 166.1,228.6 c -4.5,1.9 -21,9.2 -30.6,13.8 0,0 12.1,5.9 27.2,-3.4 l 9.4,-6.2 c -2,-1.2 -4.1,-2.6 -6,-4.2 z"
   id="path68" />
		<path
   class="st0"
   d="m 176.7,235.2 c -3,1.9 -15.6,9.8 -21.7,14.3 0,0 10.4,4.3 21.1,-5.8 3.5,-3.3 5.4,-5.1 6.4,-6.2 -1.9,-0.6 -3.8,-1.4 -5.8,-2.3 z"
   id="path70" />
		<g
   id="g84">
			<path
   class="st3"
   d="m 212.2,231.9 c 0,0 39.5,-13.2 22.3,-55.3 0,0 41.8,1.7 99,24.8 0,0 4,1.7 6.4,2.5 2.3,0.8 6.1,2.3 11.5,-0.3 0,0 -52.3,-27.4 -119.6,-33.7 -8.9,-0.8 -10,0.5 -7.7,3.8 1.9,2.9 25.9,33.4 -11.9,58.2 z"
   id="path72" />
			<path
   class="st0"
   d="m 247.3,188.5 c 33.8,4.4 66.9,16.2 66.9,16.2 -5.6,10 -20.9,5.8 -20.9,5.8 -28.7,-8.1 -41.5,-10.9 -45.6,-11.7 0.2,-3.1 0.1,-6.6 -0.4,-10.3 z"
   id="path74" />
			<path
   class="st0"
   d="m 247.1,205 c 5.6,1.1 29.3,6 53.2,14.9 0,0 -7.5,8.6 -22.5,4.3 -12.6,-3.6 -28.7,-8.7 -33.5,-10.3 1.2,-2.6 2.1,-5.6 2.8,-8.9 z"
   id="path76" />
			<path
   class="st0"
   d="m 241.8,218.7 c 5.1,1.6 30.6,9.9 41.4,14.1 0,0 -6.2,8.3 -24,1.3 -12.4,-4.9 -19.3,-7.8 -22.3,-9 1.8,-1.9 3.4,-4 4.9,-6.4 z"
   id="path78" />
			<path
   class="st0"
   d="m 232.9,228.6 c 4.5,1.9 21,9.2 30.6,13.8 0,0 -12.1,5.9 -27.2,-3.4 l -9.4,-6.2 c 2,-1.2 4.1,-2.6 6,-4.2 z"
   id="path80" />
			<path
   class="st0"
   d="m 222.3,235.2 c 3,1.9 15.6,9.8 21.7,14.3 0,0 -10.4,4.3 -21.1,-5.8 -3.5,-3.3 -5.4,-5.1 -6.4,-6.2 1.8,-0.6 3.8,-1.4 5.8,-2.3 z"
   id="path82" />
		</g>
		<g
   id="g120">
			<g
   id="g96">
				<g
   id="g88">
					<path
   class="st3"
   d="m 231.8,254.8 c 0,17.9 -14.5,32.3 -32.3,32.3 -17.9,0 -32.3,-14.5 -32.3,-32.3 0,-17.9 14.5,-32.3 32.3,-32.3 17.9,0 32.3,14.5 32.3,32.3 z"
   id="path86" />
				</g>
				<g
   id="g92">
					<path
   class="st0"
   d="m 225.1,261.5 c 0,14.2 -11.5,25.7 -25.6,25.7 -14.2,0 -25.6,-11.5 -25.6,-25.7 0,-14.2 11.5,-25.6 25.6,-25.6 14.2,0 25.6,11.5 25.6,25.6 z"
   id="path90" />
				</g>
				<path
   class="st1"
   d="m 199.5,220 c -19.2,0 -34.9,15.6 -34.9,34.9 0,19.2 15.6,34.9 34.9,34.9 19.2,0 34.9,-15.6 34.9,-34.9 0,-19.3 -15.7,-34.9 -34.9,-34.9 z m 29.3,29.2 c -2.2,8.6 -8.1,15.7 -15.7,19.6 0.6,-4.3 2.5,-8.5 4.4,-12.9 2.8,-6.4 5.9,-13.3 4.5,-20.7 3.4,4 5.8,8.8 6.8,14 z m -44.6,-19.9 c 3.9,-2.3 8.4,-3.8 13.1,-4.2 V 272 c -2.4,-0.2 -4.7,-0.6 -6.9,-1.3 -0.2,-5.8 -2.6,-11.2 -5,-16.5 -3.8,-8.8 -7.1,-16.4 -1.2,-24.9 z m 6,45.8 c 2.3,0.6 4.7,1 7.2,1.2 v 8.3 c -3.9,-0.3 -7.6,-1.3 -11,-3 1.6,-1.5 3.3,-3.7 3.8,-6.5 z m 11.5,1.2 c 2.5,-0.1 4.9,-0.5 7.2,-1.2 0.5,2.8 2.2,5 3.8,6.5 -3.4,1.6 -7.1,2.7 -11,3 z m 6.9,-5.6 c -2.2,0.7 -4.5,1.2 -6.9,1.3 v -46.9 c 4.8,0.3 9.2,1.8 13.1,4.2 5.9,8.5 2.6,16.2 -1.3,24.9 -2.3,5.3 -4.7,10.7 -4.9,16.5 z M 177,235.3 c -1.3,7.4 1.7,14.3 4.5,20.7 1.9,4.4 3.8,8.7 4.4,13 -7.7,-3.8 -13.5,-10.9 -15.7,-19.7 1,-5.4 3.4,-10.1 6.8,-14 z m -6.9,24.8 c 3.8,6.1 9.3,10.9 15.9,13.6 0,0.2 0,0.4 -0.1,0.6 -0.3,2.2 -2.2,4 -3.5,5 -6.3,-4.4 -10.9,-11.3 -12.3,-19.2 z m 46.4,19.2 c -1.3,-1 -3.1,-2.8 -3.5,-5 0,-0.2 0,-0.4 -0.1,-0.6 6.6,-2.8 12.1,-7.5 15.9,-13.6 -1.4,7.9 -5.9,14.8 -12.3,19.2 z"
   id="path94" />
			</g>
			<g
   id="g118">
				<path
   class="st1"
   d="m 209.9,174.7 c 0,0 -0.3,1.1 -0.9,1.1 -0.7,0 -4.9,-2 -6.9,-3.1 -0.9,-0.5 -2.1,-1.2 -2.5,-1.4 0,0 -1.8,0.9 -2.6,1.4 -2,1.1 -6.2,3.1 -6.9,3.1 -0.7,0 -0.9,-1.1 -0.9,-1.1 0,0 -11,6.6 -11,24.9 0,13.6 7.1,19.8 7.1,19.8 l 1,3.9 h 12.1 2.4 12.1 l 1,-3.9 c 0,0 7.1,-6.2 7.1,-19.8 -0.2,-18.2 -11.1,-24.9 -11.1,-24.9 z"
   id="path98" />
				<path
   class="st3"
   d="m 215.1,195.1 c 0,-5.7 -2.3,-10.3 -4.8,-13 0,0 -0.1,1.6 -2.8,-0.2 -2.3,-1.6 -5.1,-2.5 -8,-2.5 -3,0 -5.7,0.9 -8.1,2.5 -2.6,1.8 -2.7,0.2 -2.7,0.2 -2.5,2.7 -4.8,7.4 -4.8,13 0,4.7 1.2,7 1.6,7.7 2.3,6 7.7,10.2 14,10.2 6.2,0 11.6,-4.1 13.9,-10 0.2,-0.3 1.7,-2.5 1.7,-7.9 z"
   id="path100" />
				<path
   class="st1"
   d="m 205.4,207.8 c -0.1,0 -0.1,0 0,0 -0.1,-0.1 -1.6,-3 0.9,-5 0,0 5.8,1.2 5.9,-6.4 0,0 -0.1,-0.8 0.7,-2.4 0,0 -1.5,-1.3 -4.7,1.1 -3.2,2.4 -4.9,9.2 -6.7,7.6 -1.7,-1.6 -1.1,-10.5 -2,-10.8 v 0 c -0.9,0.3 -0.3,9.2 -2,10.8 -1.7,1.6 -3.5,-5.2 -6.7,-7.6 -3.2,-2.4 -4.7,-1.1 -4.7,-1.1 0.8,1.6 0.7,2.4 0.7,2.4 0.1,7.6 5.9,6.4 5.9,6.4 2.5,2 1,4.9 1,4.9 0,0 0,0.1 -0.1,0.1 -6.9,-7.4 -10.9,-6.4 -8.9,1.9 1.9,8.1 9.4,42.9 10.5,51 -0.2,7.3 -1,9.9 -1.2,10.4 l -0.7,1.5 0.8,1.7 c 1.3,1.9 2.2,4 2.5,4.8 l 2.8,7.2 2.8,-7.2 c 0.3,-0.8 1.2,-3 2.5,-4.9 l 0.9,-1.6 -0.8,-1.6 c -0.2,-0.5 -1,-3 -1.2,-10 1,-7.2 8.6,-43.1 10.5,-51.4 2.1,-8.1 -1.9,-9.1 -8.7,-1.8 z"
   id="path102" />
				<g
   id="g108">
					<path
   class="st2"
   d="m 194.8,244.1 c -2.5,-13 -4.4,-22.5 -6,-29.5 -1.2,-5.3 2,-3.2 3.7,0.1 z"
   id="path104" />
					<path
   class="st2"
   d="m 204.2,244.1 c 2.5,-13 4.4,-22.5 6,-29.5 1.2,-5.3 -2,-3.2 -3.7,0.1 z"
   id="path106" />
				</g>
				<g
   id="g114">
					<path
   class="st2"
   d="m 191,200.3 c -0.5,-0.1 -0.8,-0.6 -0.6,-1.1 0.1,-0.2 0.2,-0.3 0.3,-0.5 -0.3,-0.4 -0.7,-0.7 -1.2,-1.1 0,0 -0.8,3.7 2.5,3.3 0,0 -0.1,-0.3 -0.4,-0.8 -0.1,0.2 -0.4,0.2 -0.6,0.2 z"
   id="path110" />
					<path
   class="st2"
   d="m 209.5,197.6 c -0.5,0.3 -0.8,0.7 -1.2,1.1 0.1,0.1 0.3,0.3 0.3,0.5 0.1,0.5 -0.2,1 -0.6,1.1 -0.2,0.1 -0.5,0 -0.7,-0.1 -0.3,0.5 -0.4,0.8 -0.4,0.8 3.4,0.4 2.6,-3.4 2.6,-3.4 z"
   id="path112" />
				</g>
				<path
   class="st2"
   d="m 201.1,248.9 c 1.1,-20 2.7,-34.2 2.7,-36 0,-0.6 -0.1,-1.4 -0.3,-2.3 l -1.2,3.8 -0.4,-6.7 c -0.6,-0.8 -1.4,-1.5 -2.4,-2.2 h -0.1 c -1,0.7 -1.7,1.5 -2.3,2.2 l -0.4,6.7 -1.2,-3.8 c -0.3,0.9 -0.3,1.7 -0.3,2.3 0,1.8 1.6,15.9 2.7,36 1.1,20 -1.4,23.7 -1.4,23.7 1.4,2.1 3,5.8 3,5.8 0,0 1.6,-3.7 3,-5.8 0,0.1 -2.5,-3.6 -1.4,-23.7 z"
   id="path116" />
			</g>
		</g>
	</g>
</g>
</svg>
