<?xml version="1.0" encoding="UTF-8" standalone="no"?>
<!-- Generator: Adobe Illustrator 27.2.0, SVG Export Plug-In . SVG Version: 6.00 Build 0)  -->

<svg
   version="1.1"
   id="LOGOS"
   x="0px"
   y="0px"
   viewBox="0 0 507.89999 411.70001"
   xml:space="preserve"
   sodipodi:docname="ny.svg"
   width="507.89999"
   height="411.70001"
   inkscape:version="1.1.2 (b8e25be8, 2022-02-05)"
   xmlns:inkscape="http://www.inkscape.org/namespaces/inkscape"
   xmlns:sodipodi="http://sodipodi.sourceforge.net/DTD/sodipodi-0.dtd"
   xmlns="http://www.w3.org/2000/svg"
   xmlns:svg="http://www.w3.org/2000/svg"><defs
   id="defs99" /><sodipodi:namedview
   id="namedview97"
   pagecolor="#ffffff"
   bordercolor="#666666"
   borderopacity="1.0"
   inkscape:pageshadow="2"
   inkscape:pageopacity="0.0"
   inkscape:pagecheckerboard="0"
   showgrid="false"
   inkscape:zoom="1.203125"
   inkscape:cx="253.92208"
   inkscape:cy="206.12987"
   inkscape:window-width="1296"
   inkscape:window-height="838"
   inkscape:window-x="0"
   inkscape:window-y="33"
   inkscape:window-maximized="0"
   inkscape:current-layer="LOGOS" />
<style
   type="text/css"
   id="style2">
	.st0{fill:#FFFFFF;}
	.st1{fill:#9EA2A2;}
	.st2{fill:#1D428A;}
	.st3{fill:#F58426;}
</style>
<g
   id="g94"
   transform="translate(-1.6,-50.2)">
	<g
   id="g14">
		<path
   class="st0"
   d="m 254.8,461.9 -33.7,-43.7 c -42.8,-14.1 -72.6,-52.8 -75.4,-97.9 l -20.9,-27.1 c -19.9,8.6 -39.7,22.1 -39.7,22.1 L 22.5,252.4 48.9,194.5 1.6,133.3 h 75.1 l 14.5,-31.7 37.2,-15 4.1,-11.2 30.1,13.8 7.2,-25 4.9,-1.6 c 23.8,-7.9 51.3,-12.2 79.4,-12.4 0.8,0 9.7,0.1 10,0.1 1,0 5.4,0.2 5.4,0.2 23.8,1.1 46.1,5.1 66.4,11.8 l 5,1.6 6.6,23.9 10.9,-8.2 60.9,21.7 14.7,32.1 h 75.5 l -47.7,61.6 26,57 -63.6,65.5 c 0,0 -23.3,-17 -39.3,-23.3 l -19.2,24.7 C 363.5,365 332.1,405.5 288,419 Z"
   id="path4" />
		<g
   id="g12">
			<g
   id="g10">
				<polygon
   class="st1"
   points="39.3,151.8 254.8,431.6 471.9,151.8 "
   id="polygon6" />
				<path
   class="st2"
   d="m 21.4,143 233.4,303 235,-303 z m 450.5,8.8 -217,279.8 L 39.3,151.8 Z"
   id="path8" />
			</g>
		</g>
	</g>
	<g
   id="g54">
		<path
   class="st2"
   d="m 440.5,171.3 -0.1,-0.2 -0.2,-0.1 -13.9,-9.3 5.2,-9.9 0.2,-0.3 -0.1,-0.3 -19.1,-41.9 -0.1,-0.3 -0.3,-0.1 -51.5,-18.3 -0.4,-0.1 -0.3,0.2 -13.7,10.4 -0.1,0.1 -0.1,0.2 -2.3,5.7 c 0,0 -21.4,-5.4 -52.7,-8.5 -3.2,-0.3 -11.7,-1 -25.4,-2.1 l -1.3,-0.1 -1.4,-0.1 h -0.3 l -0.2,0.2 -10.2,10.1 V 96.2 c 0,0 -28.9,1.6 -47.8,4.2 -18.9,2.6 -37.5,7.3 -37.5,7.3 l -3.4,-7.3 -0.1,-0.2 -0.2,-0.1 -24.3,-11.1 -0.7,-0.3 -0.3,0.7 -2.9,7.6 -0.6,-1.5 -0.3,-0.6 -0.6,0.3 -34.8,14 -0.3,0.1 -0.1,0.3 -64.2,141 52.7,52.8 2.5,-1.4 c 1.6,-0.9 3.8,-2.2 6.4,-3.7 6.4,-3.8 15.1,-8.9 19.3,-10.9 l 0.8,-0.4 c 5.4,-2.6 8.1,-3.9 33.7,-14.9 l 2.1,-0.8 c 0,0 2.9,-1.1 8.2,-2.9 14.1,-4.7 50.6,-15.5 86,-15.5 h 0.4 c 1.4,0 2.8,0 4.2,0.1 24,0.7 52.2,5.8 71.5,9.9 18.6,4 32.6,7.9 36.6,9 l 2.7,0.8 c 17.6,6.8 39.2,18 59.1,30.8 l 2.5,1.6 53.3,-54.9 z"
   id="path16" />
		<g
   id="g52">
			<path
   class="st3"
   d="m 434.8,176.2 -51.3,-34.2 -8.9,-25 15.9,5.6 6.4,15.6 24.1,7.7 -14,-31.1 -45.5,-16.2 -8.4,6.5 15.1,49.2 48.7,34.4 12.5,31.1 -20.3,-9.1 -7,-19.4 -24.9,-7.3 13.3,43.8 c 4.1,1.5 8.2,3.1 12.2,4.7 11.1,4.5 21.9,9.4 32.5,14.9 7.3,3.8 14.6,7.7 21.7,11.9 l 10.6,-10.9 z"
   id="path18" />
			<path
   class="st3"
   d="m 89.1,199.4 17.1,-15.3 4.1,4.8 -16.9,48.5 c 9.2,-4.1 18.6,-7.8 28.1,-11.2 l 12.2,-40 L 123.2,168.8 145,148 157.8,105.5 142.1,98.4 128,138.5 105.4,158 126,106 l -22.1,8.8 -61,133.8 9.5,9.6 c 5.7,-3.3 11.4,-6.5 17.2,-9.5 z"
   id="path20" />
			<path
   class="st3"
   d="m 243.7,103.9 -18.7,1 -8.8,100.4 c 7.9,-0.8 16,-1.3 24,-1.5 z"
   id="path22" />
			<path
   class="st3"
   d="m 299.2,184.5 -21.7,-1.3 -3.5,-61.5 18.4,0.9 -2.2,-16.9 -24.7,-1.8 -11.1,11.1 v 76.9 l 11.6,11.9 c 12,0.4 23.9,1.3 35.6,2.7 z"
   id="path24" />
			<path
   class="st3"
   d="m 176.1,143.5 7.8,38.2 -5.1,28.9 c 7.6,-1.5 15.2,-2.7 23,-3.7 v 0 l 12.2,-100.7 -17.4,2.5 -5.7,33 -6.5,-31 -20.4,5.1 -28.4,105.7 c 8.2,-2.6 16.5,-4.9 24.9,-6.9 z"
   id="path26" />
			<path
   class="st3"
   d="m 327.1,178.9 6.1,-8.3 8.9,7.4 8.2,37.4 c 8.6,2.2 17.1,4.6 25.6,7.3 l -15.3,-54.9 -15.8,-12.9 9,-12 -7.5,-27.9 -19.1,-4.2 7.5,28.1 -11.9,15.9 -8.8,-46.2 -17.7,-2.2 c 0,0 8.9,67.7 13,101 8,1.1 15.9,2.5 23.8,4.1 z"
   id="path28" />
			<g
   id="g50">
				<path
   class="st1"
   d="m 218.9,224.4 c 0,0 7.4,-4.3 22.1,-5.9 l -0.5,-11.6 c -8.1,0.3 -16.1,0.8 -24.1,1.5 0.8,4.5 1.8,11.2 2.5,16 z"
   id="path30" />
				<path
   class="st1"
   d="m 265.7,217.7 c 6,0.7 12.4,2.7 18,4.2 5.1,1.2 10.6,3.4 15.1,5.4 l 2.5,-17.9 c -11.8,-1.5 -23,-2.3 -35.1,-2.7 -0.2,3.6 -0.2,8.4 -0.5,11 z"
   id="path32" />
				<path
   class="st1"
   d="m 188.3,246 c 6.9,-5.1 11,-10.3 18.2,-14.7 -1.4,-6.5 -3.2,-14.9 -4.5,-21.3 -7.9,1 -15.6,2.3 -23.3,3.8 2.8,9.6 6.6,22.5 9.6,32.2 z"
   id="path34" />
				<path
   class="st1"
   d="m 304.8,231 c 6.7,3.9 11.9,8.2 17.9,14.1 l 1.2,0.9 9.4,-31.2 c -8.1,-1.7 -16,-3.1 -24.3,-4.3 z"
   id="path36" />
				<path
   class="st1"
   d="m 334.5,258 22.5,5.3 18.9,-37.4 c -8.7,-2.8 -17.1,-5.2 -26,-7.4 z"
   id="path38" />
				<path
   class="st1"
   d="m 153.9,263.3 c 5.9,-2.2 14,-5.1 21.7,-7.2 L 161,217.6 c -8.8,2.1 -16.5,4.4 -25.1,7.1 5.4,12.9 11.5,26.2 18,38.6 z"
   id="path40" />
				<path
   class="st1"
   d="m 120,277.2 c 1.3,-1.1 14,-6.6 22.8,-10.3 -6.6,-12 -14.6,-25.2 -21.3,-37.4 -9.5,3.4 -18.2,6.9 -27.4,11 z"
   id="path42" />
				<path
   class="st1"
   d="m 88.2,294.1 c 4.1,-2.4 8.4,-4.9 13.1,-7.7 L 71.5,251.3 c -5.7,2.9 -11.3,6 -16.8,9.2 z"
   id="path44" />
				<path
   class="st1"
   d="m 368.9,268 c 17.9,6.9 42.9,21 52.8,27.6 4.6,-4.4 29.5,-30.5 32.9,-34.1 -20.7,-12.1 -42.4,-22.5 -65,-30.8 z"
   id="path46" />
				<polygon
   class="st1"
   points="253.6,196.1 262.5,205.3 262.3,217.1 253.8,216.8 "
   id="polygon48" />
			</g>
		</g>
	</g>
	<g
   id="g76">
		<path
   class="st2"
   d="m 255.7,213 c -55.5,0 -100.5,45 -100.5,100.5 0,55.5 45,100.5 100.5,100.5 55.5,0 100.5,-45 100.5,-100.5 C 356.2,258 311.2,213 255.7,213 Z"
   id="path56" />
		<g
   id="g74">
			<path
   class="st3"
   d="m 261.9,220.5 c -7.7,2.7 -15.1,6.6 -22.5,10 -5,-3 -7.9,-3.8 -11.3,-6 10.6,-3.7 22,-4.3 33.8,-4 z"
   id="path58" />
			<path
   class="st3"
   d="m 333.9,263.2 c -23.7,-23.9 -59.2,-22.1 -89.3,-30.6 0,0 17.7,-8.4 26.9,-10.8 24.6,4.3 48.4,19 62.4,41.4 z"
   id="path60" />
			<path
   class="st3"
   d="m 200.8,266.8 c -22.7,34.9 -25.8,77.9 -7.7,115.6 -23.4,-19.7 -37.4,-57.7 -26.9,-94.7 8.6,-12.1 19.7,-22.7 34.6,-20.9 z"
   id="path62" />
			<path
   class="st3"
   d="m 225.1,291.6 c 12.3,36.5 15,76.8 46.7,113.5 -24.7,5 -49.3,-2.4 -68.8,-14.8 -24.2,-35.3 -21.9,-88.1 2.3,-122.3 11.8,3.5 18.2,18.9 19.8,23.6 z"
   id="path64" />
			<path
   class="st3"
   d="m 208.1,264.2 c 3.7,-5.2 7.8,-10.1 12.5,-14.7 51.5,14.5 100.6,67.9 109,120.4 -2.5,4 -8.3,9.5 -12.3,13.4 -12.8,11.5 -26.9,17.5 -40.4,20.7 -24,-24.9 -32,-57.3 -40.4,-89.2 -6.5,-24.5 -11,-43 -28.3,-50.5 z"
   id="path66" />
			<path
   class="st3"
   d="m 328.4,264 c -24.9,-21.9 -59.5,-19.1 -88.6,-29.4 -5.6,3.4 -11.1,7.5 -15.8,11.7 51.5,16.1 98.2,66.5 109.3,118.5 8.1,-11.7 12.9,-25.2 14.9,-39.6 1.3,-22 1.1,-42.1 -19.8,-61.2 z"
   id="path68" />
			<path
   class="st3"
   d="m 216.4,247.9 c -5,4.8 -8.7,9.5 -12.6,15 h -0.1 c -13.6,-3.1 -24.4,4 -33,12.8 4.1,-10.4 12.8,-22.7 21.9,-30.8 8.4,0.3 14.5,0.2 23.8,3"
   id="path70" />
			<path
   class="st3"
   d="m 220,244.7 c 4.9,-4.3 9.6,-8.1 15.4,-11.6 l -13.2,-6.5 c -8.8,3.6 -18.2,8.3 -24.7,14.2 10.1,1.1 14.4,1.7 22.5,3.9 z"
   id="path72" />
		</g>
	</g>
	<g
   id="g92">
		<path
   class="st2"
   d="m 241.5,89.8 -4.1,4 -7,0.4 -2.6,-2.3 -3.3,2.8 -7.6,0.7 -3.3,-3.2 4.4,-29.7 5.7,-0.8 -3.1,26.2 4.1,-0.5 3.2,-26.3 5.7,-0.5 -2.4,26.1 4,-0.4 2.1,-26 c 2.4,-0.3 3.7,-0.2 5.8,-0.4 z"
   id="path78" />
		<path
   class="st2"
   d="m 260.1,59.8 0.1,18.7 h 3.7 l -0.2,-18.6 c 0,0 3.8,0.1 5.6,0.3 l 0.7,21 -3.5,3.5 -1.2,0.1 0.2,9 -6.2,-0.2 -0.1,-9 -1.2,-0.1 -3.8,-3.9 0.2,-20.8 c 1.9,-0.1 5.7,0 5.7,0 z"
   id="path80" />
		<path
   class="st2"
   d="m 213.9,63.3 -1,6.1 -6.9,1.3 -1.3,7.2 c 2.5,-0.5 4.1,-0.7 7.1,-1.1 -0.4,2.7 -0.5,3.6 -1,6.1 l -7,1 -1.3,6.9 7.1,-1 c 0,0 -0.7,4.6 -1.1,6.7 -5,0.6 -10,1.3 -14.8,2.2 0,0 5.4,-24.9 6.7,-32.6 z"
   id="path82" />
		<path
   class="st2"
   d="m 187.7,99.7 -7.2,1.4 3.3,-13.6 -2.2,-4.9 -5.7,19.5 -7.1,1.6 c 2.9,-10.6 6,-21.2 8.9,-31.7 2.4,-0.8 4.2,-1.4 6.4,-2 0.8,1.8 2.7,5.4 2.7,5.4 l 1.7,-6.6 c 0,0 4.5,-1.2 6.7,-1.7 z"
   id="path84" />
		<path
   class="st2"
   d="m 289.5,65.6 c 0.7,8.5 2.1,16.7 3,24.6 l -3.2,4.8 -10.2,-0.7 -3.7,-4 c -0.7,-8.7 -1.1,-17.4 -1.6,-26.1 0.9,-1.2 2.4,-2.2 3.5,-3.4 l 8.5,0.8 z m -9.6,1.4 1.8,20.3 3.6,0.3 -1.9,-20.2 z"
   id="path86" />
		<path
   class="st2"
   d="m 322.5,68.6 c 1.3,4.9 3.8,14.9 3.8,14.9 l 2.4,0.5 1.2,-1.6 -3,-12.5 c 0,0 3,0.8 6.2,1.8 l 3.2,12.1 -1.5,2.2 2.8,3.1 4.2,14.7 -7,-1.6 -2.7,-10.3 -4.4,-1 2.4,10.3 -7.1,-1.4 c -2.5,-11.1 -7,-32.9 -7,-32.9 0,0 3.7,0.8 6.5,1.7 z"
   id="path88" />
		<path
   class="st2"
   d="m 311.5,69.8 2.3,12.1 -1.4,1.9 2.4,2.8 2.1,12.1 -6.8,-1.2 -1.9,-10 -4.1,-0.5 1.4,9.8 -6.8,-0.9 -4.5,-33.3 13,2.3 z m -9.9,0.4 1.2,8.5 3.8,0.4 -1.6,-8.3 z"
   id="path90" />
	</g>
</g>
</svg>
