<?xml version="1.0" encoding="UTF-8" standalone="no"?>
<svg
   width="44"
   height="32"
   viewBox="0 0 44 32"
   fill="none"
   version="1.1"
   id="svg34"
   sodipodi:docname="orl.svg"
   inkscape:version="1.1.2 (b8e25be8, 2022-02-05)"
   xmlns:inkscape="http://www.inkscape.org/namespaces/inkscape"
   xmlns:sodipodi="http://sodipodi.sourceforge.net/DTD/sodipodi-0.dtd"
   xmlns="http://www.w3.org/2000/svg"
   xmlns:svg="http://www.w3.org/2000/svg">
  <defs
     id="defs38" />
  <sodipodi:namedview
     id="namedview36"
     pagecolor="#ffffff"
     bordercolor="#666666"
     borderopacity="1.0"
     inkscape:pageshadow="2"
     inkscape:pageopacity="0.0"
     inkscape:pagecheckerboard="0"
     showgrid="false"
     inkscape:zoom="12.32"
     inkscape:cx="21.956169"
     inkscape:cy="15.99026"
     inkscape:window-width="1296"
     inkscape:window-height="838"
     inkscape:window-x="0"
     inkscape:window-y="33"
     inkscape:window-maximized="0"
     inkscape:current-layer="svg34" />
  <path
     d="M 12.5178,6.7718 V 2.3069 L 9.6288,6.7718 H 5.49236 L 8.0491,9.2144 4.84382,14.168 10.0299,11.1063 12.5178,13.4829 V 9.6371 l 4.8538,-2.8653 z"
     fill="#061922"
     id="path2" />
  <path
     d="M 12.0977,7.1937 V 3.7307 L 9.8572,7.1937 H 6.54347 L 8.5915,9.15 6.16688,12.8976 10.0894,10.5815 12.0977,12.4994 V 9.3962 l 3.7301,-2.2025 z"
     fill="#0050b5"
     id="path4" />
  <path
     d="M 11.5156,7.7791 V 5.7054 L 10.1735,7.7791 H 8.0017 l 1.3422,1.2819 -1.3422,2.0744 2.1718,-1.2819 1.3421,1.2819 V 9.061 l 2.171,-1.2819 z"
     fill="#ffffff"
     id="path6" />
  <path
     d="M 7.1126,17.5735 V 13.4384 L 4.43667,17.5735 H 0.62944 L 2.98299,19.8205 0,24.4296 4.82625,21.5811 7.1126,23.7645 v -3.5328 l 4.5031,-2.6582 z"
     fill="#061922"
     id="path8" />
  <path
     d="M 6.69167,17.9954 V 14.8615 L 4.66431,17.9954 H 1.68132 L 3.52535,19.756 1.32306,23.1592 4.88583,21.0564 6.69167,22.781 V 19.99 l 3.37943,-1.9946 z"
     fill="#0050b5"
     id="path10" />
  <path
     d="M 6.13861,18.5516 V 16.7388 L 4.96528,18.5516 H 3.06701 l 1.17334,1.1201 -1.17334,1.8128 1.89827,-1.1201 1.17333,1.1201 V 19.6717 L 8.0361,18.5516 Z"
     fill="#ffffff"
     id="path12" />
  <path
     d="m 29.8444,3.5681 c -1.8906,0 -3.7034,0.3989 -5.3648,1.1484 V 0 l -3.4421,5.3203 h -4.9439 l 3.0556,2.9183 -0.8464,1.308 V 7.7821 l -3.8691,5.9801 H 8.7465 l 3.5147,3.3563 -4.2068,6.5018 6.8071,-4.0185 1.1244,1.0741 c 0.0779,0.379 0.1704,0.7556 0.2796,1.1277 h -4.0677 l 3.0372,2.8431 -3.9233,6.0637 6.5503,-3.8673 c 0.1711,-0.0959 0.2857,-0.0314 0.4813,0.1243 0.0427,0.0338 0.9212,0.7603 0.9961,0.8193 1.2971,1.0119 3.2862,2.458 5.5718,3.3257 C 26.4894,31.7016 28.1485,32 29.8444,32 37.6498,32 44,25.6226 44,17.7837 44,9.9448 37.6498,3.5673 29.8444,3.5673"
     fill="#061922"
     id="path14" />
  <path
     d="m 29.8444,3.9885 c -2.1259,0 -4.07,0.5002 -5.785,1.3832 V 1.4231 l -2.7943,4.3184 h -4.1204 l 2.5468,2.4319 -1.8089,2.7963 V 9.2052 l -3.2213,4.9782 H 9.7984 l 3.0051,2.8707 -3.426,5.295 5.5435,-3.2728 1.4484,1.384 c 0.1184,0.6022 0.2734,1.1922 0.4675,1.7637 h -3.5758 l 2.5163,2.356 -3.1473,4.8638 5.0188,-2.9628 c 0.123,-0.069 0.246,-0.1066 0.3628,-0.1066 0.175,0 0.369,0.0867 0.592,0.2647 0.1039,0.082 0.8617,0.7142 0.9931,0.8162 1.5744,1.2283 3.4008,2.481 5.4626,3.2651 1.4896,0.5562 3.1021,0.86 4.785,0.86 7.5869,0 13.737,-6.1765 13.737,-13.796 0,-7.6195 -6.1501,-13.7959 -13.737,-13.7959 z"
     fill="#0050b5"
     id="path16" />
  <path
     d="m 29.8444,4.7488 c -2.362,0 -4.5742,0.6367 -6.4816,1.7437 H 23.3124 V 3.9563 l -1.6409,2.5362 h -2.656 l 1.6408,1.5673 -1.6408,2.5363 0.003,-0.0015 c -0.8166,1.2382 -1.4277,2.6244 -1.7867,4.1104 v -3.2965 l -2.2183,3.4277 h -3.5888 l 2.2184,2.1182 -2.2176,3.4277 3.5887,-2.119 2.0885,1.9954 c 0.1474,0.7672 0.3629,1.5091 0.6371,2.2217 l -0.2773,0.5102 h -2.2611 c 0,0 1.3689,1.2819 1.5667,1.4668 l -1.7317,2.6751 2.2267,-1.3141 c 0.7013,-0.3951 1.3032,-0.191 1.8166,0.2186 0.2345,0.1872 3.0647,2.7848 6.1737,3.9425 1.4308,0.5332 2.9753,0.8393 4.5917,0.8393 7.1684,0 12.98,-5.8366 12.98,-13.0357 0,-7.1991 -5.8116,-13.0357 -12.98,-13.0357"
     fill="#ffffff"
     id="path18" />
  <path
     d="m 21.0994,9.7752 c 0.8746,-0.5339 2.0304,-0.8953 3.2205,-0.8953 4.8003,0 8.2073,4.1803 11.8373,4.5662 C 35.1855,10 32.8312,7.2873 29.8069,6.3959 28.5809,6.0345 27.2785,6.1112 26.0677,6.5194 24.1427,7.1692 22.4385,8.3015 21.0994,9.7752 Z"
     fill="#2155a5"
     id="path20" />
  <path
     d="m 30.9994,5.9555 c 3.1212,0.9567 5.435,3.9241 6.422,7.473 C 39.202,13.1584 39.9858,11.888 39.3678,10.728 37.4267,8.0913 34.4277,6.2892 30.9994,5.9555 Z"
     fill="#2155a5"
     id="path22" />
  <path
     d="m 19.5632,17.5666 c 0,0 10.1628,-0.2478 17.1592,-0.356 -0.0282,-0.8339 -0.1146,-1.6433 -0.2582,-2.422 -4.5665,-0.2654 -7.8894,-4.8247 -12.6041,-4.8247 -2.5033,0 -4.1846,1.4799 -5.0914,3.6264 -0.4896,1.305 -0.76,2.7173 -0.76,4.1941 0,1.4768 0.275,2.9183 0.7746,4.2332 0.9067,2.1458 2.5727,3.608 5.076,3.608 4.7147,0 8.0376,-4.5585 12.6042,-4.8247 0.1436,-0.7779 0.2299,-1.5872 0.2582,-2.4219 -6.9965,-0.1082 -17.1593,-0.356 -17.1593,-0.356 v -0.4572 z"
     fill="#0050b5"
     id="path24" />
  <path
     d="m 37.7247,14.7534 c 0.1489,0.7955 0.2375,1.6118 0.2681,2.4388 1.4804,-0.02 2.75,-0.0315 3.6682,-0.0307 -0.0917,-1.733 -0.547,-3.3663 -1.304,-4.8232 0.0237,1.173 -0.906,2.1696 -2.6316,2.4151"
     fill="#2155a5"
     id="path26" />
  <path
     d="m 36.1572,22.1442 c -3.63,0.3859 -7.037,4.5662 -11.8373,4.5662 -1.168,0 -2.3016,-0.3491 -3.1709,-0.8669 0.2292,0.2493 0.4668,0.491 0.7158,0.7196 1.2841,1.1784 2.8287,2.0736 4.536,2.5938 1.0549,0.3214 2.1839,0.3713 3.248,0.0821 3.0991,-0.8424 5.5191,-3.5888 6.5084,-7.0955"
     fill="#2155a5"
     id="path28" />
  <path
     d="m 39.3983,24.7979 c 0.5561,-1.1416 -0.2284,-2.3714 -1.9761,-2.636 -0.9786,3.5159 -3.2588,6.458 -6.3357,7.443 3.4107,-0.3567 6.3884,-2.1695 8.3118,-4.807 z"
     fill="#2155a5"
     id="path30" />
  <path
     d="m 41.6602,18.4288 c -0.9182,8e-4 -2.1878,-0.0099 -3.6682,-0.0306 -0.0298,0.827 -0.1192,1.6425 -0.2681,2.4388 1.7218,0.2455 2.6507,1.2382 2.6316,2.4073 0.7509,-1.4553 1.213,-3.084 1.3055,-4.8124 0,-8e-4 -8e-4,-0.0015 -0.0016,-0.0031"
     fill="#2155a5"
     id="path32" />
</svg>
