<?xml version="1.0" encoding="UTF-8" standalone="no"?>
<!-- Generator: Adobe Illustrator 21.0.0, SVG Export Plug-In . SVG Version: 6.00 Build 0)  -->

<svg
   version="1.1"
   id="Layer_2"
   x="0px"
   y="0px"
   viewBox="0 0 266.20001 303.70001"
   xml:space="preserve"
   sodipodi:docname="sac.svg"
   width="266.20001"
   height="303.70001"
   inkscape:version="1.1.2 (b8e25be8, 2022-02-05)"
   xmlns:inkscape="http://www.inkscape.org/namespaces/inkscape"
   xmlns:sodipodi="http://sodipodi.sourceforge.net/DTD/sodipodi-0.dtd"
   xmlns="http://www.w3.org/2000/svg"
   xmlns:svg="http://www.w3.org/2000/svg"><defs
   id="defs50" /><sodipodi:namedview
   id="namedview48"
   pagecolor="#ffffff"
   bordercolor="#666666"
   borderopacity="1.0"
   inkscape:pageshadow="2"
   inkscape:pageopacity="0.0"
   inkscape:pagecheckerboard="0"
   showgrid="false"
   inkscape:zoom="1.54"
   inkscape:cx="132.14286"
   inkscape:cy="155.84416"
   inkscape:window-width="1296"
   inkscape:window-height="838"
   inkscape:window-x="0"
   inkscape:window-y="33"
   inkscape:window-maximized="0"
   inkscape:current-layer="Layer_2" />
<style
   type="text/css"
   id="style2">
	.st0{fill:#FFFFFF;}
	.st1{fill:#63717A;}
	.st2{fill:#592D81;}
</style>
<g
   id="Layer_2_1_"
   transform="translate(-67.6,-44)">
	<path
   class="st0"
   d="M 333.8,44 295.7,82.3 263.8,50.5 231.9,82.3 200,50.4 168.2,82.2 136.4,50.4 104.6,82.3 67.6,44.8 v 169.3 c 0,73.7 59.1,133.6 132.7,133.6 73.6,0 133.5,-59.9 133.5,-133.6 V 44 Z"
   id="path4" />
	<path
   class="st1"
   d="m 79.5,237.3 c 3.1,16 9.4,30.9 18.5,44.7 5.6,-9.8 16.6,-21.7 38.4,-26.9 -1.6,-5.6 -3.1,-11.5 -4.4,-17.7 z"
   id="path6" />
	<path
   class="st1"
   d="m 106.7,293.4 c 23.5,27.6 57.4,43.4 93,43.6 -3.4,-1.7 -6.6,-3.6 -9.9,-5.7 -15.1,-9.8 -35.9,-28.8 -49.3,-64.1 -21.1,4.7 -30.1,16.7 -33.8,26.2"
   id="path8" />
	<path
   class="st1"
   d="m 153.6,265.5 c 9.6,24 24,42.4 42.8,54.8 12.5,8.2 24.5,11.8 32.3,13.6 19.8,-4.5 38.2,-14.1 53.5,-27.6 -12,-1.3 -24.5,-8.2 -37.4,-15.5 -20.4,-11.4 -45.7,-25.6 -80,-25.6 -3.6,-0.2 -7.4,-0.1 -11.2,0.3"
   id="path10" />
	<path
   class="st2"
   d="m 205,174.9 h -43.9 v 52.4 h 18.3 v -42.1 h 13.7 v 42.1 h 17.4 v -45 c 0,-3.9 -2.5,-7.4 -5.5,-7.4"
   id="path12" />
	<path
   class="st2"
   d="m 218.1,174.9 v 45 c 0,4 2.5,7.4 5.4,7.4 h 28.8 15.2 V 195.4 H 250 v 21.4 h -13.7 v -31.9 h 31.3 v -10.1 z"
   id="path14" />
	<polygon
   class="st2"
   points="96.7,196.2 96.7,174.9 78.4,174.9 78.4,227.4 96.7,227.4 96.7,206.3 102.4,206.3 112.3,227.4 130.5,227.4 117.8,201.3 130.5,174.9 112.3,174.9 102.4,196.2 "
   id="polygon16" />
	<rect
   x="135.3"
   y="174.89999"
   class="st2"
   width="18.799999"
   height="52.400002"
   id="rect18" />
	<path
   class="st2"
   d="M 323,189.2 V 175 h -48.3 v 24 c 0,4 2.5,7.2 5.4,7.2 h 24.6 v 11.4 h -30.1 v 9.9 h 48.3 v -24.1 c 0,-3.7 -2.1,-7.2 -4.8,-7.2 h -25.4 v -11 h 12.7 v 4 z"
   id="path20" />
	<polygon
   class="st2"
   points="287.9,90 263.8,65.9 231.9,97.7 200,65.9 144.2,121.9 128.7,121.9 160.6,89.9 136.5,65.9 104.8,97.7 78.4,71.6 78.4,123.8 78.4,165.4 323,165.4 323,125 323,70.4 271.5,121.9 256.2,121.9 "
   id="polygon22" />
	<path
   class="st0"
   d="m 131.9,155.3 c 0,1.3 1,2.5 2.5,2.5 H 148 v -3.6 H 136.8 V 142.3 H 148 v -3.7 h -16.2 v 16.7 z"
   id="path24" />
	<path
   class="st0"
   d="m 109.4,138.5 v 19.3 h 4.9 v -5 h 6.3 v 5 h 4.9 v -16.9 c 0,-1.4 -1.1,-2.5 -2.8,-2.5 h -13.3 z m 11.2,10.6 h -6.3 v -6.9 h 6.3 z"
   id="path26" />
	<path
   class="st0"
   d="M 311.3,138.5 H 300 c -1.3,0 -2.5,1 -2.5,2.5 v 14.4 c 0,1.3 1,2.5 2.5,2.5 h 11.3 c 1.3,0 2.5,-1.1 2.5,-2.5 V 141 c 0.1,-1.5 -1,-2.5 -2.5,-2.5 m -2.4,15.5 h -6.2 v -11.9 h 6.2 z"
   id="path28" />
	<path
   class="st0"
   d="m 87,147.5 c 0,1.3 1,2.5 2.5,2.5 h 8.7 v 4.2 H 87 v 3.7 h 16.2 v -9.1 c 0,-1.2 -0.9,-2.4 -2.3,-2.5 h -0.1 -8.9 v -4.2 h 11.2 v -3.7 H 87 Z"
   id="path30" />
	<path
   class="st0"
   d="m 190,138.5 h -13.7 v 19.3 h 4.9 v -5 h 6.3 v 5 h 4.9 v -16.9 c 0.1,-1.4 -1.1,-2.4 -2.4,-2.4 m -2.6,10.6 h -6.3 v -6.9 h 6.3 z"
   id="path32" />
	<polygon
   class="st0"
   points="281.5,157.8 286.4,157.8 286.4,142.1 292,142.1 292,138.5 275.8,138.5 275.8,142.1 281.5,142.1 "
   id="polygon34" />
	<path
   class="st0"
   d="m 224,138.5 h -24.9 v 19.3 h 4.9 v -15.6 h 6.2 v 15.6 h 5 v -15.6 h 6.2 v 15.6 h 4.9 v -16.9 c 0.1,-1.4 -1,-2.4 -2.3,-2.4"
   id="path36" />
	<path
   class="st0"
   d="m 268.3,138.5 h -13.8 v 19.3 h 4.9 v -15.6 h 6.3 v 15.6 h 4.9 v -16.9 c 0.2,-1.4 -0.9,-2.4 -2.3,-2.4"
   id="path38" />
	<path
   class="st0"
   d="m 233.2,155.3 c 0,1.3 1,2.5 2.5,2.5 h 13.7 v -3.6 H 238.2 V 150 h 11.2 v -3.7 H 238.2 V 142 h 11.2 v -3.6 h -16.2 z"
   id="path40" />
	<path
   class="st0"
   d="m 167.3,150.7 h 2.7 v -9.9 c 0,-1.4 -1.1,-2.5 -2.8,-2.5 h -13.5 v 19.3 h 4.9 v -7 h 3.6 l 3,7 h 4.8 z m -2.2,-3.7 h -6.3 v -4.9 h 6.3 z"
   id="path42" />
	<path
   class="st1"
   d="m 162.1,252.1 c 26,-0.5 51.9,6.1 84.7,24.7 24.3,13.8 35,18 42.3,16.3 6.7,-1.6 13,-5.7 24,-28.8 4.2,-8.9 7.2,-19.3 8.6,-27 H 145 c 1.2,5.4 2.5,10.7 4.1,15.5 4.2,-0.4 8.7,-0.7 13,-0.7"
   id="path44" />
</g>
</svg>
