<?xml version="1.0" encoding="UTF-8" standalone="no"?>
<!-- Generator: Adobe Illustrator 24.3.0, SVG Export Plug-In . SVG Version: 6.00 Build 0)  -->

<svg
   version="1.1"
   id="Layer_2_1_"
   x="0px"
   y="0px"
   viewBox="0 0 299.60001 298.79999"
   xml:space="preserve"
   sodipodi:docname="tor.svg"
   width="299.60001"
   height="298.79999"
   inkscape:version="1.1.2 (b8e25be8, 2022-02-05)"
   xmlns:inkscape="http://www.inkscape.org/namespaces/inkscape"
   xmlns:sodipodi="http://sodipodi.sourceforge.net/DTD/sodipodi-0.dtd"
   xmlns:xlink="http://www.w3.org/1999/xlink"
   xmlns="http://www.w3.org/2000/svg"
   xmlns:svg="http://www.w3.org/2000/svg"><defs
   id="defs31" /><sodipodi:namedview
   id="namedview29"
   pagecolor="#ffffff"
   bordercolor="#666666"
   borderopacity="1.0"
   inkscape:pageshadow="2"
   inkscape:pageopacity="0.0"
   inkscape:pagecheckerboard="0"
   showgrid="false"
   inkscape:zoom="1.535"
   inkscape:cx="149.5114"
   inkscape:cy="149.18567"
   inkscape:window-width="1296"
   inkscape:window-height="969"
   inkscape:window-x="0"
   inkscape:window-y="25"
   inkscape:window-maximized="0"
   inkscape:current-layer="Layer_2_1_" />
<style
   type="text/css"
   id="style2">
	.st0{clip-path:url(#SVGID_2_);fill:#BC2126;}
</style>
<g
   id="g26"
   transform="translate(-50.3,-50.599998)">
	<defs
   id="defs5">
		<rect
   id="SVGID_1_"
   x="50"
   y="50.599998"
   width="300"
   height="298.79999" />
	</defs>
	<clipPath
   id="SVGID_2_">
		<use
   xlink:href="#SVGID_1_"
   style="overflow:visible"
   id="use7"
   x="0"
   y="0"
   width="100%"
   height="100%" />
	</clipPath>
	<path
   class="st0"
   d="m 250.5,339.2 c 0.2,0.3 0.4,0.7 0.5,0.6 0.8,0 2.3,-0.3 2.3,-0.3 l 1.5,-0.7 4.4,-1.7 c 0,0 10.9,-5.2 11,-5.2 0,0 1.9,-1 1.9,-1 l 1,-0.4 1.2,-0.8 1.9,-1.2 2.3,-1.3 3,-1.9 5.2,-3.6 2.5,-2 3.6,-2.6 3.3,-2.4 1.6,-1.1 2.2,-2 2.3,-2.3 3.6,-3.9 4.2,-4.1 4.9,-5.6 2.7,-3.6 0.9,-1.3 2.9,-3.6 5.6,-8.1 1.6,-2.7 3.8,-7.5 2.2,-4.1 3.6,-7.4 2,-4.5 2.1,-6.9 c 0,0 2.5,-9.1 3.9,-13.9 0.2,-0.5 0.2,-1 -0.1,-1.5 -0.8,-1.1 -1.4,-2.5 -2.1,-3.7 -0.4,-0.6 -0.9,-1.3 -1.3,-1.8 -0.4,-0.5 -1.3,-1.8 -1.7,-2.2 -0.4,-0.5 -0.9,-0.9 -1.4,-1.2 -1.2,-1.1 -2.2,-2.2 -3.2,-2.9 -0.5,-0.3 -0.9,-0.6 -1.3,-0.9 -3.1,-2.4 -6.2,-4.2 -9.7,-5.8 -1.5,-0.6 -3,-1.2 -4.5,-1.7 -1.1,-0.4 -2.8,-0.8 -3.9,-1 -0.6,-0.1 -1.2,-0.1 -1.7,0.2 -0.5,0.3 -0.5,1.1 -0.6,1.8 -0.2,1.9 -0.3,4 -0.4,5.9 -0.2,2 -0.3,3.9 -0.5,5.9 -0.2,1.8 -0.3,3.6 -0.4,5.3 -0.3,2.4 -0.6,4.7 -1.1,7 -0.8,4.4 -1.8,8.7 -2.7,13 -0.2,1.2 -0.4,2.4 -0.9,3.6 -0.8,1.8 -1.4,3.7 -1.7,5.7 -0.8,4.1 -2.3,8 -3.7,11.9 -1.1,3.2 -2.3,6.4 -4.1,9.3 -0.1,0.2 -0.2,0.4 -0.3,0.6 -0.9,2 -1.7,4 -2.6,6 -0.6,1.3 -1.4,2.5 -2,3.7 -0.7,1.6 -1.6,3.1 -2.5,4.6 -1.5,2.4 -3.1,4.6 -4.4,7.1 -0.9,1.7 -2,3.3 -3.1,4.9 -0.3,0.4 -0.6,0.8 -0.8,1.2 -0.9,1.3 -1.7,2.7 -2.7,4 -1.9,2.4 -3.9,4.8 -5.9,7.2 -1.2,1.5 -2.6,2.8 -4,4.2 -1.2,1.3 -2.4,2.6 -3.6,3.8 -0.2,0.3 -0.6,0.5 -0.9,0.7 -0.7,0.6 -1.5,1.2 -2.2,1.9 -1.6,1.6 -3.2,3.1 -5,4.3 -0.8,0.5 -1.6,1.1 -2.3,1.7 -1.8,1.7 -4,3 -6.4,4.3"
   clip-path="url(#SVGID_2_)"
   id="path10" />
	<path
   class="st0"
   d="m 348,222.3 c 0.1,0 0.1,-0.1 0.1,-0.3 0,-0.4 0.1,-1 0.1,-1 l 1.1,-9.5 0.6,-8.9 v -8.8 -1.4 l -1,-10 c 0,0 -1.2,-9 -2.2,-13.7 -0.3,-1.6 -1.4,-2.5 -2.7,-3.1 -0.5,-0.2 -0.9,-0.5 -1.4,-0.6 -1,-0.3 -2.1,-0.8 -3,-1 -2.3,-0.6 -4.4,-1.3 -6.7,-1.7 -2.7,-0.5 -5.4,-0.7 -8.2,-1 -2.3,-0.2 -4.5,-0.3 -6.8,-0.3 -1.8,0 -2.9,0 -4.7,0 -1,0 -2,0 -2.4,0.6 -0.4,0.6 -0.1,1.7 0,2.7 0.3,2.2 0.7,3.3 1.1,5.5 1.1,6.4 2.2,12.8 2.5,19.4 0.1,2.9 0.3,5.9 0.4,8.8 0,0.8 0,1.4 0,2.2 0,0.5 0.1,1.1 0.4,1.4 0.3,0.4 0.7,0.5 1.1,0.6 0.6,0.2 1.1,0.2 1.6,0.4 0.6,0.2 1.6,0.4 2.3,0.6 2.6,0.8 5.4,1.8 7.9,2.8 1.8,0.7 3.5,1.8 5.2,2.7 0.2,0.1 0.4,0.2 0.6,0.4 1,0.7 2,1.5 3,2.2 2.3,1.7 4.8,3.4 6.6,5.8 0.3,0.4 0.8,0.9 1.2,1.3 0.7,0.6 1.9,2.9 2.8,3.9 0.3,0 0.5,0 0.5,0"
   clip-path="url(#SVGID_2_)"
   id="path12" />
	<path
   class="st0"
   d="m 281.1,115.6 c 0.9,0 1.7,-0.1 2.4,-0.2 0.5,0 1,-0.1 1.2,-0.6 0.2,-0.5 -0.2,-1.1 -0.3,-1.3 -0.2,-0.4 -1.9,-3.5 -1.9,-3.5 l -1.7,-2.6 -7,-10.2 -1.5,-1.7 -1.4,-1.8 -2.3,-2.6 -5.7,-6.2 -2.5,-2.4 -8.8,-8.2 -7.2,-5.6 -2.6,-1.4 -8.5,-5.2 -5.9,-3.2 -1.1,-0.5 -4.8,-1.8 -7.2,-2.7 -0.6,-0.1 -2.3,-0.6 -0.6,-0.1 -2,-0.5 -4.3,-0.8 -2,-0.1 -3.8,-0.7 -4.6,-0.3 -1.6,-0.2 h -2.9 l -4.8,0.1 -4.7,0.5 -3.7,0.1 -3.2,0.4 -3.3,0.7 -2.5,0.8 -4.1,0.8 h -0.9 l -3.8,1.4 -2.3,0.6 -1.4,0.8 -3.3,0.9 -1.6,0.9 -2,0.8 -4.9,2.1 -6.3,2.4 -2.1,1 -4.4,2.4 -3.8,2.5 -3.6,1.9 -1.3,0.8 -3.9,2.1 -0.6,0.4 -4.5,3.5 -3.7,2.5 -0.7,0.5 -4.2,3.3 -1.5,1.3 c 0,0 -2.2,1.9 -2.3,2.2 l 1.6,-0.5 c 0,0 2.9,-1.1 2.9,-1 0.1,0 0.6,0.1 0.6,0.1 l 4.1,-1.7 h 0.6 l 4.5,-1.8 c 0,0 2.4,-0.8 2.4,-0.7 0,0.1 2.4,-0.9 2.4,-0.9 l 3.4,-1.2 8.1,-3.1 h 0.7 l 4.2,-1.5 3.3,-1.3 0.5,0.3 c 0,0 6.3,0.2 6.4,0.2 l 4,0.3 0.1,0.1 8.2,0.7 0.1,-0.1 11.3,0.6 0.1,0.3 4,3.4 h 0.3 l 4.1,4 0.4,-0.2 5.5,-0.2 0.3,-0.2 14.2,0.8 0.1,0.3 6.3,3.6 h 0.3 l 11.1,5.4 0.1,0.6 6.3,-2.5 9.3,3.1 1.6,2.6 3.4,0.2 3.3,3.7 h 0.3 l 2.6,3 v 0.2 h 0.4 l 7.3,1.7 2.7,4.2 6.8,2.4 c 0,0 7.3,1.9 11,2.3 3.2,0.6 7.1,0.4 9.7,0.2"
   clip-path="url(#SVGID_2_)"
   id="path14" />
	<path
   class="st0"
   d="m 344.1,158.5 c -0.2,-1.1 -1,-3.2 -1,-3.2 l -0.4,-1.2 -0.4,-1.4 -1.2,-3.6 -1.1,-3.1 -3.5,-7.7 -1.6,-3.8 -2,-4.4 -2.4,-3.9 -0.5,-1.1 -1.6,-3.2 -1.5,-2.4 -0.6,-0.8 -10.1,-13.7 c 0,0 -1,-1.2 -1.5,-1.7 -0.2,-0.3 -0.3,-0.5 -0.6,-0.5 0,0 0,0 -0.1,0 0,0 -3.1,5.1 -4.4,6.5 -1.3,1.4 -3.9,3.8 -3.9,3.8 0,0 -2.2,1.8 -2.6,2.1 -0.4,0.3 -2.1,1.4 -2.1,1.4 l -2.3,1.3 c 0,0 -1.7,0.8 -2,0.9 -0.3,0.1 -0.6,0.2 -0.8,0.5 -0.2,0.2 -0.2,0.4 -0.2,0.8 0.1,0.3 0.2,0.6 0.3,0.9 0.9,1.9 1.8,3.9 2.8,5.9 1.6,2.8 2.5,5.9 3.8,8.8 0.4,1 0.8,2 1.2,3 0.9,2.6 1.7,5.3 2.5,7.9 0.3,1.2 0.7,2.3 1.1,3.5 0.3,1.2 0.6,2.3 0.9,3.5 0.2,0.8 0.7,1.1 1.5,1.1 0.8,0 1.5,0 2.3,-0.1 2.7,-0.1 5.4,-0.2 8.1,-0.2 0.8,0 6.2,0.5 6.2,0.5 0,0 1.9,0.2 2.9,0.4 2.1,0.4 4.1,0.8 6.2,1.3 1.7,0.4 3.5,1 5.1,1.7 0.8,0.4 1.6,0.6 2.5,0.8 0.3,0.1 0.7,0.1 0.7,0.1 0.3,-0.3 0.4,-0.6 0.3,-0.7"
   clip-path="url(#SVGID_2_)"
   id="path16" />
	<path
   class="st0"
   d="m 308.7,98 c -0.1,-0.4 -0.8,-1.5 -0.8,-1.5 l -0.5,-0.9 -1.5,-1.7 -1,-1.4 -1.8,-1.8 c 0,0 -0.4,-0.3 -0.6,-0.5 -3.2,-2.6 -9.7,-7.8 -9.7,-7.9 0,0 -1.8,-1.4 -1.8,-1.4 L 287.7,78 270.9,67.9 257.7,61.6 c 0,0 -7,-2.8 -7,-2.7 0,0 -2.6,-0.9 -2.6,-0.9 0,0 -8.6,-3 -8.6,-3 l -6.1,-1.5 -5.9,-1.3 -0.9,-0.1 -0.5,0.5 0.2,0.3 c 0,0 0.6,0.3 0.9,0.4 1.8,0.7 3.7,1.4 5.5,2.1 1.2,0.5 2.3,1.1 3.6,1.5 0.9,0.3 1.6,0.6 2.4,1 2.8,1.6 5.6,3.3 8.4,4.9 1.7,1 3.2,2.2 4.6,3.5 1.1,1 2.2,2 3.5,2.7 0.6,0.3 1.1,0.8 1.6,1.3 0.3,0.2 0.6,0.5 0.9,0.7 1.6,1.3 3.4,2.5 4.9,4.1 1.5,1.7 3.2,3.3 4.8,4.9 1.5,1.5 3.1,3 4.4,4.8 1.1,1.4 2.2,2.8 3.5,4.1 2.4,2.4 4.3,5.3 6.5,7.8 0.3,0.3 0.4,0.7 0.7,1.1 1.4,2.2 2.7,4.6 4.4,6.7 1.2,1.4 2.3,3 3.1,4.7 0.5,1 1.2,2 1.9,2.9 0.4,0.5 1,0.8 1.3,0.8 0.3,0 0.9,-0.3 0.9,-0.3 l 1.2,-0.5 c 0,0 1.6,-0.7 2.1,-0.9 0.5,-0.3 1.6,-0.8 1.9,-1.2 0.4,-0.3 2,-1.4 2.9,-2.3 0.9,-0.8 2.7,-2.9 2.7,-2.9 l 1.3,-1.7 2.2,-3.7 c 0,-0.1 0.4,-1 0.3,-1.4"
   clip-path="url(#SVGID_2_)"
   id="path18" />
	<path
   class="st0"
   d="m 301.7,153.9 c -0.9,-2.8 -1.6,-5.4 -2.6,-8.2 -0.8,-2.3 -1.4,-4.6 -2.5,-6.7 -0.6,-1.3 -0.9,-2.7 -1.4,-4.1 -0.3,-0.7 -0.6,-1.3 -0.8,-2 -1.2,-3.5 -2.9,-6.4 -4.6,-9.7 -0.1,-0.2 -0.2,-0.3 -0.3,-0.6 -0.2,-0.3 -0.3,-0.6 -0.7,-0.8 -0.4,-0.2 -0.8,-0.1 -1.5,0 -1.4,0.2 -3.2,0.3 -4,0.3 -0.7,0 -3.5,0.2 -5.7,0.4 l -0.5,-0.2 h -1.4 -1.3 l -7.3,-0.9 c -2.6,-0.4 -8.7,-1.9 -8.7,-1.9 l -4.4,-1.5 -5.5,-1.9 -0.4,0.2 -8.5,-0.7 -0.3,0.2 -4.8,-3.7 H 234 l -3,-2.7 -0.1,-0.6 -3.3,-0.5 -0.3,0.1 -2.7,-0.9 -0.3,-0.3 -6.3,0.5 -5.7,-2.3 -19.7,1 -0.3,-0.2 -3.7,0.3 -0.4,0.3 -9.7,0.7 -0.3,-0.2 -13.8,8 -0.2,0.6 -0.6,0.6 -0.3,-0.2 -6.9,-0.6 -0.4,0.2 -12.3,0.1 -0.3,-0.1 -3.5,-0.1 -1.1,-0.6 -12.9,10 v 0.3 l -4.5,3.6 -5.1,-2.4 -0.3,0.1 -1.9,-0.6 c 0,0 -9.3,2.3 -9.2,2.4 0.1,0 -8.6,-1.4 -8.6,-1.4 l -0.6,-0.5 -1.6,1.7 -3.5,1.7 -0.1,0.3 -6.9,5.3 -9.8,7.1 -11,8.2 -5,3.6 -0.3,2.1 -2.1,4.8 -0.9,4.2 -1.4,8.4 -0.8,3.7 -0.3,4.4 -1.2,9.1 -0.5,20 0.5,1.2 0.3,5.5 c 0,0 0.1,1 0.3,1 0,0 0,0 0,0 l 24.5,-25.3 8,-3.3 6.7,-0.3 4.1,-4.7 0.4,-0.9 0.5,0.2 11,-1.2 0.5,-0.3 h 4.1 l 0.6,0.2 1.3,-1.8 4.9,-3.1 5.3,-3.6 14.8,0.2 0.1,0.3 5.8,0.6 4.5,-0.9 8.3,-8.5 h 0.2 l 6.6,-6.3 9.9,-1.3 0.4,-0.3 0.4,0.4 5.1,2.4 0.4,-0.3 4.5,-0.6 0.2,-0.3 4.3,-0.7 0.4,-0.2 4.7,4 0.3,-0.3 9.6,-0.2 0.8,-0.6 7.7,0.4 0.4,0.1 1.2,-0.3 0.2,-0.3 3.1,-1.4 h 0.4 l 3.5,-1.6 0.3,-0.3 3.8,-1.4 0.3,-0.4 10.5,-4 0.1,-0.2 1.9,-0.6 0.4,-0.4 0.5,0.6 3.1,1.5 h 0.9 l 3.4,1.9 0.2,-0.3 1,-0.5 h 0.1 l 1.7,-0.8 0.1,-0.1 2.4,-0.6 6.3,1.6 1.3,-0.3 1.1,0.8 4.6,0.7 4.5,1.7 c 0,0 2.6,-0.2 2.6,-0.2 0,0 0.8,0.6 0.8,0.6 l 0.7,-0.4 c 0,0 8.9,-1.1 13.3,-1.5 2.9,-0.2 5.8,-0.5 8.7,-0.8 1.6,-0.2 3.2,-0.3 4.9,-0.5 1,0 1.4,-0.4 1.1,-1.4"
   clip-path="url(#SVGID_2_)"
   id="path20" />
	<path
   class="st0"
   d="m 308.2,199.4 c 0,-0.6 -0.1,-1 -0.1,-1.6 -0.1,-1.7 -0.2,-3.4 -0.3,-5.1 0,-0.6 -0.1,-1.2 -0.1,-1.7 -0.1,-2.1 -0.2,-4.2 -0.4,-6.4 -0.3,-2.7 -0.7,-5.4 -1.1,-8 -0.3,-2.1 -0.7,-4.2 -1.1,-6.2 -0.4,-2.2 -0.7,-4.1 -1.2,-6.3 -0.5,-2.2 -0.9,-2.5 -3.2,-2.2 -0.2,0 -0.4,0 -0.6,0.1 -0.8,0.2 -2,0.3 -2.8,0.4 -4.4,0.6 -8.4,0.8 -12.8,1.3 l -12.5,4.4 -18,-0.5 -2,-0.6 v 0.3 l -5.3,3.9 -0.7,0.1 -4.2,3.9 -0.2,0.6 -10.8,1.4 -9.9,7.6 h -1 l -5.3,3.1 -2.1,0.2 -2.1,1.7 -0.5,-0.4 -10.1,-0.7 -1.7,2 v 0.3 l -8.7,9.5 -0.1,0.5 H 189 l -11,12.6 -3.1,0.1 -0.2,0.3 -9.1,1.6 h -0.7 c 0,0 -0.2,0.4 -0.2,0.4 -0.1,0 -15,8.3 -15,8.3 l -6.7,-0.8 -1.4,0.5 -6.7,-0.4 -6.6,7.2 -4,0.8 -2.3,-0.1 -2.3,1 -1.4,-0.2 0.1,0.3 -8.4,6.4 -0.8,0.1 -12.9,10 0.1,0.6 -8,19.3 0.3,0.8 -13.2,1.2 -4.3,3.7 -0.4,1.4 5.9,8.1 4.3,6.6 3.7,4.8 6.1,6.6 c 0,0 0,0.5 0.2,0.5 0.1,0.1 0.8,0.1 0.8,0.1 0,0 3.6,1.2 3.7,1.2 0,0 4.5,1.4 4.5,1.4 0,0 0.1,0.2 0.1,0.2 0,0 0.4,-0.1 0.4,-0.1 l 7.4,2.9 h 0.6 l 0.4,0.5 h 0.7 c 0.1,0 1.8,1.2 1.8,1.2 l 3.1,-1.7 h 0.2 l 1.4,-0.9 11.3,2.8 8.3,-4.2 18.4,-1.8 7.5,-12.1 c 1.2,-1.2 3.4,-3.4 3.4,-3.4 h 0.3 c 0,0 2.6,-2.4 2.6,-2.4 0,-0.1 0,-0.3 0,-0.3 l 4.7,-4.3 2.2,-2.3 c 0,0 0.5,-0.3 0.5,-0.3 0.1,0 2.5,-2.6 2.5,-2.6 l 2.1,-2.1 0.5,-0.1 -0.5,-1.9 2.1,-7.8 4.1,-1.2 0.2,-0.2 1.2,-0.3 v -0.7 l 5.5,-9 0.5,-0.2 2.3,-4.4 3.8,-2.1 0.5,-0.6 0.7,0.1 c 0,0 2.2,-1.3 2.3,-1.3 h 0.2 l 4.1,-1.8 0.3,-0.5 13.5,-6.2 0.8,-0.1 0.2,-0.7 0.5,-0.4 1.4,-4.7 4.3,-1.8 4.9,-0.6 4.5,-3.1 6.4,0.3 0.6,0.5 0.3,-0.4 8.9,-4 v -1.2 l 2.2,-4.1 4.4,-1.2 0.2,-0.3 6,-1.3 2.3,-2.7 0.3,-0.1 c 0,0 1.4,-1.3 1.4,-1.4 0,0 4.1,0.6 4.1,0.6 l 0.2,0.2 2.3,0.3 1.4,0.2 c 0,0 6.1,-2.8 8.6,-3.8 1.1,-0.4 2.1,-0.7 3.1,-1 1.4,-0.5 2.8,-1 4.2,-1.5 0.7,-0.2 1.4,-0.4 2.1,-0.6 l 2.8,-0.5 3.3,-0.6 2,-0.1 c 0,0 1,-0.1 1.3,-0.2 0.3,-0.1 0.9,-0.1 1.4,-0.4 0.4,-0.4 0.4,-0.8 0.5,-1.2 0.1,-0.3 0.1,-0.5 0.1,-1"
   clip-path="url(#SVGID_2_)"
   id="path22" />
	<path
   class="st0"
   d="m 308.1,211.2 c 0,-0.5 0.1,-1.3 -0.3,-1.7 -0.4,-0.4 -0.9,-0.5 -1.2,-0.5 -0.3,0 -1.9,0.2 -1.9,0.2 l -2.6,0.4 c -0.3,0 -0.6,0.1 -0.9,0.2 -1.6,0.4 -3.1,0.7 -4.7,1.1 -1.7,0.5 -3.5,1 -5.1,1.7 -1.7,0.8 -3.7,1.4 -5.4,2.2 -0.6,0.3 -6.4,3.1 -9,4.4 l -3.4,3.6 -0.1,0.8 -0.4,-0.2 -2.1,0.1 -0.1,0.2 -6.9,2.3 v 0.8 l -0.7,0.7 v 0.4 l -3.2,5.7 h -0.4 l -0.1,0.6 c 0,0 -0.6,1.1 -1.4,2.3 l -14.5,9.3 h -0.3 l -2.2,1.8 -1.5,6.1 -1.4,1.4 -5.7,20.9 0.8,2.4 -8.4,4 h -1.4 l -1.6,7.3 -0.3,0.2 -2.1,6.6 0.1,0.4 -0.8,5.7 -0.3,0.4 0.3,0.5 -8.1,12.8 -0.6,0.2 -2,3.1 -0.1,0.6 c 0,0 -6.9,9.7 -6.9,9.7 0,0 -7.3,4.3 -7.3,4.3 l 0.4,0.6 c 0,0.1 -0.4,2.9 -0.4,2.9 l 0.6,1.1 -1,0.3 -5.3,3.1 -0.5,-0.1 -7.7,4.6 -0.9,1.4 c 0,0.1 3,0.4 3,0.4 l 5,0.4 3.4,0.2 4,0.1 1.8,0.1 3,0.1 3,-0.1 10.8,-1.3 6.4,-1.1 4.8,-1.3 5.3,-1.5 6.7,-2.7 0.5,-0.3 1.9,-1.1 c 0,0 5.4,-2.9 7.9,-4.7 4.2,-3.2 8.4,-6.3 12.2,-9.9 1.3,-1.2 2.6,-2.5 3.9,-3.8 1.2,-1.2 2.4,-2.4 3.7,-3.6 0.2,-0.2 0.5,-0.4 0.6,-0.7 0.4,-1 1.2,-1.7 1.9,-2.4 0.5,-0.5 1,-1 1.4,-1.7 0.8,-1.3 2.1,-2.2 3.1,-3.3 0.9,-0.8 1.7,-1.8 2.4,-2.8 1.3,-1.8 2.5,-3.7 3.7,-5.5 1.6,-2.5 3.4,-4.8 4.8,-7.4 1.5,-2.8 2.9,-5.5 4.5,-8.2 1.3,-2.3 2.7,-4.6 3.7,-7.1 1.7,-4.1 3.4,-8.1 5,-12.2 1.7,-4.4 3,-8.8 4.2,-13.3 0.9,-3.4 1.4,-6.8 2.6,-10.1 0.2,-0.4 0.2,-0.9 0.3,-1.3 0.5,-2.8 0.9,-5.5 1.4,-8.2 0.4,-2.6 0.8,-5.2 1.1,-7.8 0.3,-1.8 0.6,-3.5 0.7,-5.3 0.2,-2.5 0.3,-4.9 0.4,-7.4 0,-0.3 0,-0.8 0,-0.8 0,0 -0.2,-0.8 -0.1,-1.3"
   clip-path="url(#SVGID_2_)"
   id="path24" />
</g>
</svg>
