<?xml version="1.0" encoding="UTF-8" standalone="no"?>
<svg
   id="Layer_1"
   version="1.1"
   viewBox="0 0 576 391.20001"
   sodipodi:docname="uta.svg"
   width="576"
   height="391.20001"
   inkscape:version="1.1.2 (b8e25be8, 2022-02-05)"
   xmlns:inkscape="http://www.inkscape.org/namespaces/inkscape"
   xmlns:sodipodi="http://sodipodi.sourceforge.net/DTD/sodipodi-0.dtd"
   xmlns="http://www.w3.org/2000/svg"
   xmlns:svg="http://www.w3.org/2000/svg">
  <sodipodi:namedview
     id="namedview23"
     pagecolor="#ffffff"
     bordercolor="#666666"
     borderopacity="1.0"
     inkscape:pageshadow="2"
     inkscape:pageopacity="0.0"
     inkscape:pagecheckerboard="0"
     showgrid="false"
     inkscape:zoom="0.95061728"
     inkscape:cx="287.70779"
     inkscape:cy="195.66234"
     inkscape:window-width="1296"
     inkscape:window-height="838"
     inkscape:window-x="0"
     inkscape:window-y="33"
     inkscape:window-maximized="0"
     inkscape:current-layer="Layer_1" />
  <!-- Generator: Adobe Illustrator 29.5.1, SVG Export Plug-In . SVG Version: 2.1.0 Build 141)  -->
  <defs
     id="defs4">
    <style
       id="style2">
      .st0 {
        fill: #4e008e;
      }
    </style>
  </defs>
  <path
     class="st0"
     d="M 576,0.1 519.7,120.9 H 294.2 l -71.1,152.4 h -63.7 c 0.5,-7.6 2,-15.2 4.5,-22.7 6.1,-18.4 17.6,-33.5 32,-44.4 3.8,4.3 7.2,9 10.3,14 0.5,0.8 1.4,0.7 1.8,0 v 0 L 310.7,0 H 576 Z"
     id="path6" />
  <path
     class="st0"
     d="M 53.8,320.6 C 47.4,333.5 38.2,344.4 27,352.7 17.7,341.9 10.3,329.2 5.5,314.8 2.3,305.2 0.5,295.4 0,285.8 h 63.3 c -0.8,12 -4,23.7 -9.5,34.8"
     id="path8" />
  <path
     class="st0"
     d="m 105.2,285.8 v 105.4 c -25.9,-1.5 -50.5,-12 -69.4,-29.4 12.1,-9.4 22.1,-21.4 29.1,-35.5 6.4,-12.8 10.1,-26.5 10.9,-40.4 h 29.3 z"
     id="path10" />
  <path
     class="st0"
     d="m 58.8,250.7 c 2.5,7.4 4,15 4.5,22.7 H 0 c 1.4,-24.8 11,-48.3 27,-66.8 14.4,10.8 25.7,25.9 31.8,44.2"
     id="path12" />
  <path
     class="st0"
     d="M 105.2,168 V 273.4 H 75.8 c -0.5,-8.9 -2.2,-17.9 -5.2,-26.6 -6.8,-20.3 -19.2,-37.1 -34.9,-49.3 11.3,-10.5 25,-18.8 40.6,-24 9.6,-3.2 19.3,-5 28.9,-5.5"
     id="path14" />
  <path
     class="st0"
     d="M 147,273.3 H 117.7 V 167.9 c 25.9,1.4 50.6,11.9 69.5,29.3 -16.3,12.5 -28.4,29.5 -35.1,49.5 -2.9,8.7 -4.6,17.6 -5.1,26.6"
     id="path16" />
  <path
     class="st0"
     d="m 187.2,361.9 c -11.3,10.4 -24.9,18.6 -40.3,23.7 -9.7,3.2 -19.5,5 -29.2,5.5 V 285.7 H 147 c 0.9,13.9 4.5,27.5 10.9,40.4 7.1,14.2 17.2,26.3 29.4,35.7"
     id="path18" />
  <path
     class="st0"
     d="m 223.1,285.8 c -1.4,24.8 -11.1,48.5 -27.2,67.1 -11.3,-8.4 -20.5,-19.4 -27,-32.3 -5.5,-11 -8.7,-22.8 -9.6,-34.8 z"
     id="path20" />
</svg>
