<?xml version="1.0" encoding="UTF-8" standalone="no"?>
<!-- Generator: Adobe Illustrator 24.0.1, SVG Export Plug-In . SVG Version: 6.00 Build 0)  -->

<svg
   version="1.1"
   id="Layer_2_1_"
   x="0px"
   y="0px"
   viewBox="0 0 300 300.10001"
   xml:space="preserve"
   sodipodi:docname="was.svg"
   width="300"
   height="300.10001"
   inkscape:version="1.1.2 (b8e25be8, 2022-02-05)"
   xmlns:inkscape="http://www.inkscape.org/namespaces/inkscape"
   xmlns:sodipodi="http://sodipodi.sourceforge.net/DTD/sodipodi-0.dtd"
   xmlns="http://www.w3.org/2000/svg"
   xmlns:svg="http://www.w3.org/2000/svg"><defs
   id="defs30" /><sodipodi:namedview
   id="namedview28"
   pagecolor="#ffffff"
   bordercolor="#666666"
   borderopacity="1.0"
   inkscape:pageshadow="2"
   inkscape:pageopacity="0.0"
   inkscape:pagecheckerboard="0"
   showgrid="false"
   inkscape:zoom="1.54"
   inkscape:cx="149.67532"
   inkscape:cy="150"
   inkscape:window-width="1296"
   inkscape:window-height="838"
   inkscape:window-x="0"
   inkscape:window-y="33"
   inkscape:window-maximized="0"
   inkscape:current-layer="Layer_2_1_" />
<style
   type="text/css"
   id="style2">
	.st0{fill:#FFFFFF;}
	.st1{fill:#C4CDD3;}
	.st2{fill:#002B5C;}
	.st3{fill:#E21936;}
</style>
<g
   id="Layer_2_2_"
   transform="translate(-50,-50)">
	<path
   class="st0"
   d="M 200.3,53.4 H 200 c -80.9,0 -146.4,65.5 -146.7,146.4 v 0.3 c 0,80.9 65.5,146.5 146.4,146.7 h 0.1 0.1 v 0 c 80.9,0 146.5,-65.5 146.7,-146.4 v -0.1 -0.1 C 346.7,119.2 281.2,53.5 200.3,53.4"
   id="path4" />
	<path
   class="st1"
   d="M 350,199.6 C 349.8,117 282.7,50 200.1,50 H 200 199.7 C 117,50.2 50,117.3 50,199.9 v 0.2 0.1 C 50.1,283 117.2,350 199.9,350.1 v 0 0 h 0.1 0.1 c 82.8,-0.1 149.7,-67.2 149.8,-149.8 0,-0.1 0,-0.1 0,-0.2 0,-0.1 0.1,-0.3 0.1,-0.5 m -3.3,0.6 v 0 c -0.1,81 -65.6,146.5 -146.7,146.5 v 0 h -0.1 -0.1 C 118.9,346.6 53.4,281 53.4,200.1 v -0.3 C 53.5,118.9 119.2,53.4 200.1,53.4 h 0.3 c 80.9,0.2 146.3,65.8 146.3,146.7 z"
   id="path6" />
	<path
   class="st2"
   d="m 151,166.7 c 15.3,-15.3 21.6,-33 21.6,-33 l 3.4,-12.4 0.8,-2.9 -15.7,-8.8 c 0,0 -9.1,-6.3 -29.5,5.5 -23.8,14.1 -43.2,32.3 -53.3,51.5 -5.6,10.6 -10,23.1 -12.3,37 0.7,26.5 9.1,51 23.1,71.6 -3.9,-38.2 33,-80 61.9,-108.5"
   id="path8" />
	<path
   class="st2"
   d="m 268.6,115.2 c -20.3,-11.9 -29.5,-5.5 -29.5,-5.5 l -15.7,8.8 0.8,2.9 3.4,12.4 c 0,0 6.4,17.8 21.6,33 28.8,28.4 65.4,70 61.8,108.1 13.9,-20.7 22.3,-45.6 22.7,-72.3 -2.3,-13.5 -6.7,-25.4 -12.1,-35.8 -9.9,-19.3 -29.3,-37.5 -53,-51.6"
   id="path10" />
	<path
   class="st3"
   d="m 219.5,92.4 c 53.5,6 88.7,36.3 106.8,63.3 -13.6,-38.9 -44.8,-69.6 -83.9,-82.5 -8.5,2.4 -18.1,7.8 -22.9,19.2"
   id="path12" />
	<path
   class="st3"
   d="m 180.7,92.4 c -4.8,-11.3 -14.4,-16.7 -23.1,-19.2 -39.4,13.2 -70.7,44 -84.2,83.2 18.1,-27.1 53.4,-58 107.3,-64"
   id="path14" />
	<path
   class="st3"
   d="M 189.5,90.7 200.2,75 210.8,90.7 c 4.3,-11.6 11,-18 17.8,-21.6 -9.2,-2 -18.7,-3.1 -28.3,-3.1 -9.8,0 -19.2,1.1 -28.5,3 6.7,3.7 13.4,10.1 17.7,21.7"
   id="path16" />
	<path
   class="st2"
   d="M 272.8,208.1 C 251.1,173 201.7,137.4 200,136.3 c -1.6,1.1 -50.9,36.7 -72.8,71.8 -29.4,47.5 -25.5,75 -17.9,90.6 18.9,17.5 42.8,29.4 69.5,33.6 l 11.5,-162.3 9.5,-9.5 0.1,-0.1 v 0 0 l 0.1,0.1 9.5,9.5 11.7,162 -0.2,0.1 c 26.8,-4.2 50.9,-16.4 69.8,-34 7.7,-15.5 11.2,-42.9 -18,-90"
   id="path18" />
	<polygon
   class="st1"
   points="200.3,344.1 221,332.2 221.2,332.1 209.7,170 200.2,160.4 "
   id="polygon20" />
	<path
   class="st1"
   d="m 200.1,123.9 -4.2,3.1 -17.5,12.8 4.6,-16.7 0.8,-2.9 1.5,-5.6 -5,-2.7 -16.5,-8.9 c 8.2,-1.8 16.7,-3 25.4,-3.6 l 4.2,-0.3 0.2,-0.3 1.6,-3.4 0.3,-0.5 v 0 l 4.7,-9.4 4.8,9.9 v 0 l 0.1,0.2 1.6,3.4 0.2,0.3 4.2,0.3 c 8.6,0.5 17,1.6 25.4,3.6 l -16.5,8.9 -5,2.7 1.5,5.6 0.8,2.9 4.6,16.7 -17.5,-12.8 -4.2,-3.1 V 124 h -0.1 z"
   id="path22" />
	<path
   class="st1"
   d="m 200.3,123.9 v 0 l 4.2,3.2 17.5,12.8 -4.6,-16.7 -0.8,-2.9 -1.5,-5.6 5,-2.7 16.5,-8.9 c -8.2,-1.8 -16.7,-3 -25.4,-3.6 l -4.2,-0.3 -0.2,-0.3 -1.6,-3.4 -0.1,-0.2 -4.8,-9.9 -4.7,9.4 v 0 l -0.3,0.5 -1.6,3.4 -0.2,0.3 -4.2,0.3 c -8.6,0.5 -17,1.6 -25.4,3.6 l 16.5,8.9 5,2.7 -1.4,5.6 -0.8,2.9 -4.6,16.7 17.5,-12.8 4.2,-3.1 v -0.1 0.2 z"
   id="path24" />
</g>
</svg>
