<?xml version="1.0" encoding="UTF-8" standalone="no"?>
<svg
   height="381.38779"
   width="168"
   version="1.1"
   viewBox="0 0 168 381.38779"
   id="svg22"
   sodipodi:docname="g-league.svg"
   inkscape:version="1.1.2 (b8e25be8, 2022-02-05)"
   xmlns:inkscape="http://www.inkscape.org/namespaces/inkscape"
   xmlns:sodipodi="http://sodipodi.sourceforge.net/DTD/sodipodi-0.dtd"
   xmlns="http://www.w3.org/2000/svg"
   xmlns:svg="http://www.w3.org/2000/svg">
  <defs
     id="defs26" />
  <sodipodi:namedview
     id="namedview24"
     pagecolor="#ffffff"
     bordercolor="#666666"
     borderopacity="1.0"
     inkscape:pageshadow="2"
     inkscape:pageopacity="0.0"
     inkscape:pagecheckerboard="0"
     showgrid="false"
     inkscape:zoom="1.4945418"
     inkscape:cx="83.972223"
     inkscape:cy="190.69389"
     inkscape:window-width="1296"
     inkscape:window-height="792"
     inkscape:window-x="0"
     inkscape:window-y="25"
     inkscape:window-maximized="0"
     inkscape:current-layer="svg22" />
  <path
     d="M 128.65307,0 H 39.34694 A 39.35643,39.35643 0 0 0 0,39.29253 v 302.74832 a 39.44954,39.44954 0 0 0 39.40136,39.34694 h 89.25171 A 39.368,39.368 0 0 0 168,342.04085 V 39.347 A 39.40295,39.40295 0 0 0 128.65307,0 Z"
     fill="#ffffff"
     id="path2" />
  <path
     d="m 155.53742,222.80272 c 0.2721,-0.16326 0.48979,-0.27209 0.54421,-0.59863 0.0544,-0.21769 -0.38095,-0.87075 -0.59864,-1.2517 a 14.84935,14.84935 0 0 1 -1.25169,-5.11565 c 0,0 -0.54423,-8.54421 -1.85035,-15.78231 a 40.67961,40.67961 0 0 0 -0.65306,-4.62585 c -0.32653,-1.57824 -2.34014,-8.381 -3.102,-11.42858 0,0 -2.01361,-9.30612 -3.53741,-15.45578 -2.17688,-8.87074 -6.966,-14.53061 -9.57823,-19.102 -1.85035,-8.43539 -5.76871,-20.02723 -9.7415,-24.54422 -1.19729,-5.00682 -1.85034,-10.449 -4.7347,-14.36734 -3.04762,-4.13609 -5.38776,-5.33337 -10.17687,-6.47621 -0.54422,-0.10884 -0.9796,-0.32652 -1.415,-0.43538 a 2.87374,2.87374 0 0 0 -0.65306,-1.14287 c 0,0 -3.31973,-1.7959 -4.62584,-1.415 -3.31973,-1.36055 -3.70068,-6.14966 -2.17688,-7.12924 1.25171,-0.81632 4.29933,-1.57822 5.00681,-2.72109 a 3.13014,3.13014 0 0 0 0.38095,-3.10205 13.723,13.723 0 0 1 -0.70748,-1.7959 c -0.10884,-0.87075 0.32653,-0.97961 0.27211,-1.74151 a 1.44824,1.44824 0 0 0 -1.30613,-1.36055 0.46745,0.46745 0 0 1 -0.38095,-0.65306 c 0,-0.16326 0.43537,-1.14284 0.48979,-1.68706 0.10884,-0.48981 0.10884,-0.81632 -0.65306,-1.415 -0.97959,-0.7619 -0.87074,-0.70748 -1.36054,-1.034 V 78.3129 a 4.01469,4.01469 0 0 0 1.2517,-1.85035 2.00687,2.00687 0 0 0 -0.65306,-2.12245 c -1.14285,-0.81632 -5.17007,-2.12244 -5.65987,-2.449 -0.92516,-0.81632 0.16327,-1.90477 -1.034,-3.97279 a 20.452,20.452 0 0 0 -5.82313,-5.4966 C 91.53743,61.11559 86.966,60.02714 83.53743,60.08156 a 21.49977,21.49977 0 0 0 -9.68708,2.55783 c -3.04761,1.63267 -6.69387,4.46257 -8.21769,8.48978 -2.34013,7.18369 -0.32653,12.40819 6.91158,18.50343 2.55782,2.17686 3.42857,3.102 5.33332,7.29252 a 2.87172,2.87172 0 0 1 -0.65306,0.16326 21.29126,21.29126 0 0 0 -6.36735,-2.28573 c -5.44216,-0.65306 -8.97957,-0.05442 -9.30611,-0.54422 -0.70748,-0.97958 -5.44218,-4.57141 -7.45578,-5.7687 a 64.856,64.856 0 0 0 -14.74831,-6.5306 66.97878,66.97878 0 0 0 0.9796,-13.9864 71.97418,71.97418 0 0 1 2.72106,-21.00673 21.02041,21.02041 0 0 0 15.89117,4.517 21.66063,21.66063 0 0 0 3.2653,-42.28574 h 66.39455 a 29.88032,29.88032 0 0 1 29.932,29.932 v 302.85715 a 29.915,29.915 0 0 1 -29.932,29.932 H 57.95918 c 0.10885,-0.21769 1.57824,0 2.50341,-1.68708 1.5238,-2.66667 1.25169,-8.59863 1.85034,-14.04081 0.48979,-1.57824 3.86394,-11.42858 4.46258,-13.22449 a 69.29739,69.29739 0 0 1 4.898,-7.29253 c 1.46939,-1.68707 0.381,-2.88436 0.381,-2.88436 0,0 21.9864,-33.63265 33.79591,-44.517 0,0 2.34014,-2.2313 4.7347,-4.19048 4.95238,-4.78911 4.73469,-11.483 4.73469,-13.44217 3.04762,-15.40136 4.19049,-22.42177 4.19049,-22.42177 a 12.2196,12.2196 0 0 0 3.53741,-2.66667 c -0.21769,-5.38775 1.63265,-16.381 3.80952,-28.29932 4.08163,-22.2585 0.70748,-36.78912 0.70748,-36.78912 0.59864,-1.08843 0.65306,-1.90477 0.27211,-4.02721 -0.59864,-3.70068 -0.87074,-9.19728 -1.36054,-11.91837 a 39.03734,39.03734 0 0 0 6.47619,12.62585 56.54369,56.54369 0 0 1 9.36055,17.95919 c 0,0 0.54421,1.19728 0,1.90476 0,0 -3.102,3.64625 -3.26531,7.78232 A 10.53092,10.53092 0 0 1 137.415,209.415 c -0.27211,0.38095 -0.48979,1.14285 -1.08843,2.2313 a 21.853,21.853 0 0 1 -1.36054,2.01361 c -0.0544,1.30611 1.57823,1.85033 3.15645,0.59863 a 14.69306,14.69306 0 0 0 2.77551,-3.2653 c 0.54423,-0.87076 1.79593,-3.15647 2.9932,-3.15647 1.14287,-0.0544 1.415,0.27211 1.57824,0.43538 0.70748,0.65306 0.87074,2.068 1.74149,5.06123 0.27212,0.97959 0.65307,2.23128 1.034,3.483 1.14285,3.26529 2.61225,6.91156 2.88436,7.34693 a 11.22791,11.22791 0 0 0 0.97958,2.55783 3.2405,3.2405 0 0 0 1.90477,1.74149 1.14161,1.14161 0 0 0 1.034,-0.70748 c 0,-0.10884 -0.54422,-1.63265 -0.54422,-1.74149 a 1.3454,1.3454 0 0 0 2.23129,-0.32654 c 0.16328,-0.32653 -0.43537,-1.2517 -0.59864,-1.415 a 8.40009,8.40009 0 0 1 -0.59864,-1.4694 z"
     id="path4" />
  <path
     d="m 79.02041,252.78915 a 1.76764,1.76764 0 0 0 1.46938,-1.85034 l -1.034,-12.19048 a 8.46356,8.46356 0 0 1 -2.82994,-1.57822 c 0.4898,-4.517 0.65306,-9.14286 1.19728,-18.39457 -0.05442,-22.42176 1.7415,-31.61905 11.864,-47.89115 a 0.64076,0.64076 0 0 0 -0.16327,-0.7619 17.06726,17.06726 0 0 1 -2.2857,-6.04082 C 86.80277,161.14289 84.02726,156.02724 69.06128,135.23814 54.8572,120.10889 56.8708,114.39459 50.72114,110.80276 A 80.95914,80.95914 0 0 1 34.39455,97.68709 C 29.98639,92.9524 25.95918,90.34018 24,88.10886 21.11565,84.95242 22.20409,85.98642 22.74831,75.26535 c 0.48979,-10.6667 4.898,-19.80952 8.59863,-27.80953 2.55783,-5.65988 3.15647,-6.20408 2.77552,-12.29935 0,-0.21767 -0.21769,-2.61225 -0.38095,-5.27889 -0.2177,-2.34015 1.08843,-5.2245 2.50339,-7.56462 a 23.27136,23.27136 0 0 1 1.034,-2.34015 24.68018,24.68018 0 0 1 11.59184,-10.7211 h -10.0136 a 29.86867,29.86867 0 0 0 -29.87755,29.932 v 253.932 c 2.23129,-9.08843 6.20408,-11.102 7.67347,-17.415 C 17.85033,270.4218 20.68026,266.449 24,265.36058 a 5.75856,5.75856 0 0 1 3.70069,0.38095 44.28389,44.28389 0 0 0 9.57823,3.80952 2.3826,2.3826 0 0 1 1.08844,0.9796 c 1.90476,0.32653 14.04081,-2.82994 21.71428,-9.68708 4.35373,-3.97279 7.67345,-7.18367 18.93877,-8.05442 z"
     id="path6" />
  <path
     d="m 91.80952,270.31294 c -15.18368,5.4966 -27.64627,6.31293 -52.13606,14.47619 0.38095,2.72109 -2.50341,2.5034 -9.08844,5.932 0,0 -10.5034,10.01361 -11.483,12.7347 -3.21089,8.27211 -5.82313,11.102 -8.65307,10.12245 a 2.867,2.867 0 0 1 -1.415,-1.46939 v 29.87755 a 29.94987,29.94987 0 0 0 29.932,29.932 h 16.32656 c -4.02722,-1.7415 -5.27892,-4.46258 -7.02041,-10.068 a 32.46918,32.46918 0 0 1 -0.70749,-10.55782 24.74318,24.74318 0 0 0 -0.65305,-10.2313 c -1.46939,-5.76871 -2.34014,-10.01361 -0.4898,-14.2585 0.21768,-0.4898 1.68707,-2.82994 3.80952,-2.82994 a 30.31324,30.31324 0 0 0 10.55782,-1.74149 1.785,1.785 0 0 1 1.14286,0.27211 4.36261,4.36261 0 0 0 1.85034,-1.4695 c 3.26531,-4.40816 7.45578,-13.4966 9.7415,-18.12245 a 19.03515,19.03515 0 0 0 1.90475,-5.22449 c 2.82994,-11.80949 4.24491,-17.03399 16.38097,-27.37412 z"
     id="path8" />
  <path
     d="m 127.89115,326.63948 -8.381,8.54422 h 9.415 v 6.53061 a 11.20119,11.20119 0 0 1 -4.7347,0.97959 12.76255,12.76255 0 0 1 -7.83673,-2.55782 13.31038,13.31038 0 0 1 -1.25171,-1.08844 10.82548,10.82548 0 0 1 -0.92517,-1.034 15.47517,15.47517 0 0 1 -2.77551,-8.87075 c 0,-7.23809 4.898,-12.57143 11.64625,-12.57143 a 14.54844,14.54844 0 0 1 4.68028,0.76191 l 1.95919,0.7619 -0.70748,2.61225 h 3.80952 l 0.54422,-0.16327 h 6.585 v -15.40137 h -7.18367 v 2.28572 a 26.14564,26.14564 0 0 0 -9.63267,-1.68708 c -14.42176,0 -24.81633,10.068 -24.81633,24.10884 0,13.65987 10.01362,23.18368 24.27212,23.18368 a 31.13631,31.13631 0 0 0 18.12245,-5.4966 v -21.00681 h -12.78906 z"
     fill="#ffffff"
     id="path10" />
  <polygon
     points="128.599,321.959 132.952,320.544 115.211,338.721 120.272,326.095 117.442,327.129 121.578,320.871 132.626,317.17 "
     fill="#f9a350"
     id="polygon12" />
  <polygon
     points="120.272,326.095 120.871,324.571 118.531,325.442 117.442,327.129 "
     fill="#ef3e42"
     id="polygon14" />
  <polygon
     points="128.599,321.959 132.626,317.17 130.449,317.878 126.476,322.776 "
     fill="#ef3e42"
     id="polygon16" />
  <polygon
     points="115.211,338.721 132.952,320.544 130.395,321.361 116.354,335.891 "
     fill="#ef3e42"
     id="polygon18" />
  <path
     d="m 112.59863,343.347 c 0.76192,-1.95918 6.2041,-15.67347 6.2041,-15.67347 l -3.59185,1.415 5.82313,-8.87075 14.85715,-4.898 -3.97279,4.73469 4.95238,-1.68707 z m 4.84355,-16.21769 2.82993,-1.08843 -5.06123,12.68027 17.68712,-18.28575 -4.35375,1.52381 4.02722,-4.78911 -11.04762,3.64625 z"
     id="path20" />
</svg>
